<?xml version="1.0" encoding="UTF-8"?>
<svg version="1.1" xmlns="http://www.w3.org/2000/svg" width="313" height="161">
<path d="M0 0 C103.29 0 206.58 0 313 0 C313 53.13 313 106.26 313 161 C209.71 161 106.42 161 0 161 C0 107.87 0 54.74 0 0 Z " fill="#FEFDFD" transform="translate(0,0)"/>
<path d="M0 0 C1.05888428 0.0002417 1.05888428 0.0002417 2.13916016 0.00048828 C4.25768544 -0.00383426 6.37403832 -0.03999138 8.4921875 -0.078125 C17.796152 -0.15490159 25.0393162 1.21890222 33.10546875 6.05859375 C38.95258265 12.23982844 40.74487674 17.58725103 40.79296875 25.99609375 C40.79917236 26.71240967 40.80537598 27.42872559 40.81176758 28.16674805 C40.65248351 34.90873762 38.58909598 40.92344318 33.95898438 46.02978516 C26.35327127 52.1531421 16.21987836 51.97387919 6.95605469 51.83764648 C4.76813016 51.80826014 2.58257541 51.81716428 0.39453125 51.83007812 C-10.03097685 51.78365543 -10.03097685 51.78365543 -12.62695312 50.19946289 C-14.15070277 47.62004131 -13.99937739 45.6542345 -13.89453125 42.68359375 C-13.86746094 41.68972656 -13.84039062 40.69585937 -13.8125 39.671875 C-13.77769531 38.91261719 -13.74289062 38.15335938 -13.70703125 37.37109375 C-12.21538452 37.33350952 -12.21538452 37.33350952 -10.69360352 37.29516602 C-7.01654378 37.20124493 -3.33967975 37.10098756 0.3371582 36.9987793 C1.93086175 36.95537229 3.52461355 36.91370156 5.1184082 36.8737793 C7.40460783 36.81621568 9.69056324 36.75248226 11.9765625 36.6875 C13.05157265 36.66243126 13.05157265 36.66243126 14.14830017 36.63685608 C17.50824257 36.82090721 17.50824257 36.82090721 20.29296875 35.37109375 C20.61058828 32.46588094 20.64074752 30.89872383 19.01123047 28.42651367 C17.07809408 26.45406015 15.14208353 24.49019482 13.16796875 22.55859375 C12.5028125 21.86572266 11.83765625 21.17285156 11.15234375 20.45898438 C7.1594992 16.40333758 7.1594992 16.40333758 1.80078125 14.921875 C0.97320312 15.07011719 0.145625 15.21835937 -0.70703125 15.37109375 C-1.17260471 18.55251242 -1.21666502 20.62452498 0.62890625 23.328125 C2.12944679 25.05762125 3.70727059 26.71932483 5.29296875 28.37109375 C-0.64703125 28.37109375 -6.58703125 28.37109375 -12.70703125 28.37109375 C-12.76075376 24.07926197 -12.80057155 19.78809589 -12.83203125 15.49609375 C-12.84878906 14.27277344 -12.86554687 13.04945312 -12.8828125 11.7890625 C-12.88925781 10.62246094 -12.89570313 9.45585938 -12.90234375 8.25390625 C-12.91281738 7.17512207 -12.92329102 6.09633789 -12.93408203 4.98486328 C-12.34436233 -1.80388841 -5.2221779 0.03766731 0 0 Z " fill="#3F6AB2" transform="translate(15.70703125,28.62890625)"/>
<path d="M0 0 C1.05888428 0.0002417 1.05888428 0.0002417 2.13916016 0.00048828 C4.25768544 -0.00383426 6.37403832 -0.03999138 8.4921875 -0.078125 C17.85010937 -0.15555502 25.22740998 1.13775837 33.23046875 6.24609375 C35.63625539 8.72478302 36.81046438 11.27092793 38.29296875 14.37109375 C36.84676147 14.40867798 36.84676147 14.40867798 35.37133789 14.44702148 C31.80609033 14.54094681 28.24104442 14.64120314 24.67602539 14.7434082 C23.13082586 14.7868136 21.58557661 14.82848446 20.0402832 14.8684082 C17.82357779 14.92597574 15.60712395 14.98970799 13.390625 15.0546875 C12.69582535 15.07139999 12.0010257 15.08811249 11.28517151 15.10533142 C8.00534846 14.93612231 8.00534846 14.93612231 5.29296875 16.37109375 C4.61923287 18.61106602 4.61923287 18.61106602 5.29296875 21.37109375 C6.82748836 23.24257019 8.50973213 24.82510552 10.29296875 26.4609375 C12.35548017 28.43079704 14.07334348 30.52241512 15.85546875 32.74609375 C18.24697016 35.53707847 19.04369412 36.2926184 22.66796875 37.43359375 C25.21915734 37.67493027 25.21915734 37.67493027 26.29296875 36.37109375 C26.96670463 34.13112148 26.96670463 34.13112148 26.29296875 31.37109375 C24.59244459 29.35597262 22.77110764 27.60114115 20.82421875 25.82421875 C20.31890625 25.3446875 19.81359375 24.86515625 19.29296875 24.37109375 C19.29296875 24.04109375 19.29296875 23.71109375 19.29296875 23.37109375 C26.55296875 23.37109375 33.81296875 23.37109375 41.29296875 23.37109375 C41.29296875 31.18475518 40.55398109 37.83386326 35.79296875 44.24609375 C29.13389311 50.89989696 20.18555226 51.81337078 11.17996216 51.83773804 C9.75361221 51.82607527 8.32730216 51.80768149 6.90112305 51.78271484 C4.7025019 51.74562192 2.50554568 51.74170053 0.30664062 51.7421875 C-10.41096863 51.66715637 -10.41096863 51.66715637 -12.70703125 49.37109375 C-12.96099854 47.35974121 -12.96099854 47.35974121 -12.96582031 44.86132812 C-12.97212463 43.92695923 -12.97842896 42.99259033 -12.98492432 42.02990723 C-12.98087585 41.01843628 -12.97682739 40.00696533 -12.97265625 38.96484375 C-12.9745697 37.92920288 -12.97648315 36.89356201 -12.97845459 35.82653809 C-12.97981722 33.6341935 -12.97611539 31.44184086 -12.96777344 29.24951172 C-12.95707517 25.88490759 -12.96766628 22.52083743 -12.98046875 19.15625 C-12.97914717 17.02994673 -12.97658481 14.9036438 -12.97265625 12.77734375 C-12.97670471 11.7658728 -12.98075317 10.75440186 -12.98492432 9.71228027 C-12.97862 8.77791138 -12.97231567 7.84354248 -12.96582031 6.88085938 C-12.96422913 6.05638306 -12.96263794 5.23190674 -12.96099854 4.38244629 C-12.18318077 -1.77766107 -4.69805303 0.03388683 0 0 Z " fill="#3E68B1" transform="translate(15.70703125,80.62890625)"/>
<path d="M0 0 C26.47058824 0 26.47058824 0 32.5 5.125 C34.5946409 9.1397284 34.81223901 12.56083231 34 17 C31.88608123 20.49890004 30.88263941 21.70578686 27 23 C27.928125 23.4125 28.85625 23.825 29.8125 24.25 C33.01273382 26.00699111 34.15124636 26.95308051 36 30 C36.79314969 34.00540594 36.87501953 38.12940268 35.12109375 41.87890625 C31.92554961 46.08690002 29.11232092 46.80900532 24 49 C16.08 49 8.16 49 0 49 C0 32.83 0 16.66 0 0 Z " fill="#F26B2C" transform="translate(69,29)"/>
<path d="M0 0 C5.45382798 2.37985221 8.79386644 6.536299 11 12 C12.0612567 17.81384105 11.35879755 23.10834898 8.3828125 28.23828125 C5.21258607 32.27718554 1.53360469 34.55818313 -3.53125 35.44140625 C-9.1681014 35.70457251 -12.65581434 34.8270207 -17 31 C-21.94655156 25.51868611 -22.35543178 21.19972336 -22.27734375 14.015625 C-21.7615258 8.40701296 -19.53221275 5.49390743 -15.5 1.5625 C-10.31899723 -0.75044766 -5.58322722 -0.73726247 0 0 Z " fill="#F26929" transform="translate(136,96)"/>
<path d="M0 0 C4.72986729 4.86500636 4.4223335 9.54329713 4.3515625 16.125 C4.31804687 17.3625 4.28453125 18.6 4.25 19.875 C4.23195312 21.13570312 4.21390625 22.39640625 4.1953125 23.6953125 C4.14830729 26.79765614 4.08260676 29.8984338 4 33 C1.36 33 -1.28 33 -4 33 C-4.33 31.68 -4.66 30.36 -5 29 C-5.598125 29.639375 -6.19625 30.27875 -6.8125 30.9375 C-9.64593433 33.6090238 -11.45284979 33.95870564 -15.3125 34.25 C-19.33763189 33.9771097 -21.60309707 33.13293905 -25 31 C-27.68277915 26.97583127 -27.79769475 23.72800327 -27 19 C-23.74498921 14.36407553 -20.45273515 13.09054703 -15 12 C-12.00508335 11.58921398 -9.01165239 11.25950746 -6 11 C-5.74969023 8.58380177 -5.74969023 8.58380177 -6 6 C-8.89461901 3.63860698 -8.89461901 3.63860698 -12.5625 4.1875 C-16.25825752 4.64839762 -16.25825752 4.64839762 -18 8 C-20.64 7.67 -23.28 7.34 -26 7 C-24.64908476 2.57882285 -22.8349855 0.556657 -19 -2 C-12.69235869 -4.61005847 -5.69927835 -3.2880452 0 0 Z " fill="#F26827" transform="translate(174,44)"/>
<path d="M0 0 C3.11302472 1.70693162 4.81813778 3.23892543 6.796875 6.20703125 C7.02392578 9.2097168 7.02392578 9.2097168 6.9921875 12.84375 C6.98574219 14.14248047 6.97929687 15.44121094 6.97265625 16.77929688 C6.9559456 18.15104432 6.93901571 19.52278911 6.921875 20.89453125 C6.91184174 22.27798843 6.90271649 23.66145252 6.89453125 25.04492188 C6.87092467 28.43246577 6.83799537 31.81966197 6.796875 35.20703125 C4.156875 35.20703125 1.516875 35.20703125 -1.203125 35.20703125 C-1.533125 34.21703125 -1.863125 33.22703125 -2.203125 32.20703125 C-2.63625 32.68140625 -3.069375 33.15578125 -3.515625 33.64453125 C-6.79253684 36.67870888 -10.66543395 36.59410427 -14.91015625 36.56640625 C-18.80068136 35.95664763 -20.52536135 34.01868309 -23.203125 31.20703125 C-24.75336964 28.10654197 -24.49304515 25.62808907 -24.203125 22.20703125 C-22.03778117 18.39602612 -19.52253207 16.3553574 -15.41796875 14.765625 C-10.77298123 13.59413785 -5.97269161 13.43415347 -1.203125 13.20703125 C-1.863125 11.22703125 -2.523125 9.24703125 -3.203125 7.20703125 C-6.46589067 6.34689398 -6.46589067 6.34689398 -10.203125 6.20703125 C-11.028125 6.86703125 -11.853125 7.52703125 -12.703125 8.20703125 C-15.203125 10.20703125 -15.203125 10.20703125 -19.015625 9.95703125 C-20.0675 9.70953125 -21.119375 9.46203125 -22.203125 9.20703125 C-21.65815769 5.39226009 -20.09251327 3.68364977 -17.203125 1.20703125 C-12.12112664 -1.87296775 -5.55296001 -1.99867178 0 0 Z " fill="#F26725" transform="translate(229.203125,41.79296875)"/>
<path d="M0 0 C4.58681514 2.7894122 7.38282468 6.37532688 8.69921875 11.546875 C8.74046875 12.3925 8.78171875 13.238125 8.82421875 14.109375 C3.56106086 14.63569079 3.56106086 14.63569079 0.82421875 14.109375 C-1.42578125 11.234375 -1.42578125 11.234375 -3.17578125 8.109375 C-6.59128636 5.51830216 -10.00903589 5.60649194 -14.17578125 6.109375 C-18.48675446 8.9562441 -20.61742971 11.23416513 -22.17578125 16.109375 C-22.86914167 22.29559069 -22.84892724 27.86202359 -19.17578125 33.109375 C-15.40115017 36.51554968 -12.52566062 36.67010189 -7.58984375 36.5390625 C-3.92011684 35.88587486 -2.33433203 34.03386316 -0.17578125 31.109375 C0.15421875 30.449375 0.48421875 29.789375 0.82421875 29.109375 C3.46421875 29.109375 6.10421875 29.109375 8.82421875 29.109375 C8.44981653 34.35100609 6.71744377 37.66164339 2.82421875 41.109375 C-2.77511469 45.14089508 -8.38944686 46.1575827 -15.17578125 45.109375 C-21.34519995 43.26073713 -25.68111577 39.4626683 -29.17578125 34.109375 C-32.42268305 27.59340825 -32.07242619 19.62061987 -30.67578125 12.59375 C-28.52135485 6.17943504 -24.08390331 1.98714245 -18.19140625 -1.1640625 C-12.3260252 -3.27832776 -5.64770805 -2.42862902 0 0 Z " fill="#F26726" transform="translate(101.17578125,85.890625)"/>
<path d="M0 0 C4.96545362 2.12805155 6.97700942 5.05629906 9.3359375 9.70703125 C10 12 10 12 10 19 C2.08 19 -5.84 19 -14 19 C-11.81940167 25.84825895 -11.81940167 25.84825895 -8 28 C-3.24229971 27.90963174 -3.24229971 27.90963174 0.5 25.375 C0.995 24.92125 1.49 24.4675 2 24 C5.6875 24.3125 5.6875 24.3125 9 25 C8.875 27.25 8.875 27.25 8 30 C2.27423612 34.58061111 -2.72067033 35.78695456 -10 35 C-14.9916755 33.08012481 -18.76142903 30.62416656 -21.0859375 25.69921875 C-23.08697155 19.7901823 -22.94212233 13.27434719 -20.375 7.5625 C-15.57412184 -0.49966437 -8.73572045 -1.15196314 0 0 Z " fill="#F26724" transform="translate(244,96)"/>
<path d="M0 0 C2.64 0 5.28 0 8 0 C8.33 5.28 8.66 10.56 9 16 C10.98 14.35 12.96 12.7 15 11 C18.94538387 9.89761333 22.47951153 10.83305087 26.3125 12.0625 C29.75642798 14.5453318 30.98871685 16.97717203 32 21 C32.35366691 25.48694405 32.2831848 29.94031439 32.1875 34.4375 C32.16719727 36.25024414 32.16719727 36.25024414 32.14648438 38.09960938 C32.11129946 41.06687082 32.06206696 44.03319937 32 47 C29.36 47 26.72 47 24 47 C23.98598145 45.94087402 23.98598145 45.94087402 23.97167969 44.86035156 C23.91794341 41.65619455 23.83430243 38.45349243 23.75 35.25 C23.73582031 34.13882813 23.72164062 33.02765625 23.70703125 31.8828125 C23.67480469 30.81289063 23.64257812 29.74296875 23.609375 28.640625 C23.58842773 27.65610352 23.56748047 26.67158203 23.54589844 25.65722656 C22.85558573 22.29704608 21.68537266 21.07888033 19 19 C15.52517825 18.64542635 13.31622581 18.8945914 10 20 C8.82110499 23.04314396 8.8094268 26.18616805 8.68359375 29.421875 C8.64169922 30.44667969 8.59980469 31.47148438 8.55664062 32.52734375 C8.51732422 33.59082031 8.47800781 34.65429688 8.4375 35.75 C8.39431641 36.82894531 8.35113281 37.90789062 8.30664062 39.01953125 C8.20071011 41.67956428 8.09863579 44.33968812 8 47 C5.36 47 2.72 47 0 47 C0 31.49 0 15.98 0 0 Z " fill="#F16522" transform="translate(110,30)"/>
<path d="M0 0 C2.64 0 5.28 0 8 0 C8.33 1.32 8.66 2.64 9 4 C9.928125 3.01 9.928125 3.01 10.875 2 C15.24084127 -0.79413841 18.94245892 -0.82351409 24 0 C28.15534058 2.33737907 29.55382 4.55361335 31 9 C31.22705078 11.86254883 31.22705078 11.86254883 31.1953125 14.95703125 C31.18886719 16.06884766 31.18242187 17.18066406 31.17578125 18.32617188 C31.15902344 19.47666016 31.14226562 20.62714844 31.125 21.8125 C31.11597656 22.98232422 31.10695312 24.15214844 31.09765625 25.35742188 C31.07413732 28.23849053 31.04126852 31.11913989 31 34 C28.36 34 25.72 34 23 34 C22.9906543 33.32420898 22.98130859 32.64841797 22.97167969 31.95214844 C22.91792699 28.8840289 22.83429008 25.81742613 22.75 22.75 C22.73582031 21.68652344 22.72164062 20.62304688 22.70703125 19.52734375 C22.67480469 18.50253906 22.64257812 17.47773437 22.609375 16.421875 C22.58842773 15.47924805 22.56748047 14.53662109 22.54589844 13.56542969 C21.84230215 10.25890476 20.67163902 9.02310193 18 7 C14.37350049 6.91083846 14.37350049 6.91083846 11 8 C8.80835056 11.28747416 8.71320614 12.48494825 8.5859375 16.32421875 C8.52792969 17.86625977 8.52792969 17.86625977 8.46875 19.43945312 C8.4378125 20.51130859 8.406875 21.58316406 8.375 22.6875 C8.31699219 24.31268555 8.31699219 24.31268555 8.2578125 25.97070312 C8.16349491 28.64696467 8.07789995 31.32321843 8 34 C5.36 34 2.72 34 0 34 C0 22.78 0 11.56 0 0 Z " fill="#F26A2A" transform="translate(187,96)"/>
<path d="M0 0 C2.64 0 5.28 0 8 0 C8.33 1.32 8.66 2.64 9 4 C9.433125 3.34 9.86625 2.68 10.3125 2 C14.00120893 -0.74508571 16.85524255 -0.61531233 21.36328125 -0.46484375 C25.17255562 0.20671721 26.79377913 1.91129078 29 5 C30.38308781 7.76617563 30.11210196 10.01018 30.09765625 13.1015625 C30.09443359 14.31328125 30.09121094 15.525 30.08789062 16.7734375 C30.07951172 18.04445313 30.07113281 19.31546875 30.0625 20.625 C30.05798828 21.90375 30.05347656 23.1825 30.04882812 24.5 C30.03701203 27.66671292 30.02053815 30.83333356 30 34 C27.36 34 24.72 34 22 34 C21.98541748 33.2886792 21.97083496 32.5773584 21.95581055 31.84448242 C21.88138994 28.62493668 21.78471 25.40643482 21.6875 22.1875 C21.66494141 21.06794922 21.64238281 19.94839844 21.61914062 18.79492188 C21.5659668 17.18520508 21.5659668 17.18520508 21.51171875 15.54296875 C21.48553467 14.55321045 21.45935059 13.56345215 21.43237305 12.54370117 C21.18465105 9.97831025 21.18465105 9.97831025 19.69067383 8.14575195 C17.84836203 6.65476429 17.84836203 6.65476429 14.4375 7.125 C10.74557606 7.65633933 10.74557606 7.65633933 9 11 C8.63303819 13.51502177 8.63303819 13.51502177 8.5859375 16.32421875 C8.52792969 17.86625977 8.52792969 17.86625977 8.46875 19.43945312 C8.4378125 20.51130859 8.406875 21.58316406 8.375 22.6875 C8.31699219 24.31268555 8.31699219 24.31268555 8.2578125 25.97070312 C8.16349491 28.64696467 8.07789995 31.32321843 8 34 C5.36 34 2.72 34 0 34 C0 22.78 0 11.56 0 0 Z " fill="#F26827" transform="translate(151,96)"/>
<path d="M0 0 C2.40805584 2.11617029 4.29601572 4.1300609 6.0625 6.8125 C6.0625 8.1325 6.0625 9.4525 6.0625 10.8125 C2.875 11.125 2.875 11.125 -0.9375 10.8125 C-2.62461423 9.1665349 -4.2920622 7.50012851 -5.9375 5.8125 C-9.02309301 5.14528464 -9.02309301 5.14528464 -11.9375 5.8125 C-14.49699546 7.66592775 -14.91668798 8.75006393 -15.9375 11.8125 C-16.44633987 16.26693424 -16.42254243 19.77914874 -14.5 23.875 C-10.76996642 26.69526929 -7.45687312 26.24705511 -2.9375 25.8125 C-2.6075 24.4925 -2.2775 23.1725 -1.9375 21.8125 C0.7025 21.8125 3.3425 21.8125 6.0625 21.8125 C5.7624825 25.31270422 5.10516259 26.76154191 2.8125 29.5 C-1.50721523 33.13248781 -5.08472131 34.34718542 -10.8125 34.1953125 C-15.89726408 33.27930721 -19.81479832 30.29736351 -22.875 26.25 C-25.51854773 20.1853905 -26.0324544 13.8092173 -23.75 7.5625 C-18.10639948 -1.00020424 -9.76086379 -3.94588111 0 0 Z " fill="#F26726" transform="translate(281.9375,97.1875)"/>
<path d="M0 0 C2.64 0 5.28 0 8 0 C8 2.97 8 5.94 8 9 C10.31 9 12.62 9 15 9 C15 10.98 15 12.96 15 15 C12.69 15 10.38 15 8 15 C8.33 21.93 8.66 28.86 9 36 C10.98 36.66 12.96 37.32 15 38 C15.33 39.98 15.66 41.96 16 44 C13.60284579 45.19857711 12.34200348 45.08022212 9.6875 44.875 C8.92824219 44.83117187 8.16898438 44.78734375 7.38671875 44.7421875 C3.60353321 43.56574682 2.27507631 42.28489089 0 39 C-0.61108923 34.87864776 -0.47033047 30.84208366 -0.3125 26.6875 C-0.27866211 25.00430664 -0.27866211 25.00430664 -0.24414062 23.28710938 C-0.18533776 20.52337464 -0.10320401 17.76237446 0 15 C-1.65 15 -3.3 15 -5 15 C-5 13.02 -5 11.04 -5 9 C-3.35 9 -1.7 9 0 9 C0 6.03 0 3.06 0 0 Z " fill="#F16420" transform="translate(245,33)"/>
<path d="M0 0 C2.64 0 5.28 0 8 0 C8 2.64 8 5.28 8 8 C10.31 8 12.62 8 15 8 C15 9.98 15 11.96 15 14 C12.69 14 10.38 14 8 14 C8.33 20.93 8.66 27.86 9 35 C10.98 35.66 12.96 36.32 15 37 C15.042721 38.66611905 15.04063832 40.33382885 15 42 C14 43 14 43 10.8125 43.3125 C6.38639804 42.94970476 4.41506491 41.76457636 1 39 C-0.27861615 36.44276771 -0.11336609 34.63262898 -0.09765625 31.7734375 C-0.09443359 30.7421875 -0.09121094 29.7109375 -0.08789062 28.6484375 C-0.07951172 27.56820312 -0.07113281 26.48796875 -0.0625 25.375 C-0.05798828 24.28703125 -0.05347656 23.1990625 -0.04882812 22.078125 C-0.03701776 19.38536211 -0.02054778 16.69270812 0 14 C-1.65 14 -3.3 14 -5 14 C-5 12.02 -5 10.04 -5 8 C-3.35 8 -1.7 8 0 8 C0 5.36 0 2.72 0 0 Z " fill="#F16521" transform="translate(295,88)"/>
<path d="M0 0 C0 2.31 0 4.62 0 7 C-2.97851562 7.5859375 -2.97851562 7.5859375 -5.95703125 8.171875 C-8.67308179 9.27283621 -9.4724689 10.51218509 -11 13 C-11.49948459 15.60162971 -11.49948459 15.60162971 -11.51171875 18.421875 C-11.54716797 19.44667969 -11.58261719 20.47148438 -11.61914062 21.52734375 C-11.65297852 23.12255859 -11.65297852 23.12255859 -11.6875 24.75 C-11.72166016 25.82894531 -11.75582031 26.90789062 -11.79101562 28.01953125 C-11.87340663 30.67958377 -11.94258645 33.33931035 -12 36 C-14.64 36 -17.28 36 -20 36 C-20 24.45 -20 12.9 -20 1 C-17.36 1 -14.72 1 -12 1 C-11.67 1.99 -11.34 2.98 -11 4 C-10.29875 3.34 -9.5975 2.68 -8.875 2 C-5.56539771 -0.30233203 -3.93774177 -0.36630156 0 0 Z " fill="#F1641F" transform="translate(204,41)"/>
<path d="M0 0 C2.875 1.75 2.875 1.75 5 5 C5.86357403 10.4367617 5.82127835 15.22056358 3.5 20.25 C-0.2494964 22.87464748 -2.4722585 22.5749513 -7 22 C-9.67431489 20.18836733 -9.95920359 19.12238923 -11 16 C-11.41277571 11.3165833 -11.56939214 7.26819158 -9.625 2.9375 C-6.78135201 -0.45300337 -4.29127813 -0.50485625 0 0 Z " fill="#FEFCFB" transform="translate(133,102)"/>
<path d="M0 0 C12.2049751 -0.49313031 12.2049751 -0.49313031 15.890625 1.79296875 C18 4 18 4 18.5625 7.5625 C18 11 18 11 16.41796875 12.703125 C11.50050209 15.34060308 5.40949011 14.15026361 0 14 C0 9.38 0 4.76 0 0 Z " fill="#FEFDFD" transform="translate(78,56)"/>
<path d="M0 0 C9.99635036 -0.36131387 9.99635036 -0.36131387 14.125 1.125 C16 3 16 3 17.125 5.875 C17 9 17 9 15.3125 11.875 C10.22273603 15.1401316 5.97401591 14.32824263 0 14 C0 9.38 0 4.76 0 0 Z " fill="#FEF7F5" transform="translate(78,36)"/>
<path d="M0 0 C0.4206933 4.29107165 0.45543836 6.35134537 -2.0625 9.9375 C-5.71152089 12.4995785 -7.62761404 12.64776088 -12 12 C-14 10.8125 -14 10.8125 -15 9 C-14.875 6.4375 -14.875 6.4375 -14 4 C-11.01163152 2.00775434 -9.33029406 1.50964585 -5.875 0.875 C-4.98554688 0.70742188 -4.09609375 0.53984375 -3.1796875 0.3671875 C-1 0 -1 0 0 0 Z " fill="#FEF5F2" transform="translate(228,60)"/>
<path d="M0 0 C0.3125 3.25 0.3125 3.25 0 7 C-2.62413334 10.0100353 -4.15643074 10.89877169 -8.125 11.375 C-11 11 -11 11 -14 9 C-14.43718112 6.15832275 -14.44349862 4.65357691 -12.8125 2.25 C-8.92939937 -0.42800043 -4.56552695 -0.10617505 0 0 Z " fill="#FEF8F6" transform="translate(169,61)"/>
<path d="M0 0 C2.4375 1.75 2.4375 1.75 4 4 C4 5.32 4 6.64 4 8 C-1.28 8 -6.56 8 -12 8 C-11 3 -11 3 -9.375 1.1875 C-6.02959229 -0.48520386 -3.69013497 -0.46126687 0 0 Z " fill="#FEFAF9" transform="translate(242,102)"/>
<path d="M0 0 C7.26 0 14.52 0 22 0 C22 2.31 22 4.62 22 7 C21.67 7 21.34 7 21 7 C21 5.02 21 3.04 21 1 C19.80761719 1.0721875 18.61523438 1.144375 17.38671875 1.21875 C15.82031529 1.31254661 14.25390889 1.40629405 12.6875 1.5 C11.50897461 1.57154297 11.50897461 1.57154297 10.30664062 1.64453125 C9.1706543 1.71220703 9.1706543 1.71220703 8.01171875 1.78125 C7.31522217 1.82314453 6.61872559 1.86503906 5.90112305 1.90820312 C4.26903034 1.98700971 2.63399421 2 1 2 C0.67 1.34 0.34 0.68 0 0 Z " fill="#5F81BD" transform="translate(35,104)"/>
</svg>
