<svg xmlns="http://www.w3.org/2000/svg" width="144" height="40" viewBox="0 0 144 40" fill="none"><path d="M25.987 0.00246608C26.4134 0.0621416 26.8428 0.108501 27.2661 0.184452C28.3741 0.381727 29.2823 0.965659 30.1376 1.65119C31.2735 2.56161 32.2504 3.62936 33.2287 4.69217C34.4032 5.96805 35.5577 7.26266 36.6771 8.58539C37.2183 9.22807 37.7045 9.9138 38.1309 10.6356C38.9105 11.9529 38.7814 13.2618 37.9187 14.5086C36.5675 16.4576 34.6724 17.5712 32.3414 17.986C31.7292 18.0892 31.1106 18.1511 30.4899 18.1715C28.8835 18.2385 27.6605 17.5397 26.7207 16.288C25.989 15.3144 25.5071 14.2166 25.0497 13.1064C24.6144 12.0505 24.1925 10.9892 23.7651 9.92982C23.3038 8.7871 22.8614 7.63699 22.3765 6.50365C21.7414 5.01768 20.9252 3.62541 20.018 2.28543C19.8053 1.97176 19.5831 1.6645 19.3574 1.36021C19.2433 1.20584 19.3033 1.13433 19.463 1.1077C19.7913 1.05295 20.123 1.01991 20.4488 0.954316C21.1329 0.816224 21.8175 0.678132 22.4951 0.510448C23.4088 0.287528 24.3251 0.0858148 25.2679 0.0266325C25.309 0.0210641 25.3495 0.0121559 25.389 0L25.987 0.00246608Z" fill="url(#paint0_linear_160_2290)"></path><path d="M6.96191 23.3039C6.77379 24.4471 6.79276 25.6141 7.01796 26.7508C7.4213 28.8389 8.3601 30.7071 9.46754 32.5053C9.58314 32.6927 9.70524 32.8766 9.85337 33.1074C9.66571 33.1479 9.49757 33.1992 9.32592 33.2199C8.39513 33.3318 7.46334 33.5266 6.53204 33.5257C4.22208 33.5257 2.46358 32.4801 1.25856 30.5448C0.617515 29.5156 0.333774 28.3714 0.195156 27.1808C0.0014915 25.5217 -0.00951824 23.8562 0.00399325 22.1908C0.0114996 21.265 0.104078 20.3418 0.428354 19.4629C1.02386 17.8601 2.17284 16.7844 3.76169 16.1556C5.20091 15.5855 6.69568 15.4938 8.21998 15.7068C10.2612 15.9919 12.0587 16.8352 13.6806 18.0579C14.4928 18.6694 15.271 19.3244 16.0682 19.9556C16.4225 20.2358 16.8188 20.4439 17.2767 20.4838C17.663 20.5179 17.9382 20.3951 17.9488 19.9369C17.9633 19.3135 17.7236 18.77 17.4408 18.2438C16.3819 16.271 14.8071 14.8132 12.8069 13.7874C11.4122 13.0712 9.92243 12.6989 8.3621 12.547C6.84981 12.399 5.36755 12.512 3.93534 13.0145C3.36835 13.2118 2.8379 13.5146 2.29294 13.7726C2.16783 13.8322 2.05073 13.9077 1.90811 13.9881C1.88253 13.9316 1.86014 13.8738 1.84106 13.815C1.6554 13.1013 1.44071 12.3926 1.44822 11.645C1.45973 10.703 1.76649 9.8463 2.25591 9.04931C2.89095 8.01362 3.73016 7.1461 4.6004 6.31163C6.30735 4.67573 8.01531 3.03983 9.7713 1.45621C10.9443 0.398325 12.3585 0.0925494 13.9048 0.515703C14.6665 0.724321 15.2605 1.19975 15.7789 1.76889C16.6076 2.67882 17.2106 3.73572 17.7856 4.80988C18.5016 6.16316 19.1306 7.5595 19.6687 8.99062C20.3838 10.8647 21.0829 12.7448 21.8431 14.6011C22.374 15.8972 23.0276 17.1376 23.9479 18.2231C24.8861 19.3293 26.0677 20.0745 27.4383 20.5356C28.249 20.8021 29.0929 20.9579 29.9465 20.9987C32.3485 21.1325 34.5609 20.5606 36.5836 19.2829C37.275 18.855 37.8906 18.3184 38.4061 17.6944C38.4317 17.6628 38.4852 17.6534 38.5858 17.6046C38.9506 18.8869 39.3304 20.1347 39.6537 21.3962C39.8008 21.9703 39.8589 22.57 39.9174 23.1618C39.972 23.7147 40.0225 24.2755 39.9895 24.8283C39.8744 26.7646 39.5156 28.6466 38.4317 30.3145C37.7866 31.3063 36.9404 32.09 35.8069 32.5339C35.2268 32.7556 34.6132 32.8803 33.9914 32.9028C33.3258 32.9329 32.6583 32.9171 31.9937 32.9555C31.0654 33.0098 30.1421 33.0926 29.2999 33.5503C28.5878 33.9375 28.0158 34.4795 27.5099 35.0955C26.8248 35.9304 26.1807 36.8014 25.4551 37.6004C24.3197 38.8501 22.903 39.6367 21.2045 39.9095C19.5236 40.1787 17.9868 39.8537 16.6231 38.8462C15.6503 38.1276 14.9382 37.1807 14.3447 36.1445C13.4855 34.6452 12.8384 33.0483 12.1288 31.4794C11.4117 29.8963 10.6861 28.3127 9.87188 26.7769C9.19631 25.503 8.30105 24.3667 7.16008 23.4425C7.11154 23.403 7.05699 23.37 6.96191 23.3039Z" fill="url(#paint1_linear_160_2290)"></path><path d="M55.6025 7L55.6025 20.0768C55.6025 21.4474 56.026 22.7846 56.815 23.9054C57.808 25.3159 59.3612 26.2295 61.0764 26.4119L61.9023 26.4998" stroke="#F2F2F2" stroke-width="2.25" stroke-linecap="round"></path><path d="M62.3496 12.5503L52 12.5503" stroke="#F2F2F2" stroke-width="2.25" stroke-linecap="round"></path><path d="M64.5659 19.1493C64.5659 15.0072 67.9236 11.6494 72.0656 11.6494C76.003 11.6494 79.2181 14.8192 79.5262 18.6904C79.5528 19.0258 79.2776 19.2993 78.9412 19.2993H64.5659" stroke="#F2F2F2" stroke-width="2.25"></path><path d="M64.5659 19.1495C64.5659 23.2916 67.9236 26.6494 72.0656 26.6494C75.0826 26.6494 77.4751 25.2429 78.6654 22.6745" stroke="#F2F2F2" stroke-width="2.25" stroke-linecap="round"></path><path d="M89.978 10.75C94.5124 10.75 98.1889 14.4262 98.1889 18.9609C98.1889 23.4957 94.5124 27.1719 89.978 27.1719C87.3995 27.1717 85.1003 25.9815 83.5952 24.1221V33.0859C83.5952 33.5904 83.1865 33.9998 82.6821 34C82.1775 34 81.768 33.5905 81.768 33.0859V11.9893C81.768 11.4847 82.1775 11.0752 82.6821 11.0752C83.1865 11.0754 83.5952 11.4848 83.5952 11.9893V13.7988C85.1003 11.9397 87.3997 10.7501 89.978 10.75ZM89.9926 12.7012C86.5357 12.7012 83.7329 15.5039 83.7329 18.9609C83.7331 22.4178 86.5358 25.2197 89.9926 25.2197C93.4495 25.2197 96.2522 22.4178 96.2524 18.9609C96.2524 15.5039 93.4496 12.7012 89.9926 12.7012Z" fill="#F2F2F2"></path><path d="M112.958 26.7997V18.5496C112.958 14.9875 110.07 12.0999 106.508 12.0999C102.946 12.0999 100.058 14.9875 100.058 18.5496V26.7997" stroke="#F2F2F2" stroke-width="2.25" stroke-linecap="round"></path><path d="M100.093 11.6494L100.093 26.6493" stroke="#F2F2F2" stroke-width="2.25" stroke-linecap="round"></path><ellipse cx="123.412" cy="19.1493" rx="7.49973" ry="7.49992" stroke="#F2F2F2" stroke-width="2.25"></ellipse><path d="M135.247 7L135.247 20.0768C135.247 21.4474 135.671 22.7846 136.46 23.9054C137.453 25.3159 139.006 26.2295 140.721 26.4119L141.547 26.4998" stroke="#F2F2F2" stroke-width="2.25" stroke-linecap="round"></path><path d="M142 12.5503L131.65 12.5503" stroke="#F2F2F2" stroke-width="2.25" stroke-linecap="round"></path><defs><linearGradient id="paint0_linear_160_2290" x1="23.7155" y1="1.42896" x2="36.8804" y2="17.2717" gradientUnits="userSpaceOnUse"><stop stop-color="#FF3CAC"></stop><stop offset="0.415383" stop-color="#784BA0"></stop><stop offset="0.8" stop-color="#2B86C5"></stop></linearGradient><linearGradient id="paint1_linear_160_2290" x1="9.13158" y1="3.45066" x2="38.1083" y2="36.4817" gradientUnits="userSpaceOnUse"><stop stop-color="#FF3CAC"></stop><stop offset="0.415383" stop-color="#784BA0"></stop><stop offset="0.8" stop-color="#2B86C5"></stop></linearGradient></defs></svg>