<svg width="40" height="40" viewBox="0 0 40 40" fill="none" xmlns="http://www.w3.org/2000/svg">
<path d="M23.9448 12.88C24.2398 13.025 24.5723 13.0475 24.8623 13.2025C26.5639 14.1258 27.4123 15.5167 27.4073 17.375C27.3989 20.2383 27.3973 23.125 27.4023 26.035C27.4039 27.4283 26.7881 28.6083 25.5548 29.575C25.4831 29.6333 25.4423 29.7083 25.4323 29.8C25.3448 30.61 25.4148 31.385 24.5623 31.8025C24.2606 31.9508 23.9431 32.0217 23.6098 32.015C21.3814 31.975 19.1514 31.9767 16.9198 32.02C15.6548 32.045 14.8473 31.225 15.0173 29.935C15.0306 29.835 15.0014 29.75 14.9298 29.68C14.6814 29.4367 14.4231 29.1867 14.1548 28.93C13.4031 28.2083 13.0223 27.1775 13.0123 25.8375C12.9923 22.8608 12.9898 20 13.0048 17.255C13.0148 15.1075 14.3723 13.425 16.4423 12.915C16.5273 12.8933 16.5714 12.8392 16.5748 12.7525C16.6314 11.6575 16.6406 10.525 16.6023 9.355C16.5798 8.6275 17.0998 8.01 17.8448 8.005C19.3731 7.99833 20.8798 7.99833 22.3648 8.005C23.3498 8.00833 23.8348 8.505 23.8198 9.495C23.8031 10.535 23.8023 11.5958 23.8173 12.6775C23.8173 12.7725 23.8598 12.84 23.9448 12.88ZM22.9973 9.0225C22.9973 8.96879 22.9759 8.91729 22.9379 8.87931C22.9 8.84133 22.8485 8.82 22.7948 8.82H17.6048C17.5511 8.82 17.4995 8.84133 17.4616 8.87931C17.4236 8.91729 17.4023 8.96879 17.4023 9.0225V12.5875C17.4023 12.6412 17.4236 12.6927 17.4616 12.7307C17.4995 12.7687 17.5511 12.79 17.6048 12.79H22.7948C22.8485 12.79 22.9 12.7687 22.9379 12.7307C22.9759 12.6927 22.9973 12.6412 22.9973 12.5875V9.0225ZM26.5921 17.2013C26.5913 16.7296 26.4975 16.2626 26.3162 15.827C26.1349 15.3915 25.8696 14.9959 25.5354 14.6629C25.2013 14.3299 24.8048 14.066 24.3686 13.8862C23.9324 13.7064 23.4651 13.6143 22.9933 13.6151L17.3933 13.6249C16.9216 13.6257 16.4546 13.7195 16.019 13.9008C15.5835 14.0821 15.1879 14.3474 14.8549 14.6816C14.5219 15.0157 14.2579 15.4122 14.0782 15.8484C13.8984 16.2846 13.8063 16.7519 13.8071 17.2237L13.8224 26.0137C13.8233 26.4854 13.917 26.9524 14.0983 27.388C14.2796 27.8235 14.5449 28.2191 14.8791 28.5521C15.2133 28.8851 15.6098 29.149 16.0459 29.3288C16.4821 29.5086 16.9494 29.6007 17.4212 29.5999L23.0212 29.5901C23.493 29.5893 23.96 29.4955 24.3955 29.3142C24.831 29.1329 25.2266 28.8676 25.5596 28.5334C25.8926 28.1993 26.1566 27.8028 26.3363 27.3666C26.5161 26.9304 26.6082 26.4631 26.6074 25.9913L26.5921 17.2013ZM15.8073 30.4025C15.8289 30.5408 15.8706 30.6692 15.9323 30.7875C15.9921 30.9026 16.0815 30.9993 16.1911 31.0675C16.3006 31.1357 16.4263 31.1729 16.5548 31.175C18.9598 31.2217 21.3964 31.2233 23.8648 31.18C24.3673 31.17 24.6373 30.7375 24.5998 30.265C24.5984 30.2474 24.5931 30.2304 24.5842 30.2152C24.5752 30.2 24.5629 30.1871 24.5481 30.1774C24.5334 30.1678 24.5166 30.1616 24.4991 30.1595C24.4817 30.1573 24.4639 30.1592 24.4473 30.165C23.9906 30.3167 23.5189 30.3942 23.0323 30.3975C21.1206 30.4075 19.2456 30.4083 17.4073 30.4C16.9456 30.3983 16.4989 30.325 16.0673 30.18C15.8589 30.11 15.7723 30.1842 15.8073 30.4025Z" fill="#07448E"/>
<path d="M22.2027 11.2411C22.2022 11.3426 22.1817 11.4429 22.1424 11.5364C22.1031 11.63 22.0457 11.7148 21.9736 11.7862C21.9015 11.8575 21.816 11.914 21.7221 11.9523C21.6282 11.9907 21.5276 12.0101 21.4262 12.0096L18.9862 11.9968C18.8848 11.9963 18.7844 11.9758 18.6909 11.9364C18.5974 11.8971 18.5125 11.8398 18.4412 11.7677C18.3698 11.6956 18.3134 11.6101 18.275 11.5162C18.2367 11.4223 18.2173 11.3217 18.2178 11.2202L18.2223 10.3603C18.2228 10.2588 18.2433 10.1585 18.2826 10.065C18.3219 9.97142 18.3793 9.88656 18.4514 9.8152C18.5235 9.74385 18.609 9.68739 18.7029 9.64906C18.7968 9.61073 18.8974 9.59128 18.9988 9.59181L21.4388 9.60459C21.5402 9.60512 21.6406 9.62562 21.7341 9.66494C21.8276 9.70425 21.9125 9.7616 21.9838 9.83371C22.0552 9.90582 22.1117 9.99128 22.15 10.0852C22.1883 10.1791 22.2078 10.2797 22.2072 10.3811L22.2027 11.2411ZM21.3745 10.5286C21.3745 10.5041 21.3647 10.4806 21.3473 10.4633C21.3299 10.446 21.3064 10.4363 21.2819 10.4363L19.0919 10.4401C19.0797 10.4401 19.0677 10.4425 19.0565 10.4472C19.0452 10.4519 19.0351 10.4587 19.0265 10.4673C19.0179 10.4759 19.0111 10.4861 19.0065 10.4974C19.0019 10.5086 18.9995 10.5206 18.9995 10.5328L19.0005 11.0978C19.0006 11.1223 19.0103 11.1458 19.0277 11.1631C19.0451 11.1804 19.0686 11.1901 19.0932 11.1901L21.2832 11.1863C21.2953 11.1863 21.3073 11.1839 21.3186 11.1792C21.3298 11.1745 21.34 11.1677 21.3485 11.1591C21.3571 11.1505 21.3639 11.1403 21.3685 11.129C21.3732 11.1178 21.3755 11.1058 21.3755 11.0936L21.3745 10.5286Z" fill="#07448E"/>
<path d="M19.91 18.0056C19.9 18.4831 19.7425 18.9506 19.4425 19.3231C18.9808 19.8948 18.5125 20.4473 18.0375 20.9806C16.97 22.1831 17.315 23.5731 18.57 24.4456C18.715 24.5456 18.7241 24.6573 18.5975 24.7806C18.5725 24.8056 18.5416 24.8198 18.505 24.8231C18.3266 24.8364 18.1708 24.7814 18.0375 24.6581C16.5525 23.2831 16.5158 21.8489 17.9275 20.3556C18.6075 19.6356 19.8325 18.5206 19.2325 17.4431C18.9491 16.9381 19.0733 16.8014 19.605 17.0331C20.855 17.5756 21.8725 19.3806 20.8025 20.5806C20.6925 20.7039 20.6216 20.8398 20.59 20.9881C20.5724 21.0757 20.5814 21.1666 20.6159 21.249C20.6504 21.3315 20.7088 21.4017 20.7836 21.4506C20.8583 21.4996 20.9461 21.525 21.0354 21.5237C21.1248 21.5223 21.2117 21.4943 21.285 21.4431C21.5416 21.2648 21.6116 21.0023 21.495 20.6556C21.4841 20.6232 21.4812 20.5886 21.4865 20.5548C21.4919 20.521 21.5053 20.489 21.5257 20.4615C21.5461 20.434 21.5728 20.4118 21.6035 20.3969C21.6343 20.3819 21.6683 20.3746 21.7025 20.3756C22.4675 20.3931 22.995 21.6956 23.065 22.3081C23.1866 23.3914 22.7516 24.2431 21.76 24.8631C21.7444 24.8728 21.727 24.8791 21.7089 24.8817C21.6907 24.8843 21.6723 24.8831 21.6549 24.8781C21.6374 24.8732 21.6212 24.8646 21.6075 24.8529C21.5937 24.8413 21.5826 24.8269 21.575 24.8106L21.5325 24.7206C21.4708 24.5889 21.4975 24.4789 21.6125 24.3906C22.7258 23.5339 22.9058 22.4714 22.1525 21.2031C22.1452 21.1914 22.1347 21.1821 22.1221 21.1763C22.1096 21.1705 22.0957 21.1686 22.0821 21.1707C22.0684 21.1729 22.0558 21.179 22.0456 21.1883C22.0354 21.1976 22.0283 21.2097 22.025 21.2231C21.8125 22.1281 20.5825 22.3081 20.15 21.4506C19.915 20.9781 20.2575 20.4781 20.535 20.1031C21.0275 19.4356 20.6175 18.4656 20.0775 17.9356C19.9675 17.8289 19.9116 17.8523 19.91 18.0056Z" fill="#00B9F5"/>
<path d="M19.2596 22.7121C19.0579 23.0371 18.9662 23.3529 18.9846 23.6596C18.9896 23.7446 19.0187 23.8204 19.0721 23.8871L19.5396 24.4596C19.6112 24.5496 19.6071 24.6363 19.5271 24.7196L19.4396 24.8046C19.3629 24.8829 19.2829 24.8863 19.1996 24.8146C18.6921 24.3821 18.2746 23.6021 18.6171 22.9396C18.7604 22.6579 18.8096 22.3538 18.7646 22.0271C18.7566 21.9695 18.7661 21.9107 18.7919 21.8586C18.8178 21.8064 18.8587 21.7632 18.9094 21.7347C18.9601 21.7061 19.0182 21.6934 19.0762 21.6983C19.1342 21.7032 19.1894 21.7254 19.2346 21.7621C19.7346 22.1654 19.9921 22.6921 20.0071 23.3421C20.0087 23.4371 20.0496 23.5096 20.1296 23.5596C20.6196 23.8671 20.8696 23.1621 21.0696 22.8921C21.0886 22.8662 21.1142 22.8458 21.1437 22.8331C21.1733 22.8204 21.2057 22.8159 21.2376 22.82C21.2695 22.824 21.2997 22.8366 21.3251 22.8563C21.3505 22.876 21.3702 22.9022 21.3821 22.9321C21.6271 23.5471 21.5512 24.1113 21.1546 24.6246C21.1102 24.6804 21.0526 24.7242 20.9871 24.7521C20.7454 24.8554 20.5904 24.8346 20.5221 24.6896C20.5007 24.6441 20.4971 24.5922 20.5119 24.5442C20.5267 24.4961 20.5588 24.4553 20.6021 24.4296C20.7521 24.3396 20.8629 24.2179 20.9346 24.0646C20.9929 23.9363 20.9587 23.9038 20.8321 23.9671C20.3471 24.2088 19.9604 24.1546 19.6721 23.8046C19.4421 23.5296 19.5021 23.0821 19.4121 22.7346C19.3787 22.6063 19.3279 22.5988 19.2596 22.7121Z" fill="#00B9F5"/>
</svg>
