<svg width="40" height="40" viewBox="0 0 40 40" fill="none" xmlns="http://www.w3.org/2000/svg">
<path d="M8 22.1665C8.04258 22.0175 8.07828 21.8666 8.12775 21.7207C8.47842 20.6849 9.4121 20.0124 10.5098 20.0124C15.2277 20.0105 19.9461 20.0118 24.664 20.0118H24.9953V19.7193C24.9953 18.3755 24.9953 17.0323 24.9953 15.6884C24.9953 15.2526 25.175 15.0084 25.4943 15.004C25.8162 14.9996 25.9984 15.2432 25.9984 15.6771C25.9984 17.0285 25.9984 18.3799 25.9984 19.7312C25.9984 19.8157 25.9984 19.8997 25.9984 20.0111C26.0999 20.0111 26.1832 20.0111 26.2665 20.0111C27.3366 20.0111 28.4068 20.0092 29.477 20.0111C30.9016 20.0143 31.995 21.1082 31.9975 22.5354C32.0006 23.8554 32.0006 25.1755 31.9975 26.4955C31.9937 27.9057 30.8973 29.0016 29.4889 29.0085C29.3342 29.0091 29.1796 29.0085 28.998 29.0085C28.998 29.5245 29.0023 30.0217 28.9961 30.5189C28.993 30.7731 28.8214 30.9622 28.5746 31.0086C28.368 31.0474 28.1206 30.9178 28.0443 30.7099C28.0079 30.6103 27.9992 30.4963 27.9973 30.3886C27.9916 30.0135 27.9954 29.6391 27.9954 29.264C27.9954 29.1876 27.9954 29.1112 27.9954 29.0216H12.004C12.004 29.1093 12.004 29.1982 12.004 29.2871C12.004 29.6779 12.0096 30.0686 12.0015 30.4588C11.9939 30.7919 11.7779 31.0198 11.4942 31.0161C11.2049 31.0117 11.0027 30.7813 11.0014 30.4487C10.9995 29.9803 11.0014 29.5126 11.0014 29.0085C10.8474 29.0085 10.7027 29.0085 10.5581 29.0085C9.29249 29.006 8.31436 28.2163 8.04571 26.9839C8.03569 26.9395 8.01566 26.8969 8.00063 26.8537C8.00063 25.2913 8 23.7289 8 22.1665ZM19.9994 21.0143C16.8821 21.0143 13.7655 21.0131 10.6482 21.0149C9.6106 21.0149 9.00757 21.6217 9.00381 22.6594C9.00193 23.253 9.0013 23.8466 9.00381 24.4403C9.00694 25.1823 8.98941 25.9256 9.0251 26.6658C9.05954 27.3703 9.64004 27.9389 10.3458 27.9859C10.8279 28.0178 11.3126 28.0053 11.7967 28.0053C17.6473 28.0065 23.498 28.0065 29.3493 28.004C29.5196 28.004 29.6956 27.9965 29.8603 27.9558C30.5672 27.7805 30.9906 27.2025 30.9937 26.4078C30.9987 25.1423 30.9968 23.8767 30.9924 22.6111C30.9924 22.4489 30.978 22.2811 30.9367 22.1252C30.7501 21.4251 30.1859 21.0181 29.3956 21.0156C27.9353 21.0112 26.475 21.0143 25.014 21.0143C23.3421 21.0143 21.6713 21.0143 19.9994 21.0143Z" fill="#07448E"/>
<path d="M25.6168 9C27.538 9.05198 29.2238 9.82722 30.5307 11.3971C30.7712 11.6858 30.7693 11.9782 30.5307 12.1824C30.2946 12.3846 29.9959 12.3346 29.7586 12.0465C28.7767 10.8555 27.5174 10.1622 25.9819 10.0401C24.1484 9.89422 22.5998 10.5204 21.3655 11.8962C21.3029 11.9657 21.2472 12.0415 21.1839 12.1104C20.9754 12.3352 20.6917 12.3652 20.4738 12.188C20.2452 12.002 20.2208 11.7134 20.42 11.4604C20.8777 10.8786 21.42 10.387 22.0475 9.99504C23.1051 9.33502 24.2624 9.0144 25.6168 9Z" fill="#00B9F5"/>
<path d="M25.5103 13.0132C24.6261 13.0357 23.9379 13.3926 23.4319 14.1071C23.3455 14.2292 23.2303 14.3564 23.0988 14.414C22.8996 14.5016 22.6949 14.444 22.5527 14.2649C22.3999 14.0721 22.3987 13.8654 22.5296 13.6569C23.0186 12.8735 23.7093 12.3644 24.6011 12.1221C26.0714 11.7225 27.7008 12.3631 28.4616 13.6412C28.5856 13.8491 28.6081 14.052 28.4566 14.2512C28.3188 14.4315 28.1222 14.5067 27.9174 14.4202C27.7853 14.3645 27.6626 14.2443 27.578 14.1228C27.0721 13.3951 26.3776 13.0363 25.5103 13.0132Z" fill="#00B9F5"/>
<path d="M12.5007 26.0081C11.666 26.0081 11.001 25.3437 11.001 24.5096C11.001 23.6742 11.6641 23.0105 12.4989 23.0098C13.3342 23.0098 13.9986 23.673 13.9986 24.5077C13.9986 25.3425 13.3355 26.0081 12.5007 26.0081ZM12.9886 24.5202C12.9942 24.2422 12.7875 24.0262 12.5114 24.0205C12.2334 24.0149 12.0173 24.2215 12.0117 24.4977C12.006 24.7751 12.2127 24.9924 12.4888 24.998C12.7663 25.0037 12.9829 24.797 12.9886 24.5202Z" fill="#07448E"/>
<path d="M27.5073 23.0098C28.3395 23.0117 28.9995 23.6793 28.9977 24.5171C28.9958 25.3494 28.3276 26.01 27.4904 26.0081C26.6588 26.0062 25.9981 25.3375 26 24.5002C26.0019 23.668 26.6694 23.008 27.5073 23.0098ZM27.4791 24.9974C27.7559 25.0074 27.9776 24.8027 27.987 24.5278C27.997 24.2504 27.7928 24.0293 27.5179 24.0199C27.2405 24.0099 27.0195 24.214 27.0101 24.4889C27.0007 24.7664 27.2042 24.9874 27.4791 24.9974Z" fill="#07448E"/>
<path d="M17.495 26.0075C16.6634 26.0062 15.9959 25.3349 15.999 24.5033C16.0022 23.6692 16.6678 23.0092 17.5044 23.0098C18.331 23.0098 19.0098 23.6899 19.0067 24.5134C19.0036 25.3375 18.3248 26.0087 17.495 26.0075ZM17.9885 24.5021C17.9854 24.2272 17.7743 24.018 17.4988 24.018C17.2308 24.018 17.0053 24.2372 17.0016 24.5027C16.9978 24.7757 17.2327 25.0037 17.5107 24.9974C17.7862 24.9912 17.991 24.7783 17.9885 24.5021Z" fill="#07448E"/>
</svg>
