<svg width="40" height="40" viewBox="0 0 40 40" fill="none" xmlns="http://www.w3.org/2000/svg">
<path d="M32 25.3057C31.8685 25.6015 31.7787 25.9262 31.5979 26.188C31.1729 26.8032 30.5406 27.0175 29.8097 27.0157C27.1457 27.0104 24.4823 27.0134 21.8183 27.0134C21.7185 27.0134 21.6187 27.0134 21.5095 27.0134V28.0031C21.5982 28.0031 21.6821 28.0031 21.7655 28.0031C22.6167 28.0031 23.4685 28.0019 24.3197 28.0049C24.436 28.0049 24.5569 28.0102 24.6678 28.0407C24.8633 28.0941 25.0136 28.3301 25.0019 28.5303C24.9884 28.7592 24.8099 28.9606 24.5804 28.9987C24.5117 29.0099 24.4401 29.0075 24.3702 29.0075C21.4567 29.0075 18.5426 29.0075 15.6291 29.0075C15.2804 29.0075 15.1002 28.8966 15.0274 28.6418C14.947 28.3595 15.1149 28.08 15.4037 28.0272C15.5029 28.009 15.6057 28.0049 15.7066 28.0049C16.5426 28.0031 17.3785 28.0037 18.2139 28.0037C18.2984 28.0037 18.3835 28.0037 18.4845 28.0037V27.014C18.38 27.014 18.2802 27.014 18.181 27.014C15.517 27.014 12.8536 27.0128 10.1896 27.0145C9.6689 27.0145 9.18517 26.9124 8.76837 26.576C8.26939 26.1727 8.01402 25.6508 8.00463 25.0133C7.99583 24.4198 8.00228 23.8257 8.00228 23.2322C8.00228 19.8808 8.00228 16.53 8.00228 13.1785C8.00228 11.8348 8.8306 11.0106 10.1802 11.0106C16.7105 11.0106 23.2413 11.0211 29.7716 11C30.8746 10.9965 31.7787 11.6358 31.9712 12.6619C31.9736 12.6748 31.99 12.6854 32 12.6972V25.3057ZM19.9897 26.0095C23.2707 26.0095 26.5517 26.0095 29.8326 26.0095C30.6005 26.0095 30.9938 25.625 30.9938 24.8619C30.9956 20.9639 30.9956 17.0653 30.9938 13.1674C30.9938 12.3931 30.6169 12.0156 29.8426 12.0156C23.2807 12.0144 16.7187 12.0144 10.1567 12.0156C9.38359 12.0156 9.0073 12.3937 9.00671 13.1686C9.00495 17.0589 9.00554 20.9492 9.00789 24.8395C9.00789 24.9939 9.01728 25.1548 9.05896 25.3021C9.18928 25.7624 9.57791 26.0095 10.1462 26.0095C13.4271 26.0095 16.7087 26.0095 19.9897 26.0095ZM19.5189 27.9867H20.4746V27.031H19.5189V27.9867Z" fill="#07448E"/>
<path d="M16.95 24.381C16.9514 24.5102 16.9951 24.6175 17.0827 24.6916C17.1692 24.7647 17.2919 24.7998 17.4408 24.7999C18.9316 24.8011 20.4225 24.8011 21.9133 24.7999C22.0624 24.7995 22.1853 24.7644 22.2719 24.6915C22.3597 24.6176 22.4036 24.5106 22.4053 24.3817C22.407 24.2481 22.3633 24.1373 22.2729 24.0609C22.184 23.9857 22.0567 23.9498 21.902 23.9498C21.4132 23.9493 20.9241 23.9495 20.435 23.9496C20.1904 23.9497 19.9457 23.9498 19.7011 23.9498C19.4514 23.9498 19.2016 23.9496 18.9519 23.9495C18.4524 23.9492 17.953 23.9489 17.4533 23.9498C17.2982 23.9501 17.1709 23.9857 17.082 24.0605C16.9917 24.1367 16.9483 24.2473 16.95 24.381Z" fill="#07448E"/>
<path d="M16.95 24.381C16.9514 24.5102 16.9951 24.6175 17.0827 24.6916C17.1692 24.7647 17.2919 24.7998 17.4408 24.7999C18.9316 24.8011 20.4225 24.8011 21.9133 24.7999C22.0624 24.7995 22.1853 24.7644 22.2719 24.6915C22.3597 24.6176 22.4036 24.5106 22.4053 24.3817C22.407 24.2481 22.3633 24.1373 22.2729 24.0609C22.184 23.9857 22.0567 23.9498 21.902 23.9498C21.4132 23.9493 20.9241 23.9495 20.435 23.9496C20.1904 23.9497 19.9457 23.9498 19.7011 23.9498C19.4514 23.9498 19.2016 23.9496 18.9519 23.9495C18.4524 23.9492 17.953 23.9489 17.4533 23.9498C17.2982 23.9501 17.1709 23.9857 17.082 24.0605C16.9917 24.1367 16.9483 24.2473 16.95 24.381ZM16.95 24.381L17 24.3804" stroke="#07448E" stroke-width="0.1"/>
<path d="M21.8 17.4813C22.2 17.7122 22.2 18.2896 21.8 18.5205L18.8 20.2526C18.4 20.4835 17.9 20.1948 17.9 19.733V16.2688C17.9 15.807 18.4 15.5183 18.8 15.7492L21.8 17.4813Z" stroke="#00B9F5" stroke-width="0.8"/>
</svg>
