<svg width="40" height="40" viewBox="0 0 40 40" fill="none" xmlns="http://www.w3.org/2000/svg">
<path d="M30.9999 25.7145C30.7778 26.3107 30.3361 26.5164 29.7186 26.5063C28.4218 26.485 27.125 26.5 25.8278 26.5H25.5169C25.5169 26.6009 25.5183 26.6834 25.5169 26.7665C25.5034 27.5177 24.9636 28.0488 24.1984 28.0507C22.8548 28.0546 21.5107 28.0517 20.1671 28.0517C18.0887 28.0517 16.0107 28.0517 13.9323 28.0517C13.0589 28.0517 12.5984 27.6635 12.4574 26.7892H12.2092C10.842 26.7892 9.47471 26.7897 8.10745 26.7892C7.41078 26.7887 6.98496 26.3774 7.00041 25.6879C7.01586 24.9792 6.98592 24.2584 7.10517 23.5656C7.43637 21.6412 9.16331 20.0823 11.1012 19.8505C12.1851 19.7211 13.199 19.9051 14.1409 20.4545C14.2794 20.5356 14.3441 20.4868 14.4359 20.3975C15.4657 19.3972 16.6977 18.7889 18.1167 18.6073C20.1072 18.3529 21.8679 18.9033 23.382 20.2266C23.4288 20.2672 23.4752 20.3082 23.5297 20.3555C24.0859 19.9915 24.6831 19.7395 25.3329 19.6024C27.9559 19.0481 30.5997 20.9102 30.9555 23.5699C30.9613 23.6139 30.985 23.6559 31.0004 23.6984L30.9999 25.7145ZM18.9978 27.2638C20.7155 27.2638 22.4333 27.2638 24.1515 27.2638C24.5648 27.2638 24.7328 27.0982 24.7348 26.6825C24.7376 26.1282 24.7372 25.574 24.7348 25.0198C24.7285 23.4072 24.1515 22.0221 22.9769 20.9276C21.3639 19.4252 19.4603 18.9916 17.3389 19.5744C15.0447 20.2044 13.3409 22.3871 13.2704 24.7619C13.2516 25.3939 13.2622 26.0264 13.2608 26.6583C13.2598 27.102 13.422 27.2638 13.8671 27.2638C15.5772 27.2638 17.2877 27.2638 18.9978 27.2638ZM25.5034 25.7159C25.9311 25.7159 26.3125 25.7159 26.6939 25.7159C27.7556 25.7159 28.8167 25.7159 29.8784 25.7159C30.0348 25.7159 30.2101 25.7034 30.2062 25.5054C30.1912 24.7977 30.2516 24.0701 30.1087 23.3865C29.6621 21.2521 27.5736 19.9365 25.4401 20.3777C24.953 20.4786 24.4924 20.6529 24.0738 20.9508C25.1963 22.347 25.629 23.9344 25.5034 25.7159ZM12.4772 25.9906C12.4849 25.1197 12.4444 24.2695 12.6669 23.4362C12.889 22.6053 13.2525 21.8469 13.7609 21.1516C13.7247 21.1231 13.702 21.1014 13.6755 21.0865C13.6214 21.0551 13.5664 21.0261 13.5104 20.9991C12.9025 20.7031 12.2614 20.5795 11.5855 20.5959C9.85177 20.6375 8.23876 21.9086 7.89985 23.6061C7.76563 24.2777 7.80956 24.986 7.78301 25.6778C7.77239 25.9549 7.82984 26.0003 8.11517 26.0008C9.49692 26.0017 10.8791 26.0013 12.2609 26.0008C12.3227 26.0008 12.3845 25.995 12.4772 25.9906Z" fill="#07448E"/>
<path d="M15.2866 14.5587C15.2823 12.6029 16.8832 11.0048 18.8511 11C20.8262 10.9952 22.4546 12.6053 22.4493 14.5577C22.4445 16.5038 20.8237 18.1081 18.8631 18.1072C16.8929 18.1062 15.2915 16.5169 15.2866 14.5587ZM18.867 11.7879C17.3235 11.7879 16.0625 13.0326 16.0649 14.5553C16.0673 16.0688 17.3225 17.3168 18.8491 17.3231C20.382 17.3299 21.6623 16.0756 21.6681 14.5616C21.6739 13.0451 20.4047 11.7884 18.867 11.7879Z" fill="#00B9F5"/>
<path d="M29.0343 16.2043C29.0309 17.7251 27.78 18.9615 26.2481 18.9596C24.7253 18.9576 23.4604 17.7043 23.459 16.1966C23.458 14.6666 24.7282 13.4268 26.291 13.4336C27.8031 13.4398 29.0381 14.6869 29.0343 16.2043ZM28.2512 16.1884C28.2463 15.0847 27.3585 14.2166 26.2389 14.221C25.1285 14.2253 24.2421 15.1117 24.2464 16.213C24.2512 17.3007 25.1584 18.176 26.2751 18.1712C27.3706 18.1664 28.256 17.2776 28.2512 16.1884Z" fill="#00B9F5"/>
<path d="M8.96192 16.3764C8.96579 14.846 10.2201 13.6168 11.7722 13.6231C13.2805 13.6289 14.5357 14.8827 14.5372 16.3847C14.5386 17.9045 13.2699 19.1535 11.7288 19.1491C10.1983 19.1448 8.95806 17.9021 8.96192 16.3764ZM9.74453 16.3953C9.75032 17.4975 10.6401 18.3655 11.7592 18.3612C12.8682 18.3569 13.7555 17.4671 13.7493 16.3663C13.7435 15.2762 12.8387 14.4057 11.7182 14.412C10.6213 14.4183 9.73922 15.3051 9.74453 16.3953Z" fill="#00B9F5"/>
</svg>
