<svg width="40" height="40" viewBox="0 0 40 40" fill="none" xmlns="http://www.w3.org/2000/svg">
<path d="M26.9075 8.51027C29.3019 9.56956 30.603 11.4261 30.8109 14.0799C30.8174 14.1727 30.7912 14.2653 30.7367 14.3427C30.5717 14.5785 30.4017 14.6629 30.2268 14.596C30.0436 14.5259 29.9331 14.3977 29.8951 14.2113C29.8571 14.0313 29.8291 13.8434 29.8109 13.6474C29.5486 10.8853 27.2293 8.99531 24.3184 8.87823C24.2569 8.87556 24.1969 8.85944 24.1428 8.83108C24.0887 8.80272 24.042 8.76287 24.0063 8.71453C23.9705 8.6662 23.9466 8.61065 23.9363 8.55208C23.9261 8.49351 23.9298 8.43346 23.9471 8.37646C23.9784 8.27292 24.0345 8.17974 24.1154 8.0969C24.1467 8.06514 24.1841 8.0397 24.2253 8.02206C24.2665 8.00442 24.3108 7.99494 24.3555 7.99416C25.2565 7.98301 26.1071 8.15505 26.9075 8.51027Z" fill="#00B9F5"/>
<path d="M20.1141 27.6371C22.3715 27.379 24.2106 28.158 24.5794 30.5043C24.6537 30.9822 24.4359 31.2219 23.926 31.2235C19.9408 31.2347 15.7148 31.2339 11.2478 31.2211C11.1284 31.2214 11.0134 31.1776 10.9261 31.0986C10.8388 31.0196 10.7856 30.9114 10.7775 30.7958C10.6685 29.2117 12.0646 27.7781 13.6636 27.6347C14.0893 27.5965 14.52 27.5893 14.9557 27.6132C15.0158 27.6165 15.0754 27.6005 15.1252 27.5677C15.1749 27.5348 15.2119 27.4869 15.2304 27.4316L16.4384 23.7376C16.4559 23.6831 16.4563 23.6249 16.4396 23.5704C16.4228 23.5159 16.3896 23.4677 16.3443 23.4318C12.4433 20.3399 11.1413 14.8587 14.7007 11.0524C15.7032 9.97956 17.5992 10.5411 18.7354 11.1097C19.5423 11.5143 20.5019 12.1101 21.6141 12.897C21.668 12.9348 21.7134 12.9819 21.7478 13.0356C21.9359 13.335 21.9755 13.535 21.8666 13.6353C21.776 13.7217 21.6559 13.7734 21.5285 13.7809C21.4011 13.7883 21.275 13.7511 21.1735 13.6759C20.0695 12.8588 16.7676 10.6629 15.5695 11.5135C14.7948 12.0631 15.5275 13.7763 15.8864 14.4453C16.3913 15.3931 17.0151 16.3082 17.7577 17.1907C17.8237 17.2704 17.9012 17.2831 17.9903 17.2289C18.7742 16.7542 19.6017 16.7152 20.473 17.1119C20.5671 17.1533 20.6504 17.1389 20.723 17.0688L22.8839 14.9686C22.9499 14.9065 22.9771 14.8308 22.9656 14.7416C22.9334 14.4955 22.822 14.29 22.869 14.0296C22.9928 13.3398 23.3963 12.9161 24.0794 12.7584C25.369 12.4597 26.4136 13.9603 25.6215 15.002C25.2948 15.4345 24.6413 15.7547 24.072 15.5922C23.9565 15.5588 23.8385 15.5436 23.7181 15.5468C23.6454 15.55 23.5836 15.5763 23.5324 15.6257L21.3517 17.7331C21.2775 17.8048 21.2659 17.8844 21.3171 17.972C21.7527 18.7319 21.7082 19.5204 21.1834 20.3375C21.1648 20.3664 21.1578 20.4009 21.1637 20.4347C21.1697 20.4686 21.1881 20.4994 21.2156 20.5215C22.643 21.6477 24.0341 22.4346 25.3888 22.8822C25.8344 23.0304 26.7997 23.1474 27.1388 22.7293C27.9483 21.7353 26.2453 19.1858 25.671 18.2683C25.5225 18.031 25.5679 17.8366 25.8072 17.6853L25.9086 17.6208C25.9855 17.5725 26.0786 17.5545 26.1685 17.5705C26.2584 17.5865 26.3382 17.6353 26.3913 17.7068C27.3492 18.9899 29.2354 22.0985 27.6884 23.4891C25.5423 25.4173 22.9111 25.9024 20.1141 25.2429C19.8369 25.1776 19.709 25.2819 19.7304 25.5559C19.775 26.1246 19.7791 26.7044 19.7428 27.2954C19.7263 27.5534 19.8501 27.6673 20.1141 27.6371ZM15.3096 15.3413C14.9086 14.6938 14.6289 13.9555 14.4012 13.2315C14.3616 13.1041 14.3129 13.1001 14.2552 13.2196C13.5646 14.6365 13.3542 16.1107 13.7255 17.6877C14.4136 20.6027 16.1545 22.6743 18.9483 23.9025C21.0984 24.8487 23.2321 24.871 25.3492 23.9694C25.4763 23.9152 25.4747 23.865 25.3443 23.8188C24.6586 23.5751 23.978 23.3577 23.3418 23.0088C20.02 21.1754 17.3426 18.6196 15.3096 15.3413ZM24.9507 14.1777C24.9507 14.1049 24.9359 14.0328 24.907 13.9656C24.8782 13.8983 24.8359 13.8372 24.7825 13.7857C24.7292 13.7342 24.6659 13.6934 24.5962 13.6656C24.5266 13.6377 24.4519 13.6234 24.3765 13.6234C24.2242 13.6234 24.0781 13.6818 23.9704 13.7857C23.8627 13.8897 23.8022 14.0307 23.8022 14.1777C23.8022 14.3247 23.8627 14.4657 23.9704 14.5697C24.0781 14.6736 24.2242 14.732 24.3765 14.732C24.4519 14.732 24.5266 14.7177 24.5962 14.6898C24.6659 14.662 24.7292 14.6211 24.7825 14.5697C24.8359 14.5182 24.8782 14.4571 24.907 14.3898C24.9359 14.3226 24.9507 14.2505 24.9507 14.1777ZM18.4953 18.1345L20.3022 19.8429C20.3059 19.8466 20.3103 19.8495 20.3152 19.8515C20.3201 19.8535 20.3254 19.8546 20.3307 19.8546C20.336 19.8546 20.3412 19.8535 20.3461 19.8515C20.351 19.8495 20.3555 19.8466 20.3591 19.8429L20.3715 19.831C20.48 19.724 20.5642 19.5961 20.6191 19.4545C20.6741 19.3129 20.6989 19.1605 20.692 19.0058C20.6851 18.8512 20.6467 18.6974 20.579 18.5532C20.5112 18.409 20.4155 18.2773 20.2973 18.1656L20.2329 18.1058C19.9944 17.8803 19.6788 17.7495 19.3553 17.7424C19.0318 17.7352 18.727 17.8522 18.5077 18.0676L18.4953 18.0796C18.4915 18.0831 18.4884 18.0874 18.4864 18.0921C18.4843 18.0968 18.4832 18.1019 18.4832 18.107C18.4832 18.1122 18.4843 18.1172 18.4864 18.122C18.4884 18.1267 18.4915 18.1309 18.4953 18.1345ZM16.2082 27.4316C16.2039 27.4444 16.2028 27.4581 16.205 27.4714C16.2072 27.4847 16.2126 27.4974 16.2208 27.5083C16.229 27.5192 16.2397 27.5281 16.2522 27.5343C16.2646 27.5405 16.2783 27.5438 16.2923 27.5439L18.7379 27.5391C18.7615 27.5391 18.7842 27.5301 18.8009 27.5139C18.8176 27.4978 18.827 27.4759 18.827 27.4531L18.8195 24.9108C18.8194 24.8949 18.8147 24.8793 18.806 24.8658C18.7973 24.8523 18.7848 24.8414 18.77 24.8343L17.3888 24.1773C17.3773 24.1714 17.3646 24.1681 17.3516 24.1675C17.3386 24.167 17.3256 24.1691 17.3136 24.1739C17.3016 24.1787 17.2908 24.186 17.282 24.1952C17.2732 24.2045 17.2665 24.2155 17.2626 24.2274L16.2082 27.4316ZM11.8195 30.3419L23.5077 30.3227C23.5119 30.3227 23.5161 30.3219 23.52 30.3204C23.5239 30.3188 23.5274 30.3165 23.5304 30.3136C23.5334 30.3108 23.5358 30.3073 23.5374 30.3036C23.539 30.2998 23.5398 30.2958 23.5398 30.2917V30.2893C23.5393 30.0501 23.4722 29.8134 23.3423 29.5927C23.2124 29.372 23.0222 29.1716 22.7827 29.003C22.5432 28.8344 22.259 28.7008 21.9464 28.6099C21.6337 28.519 21.2988 28.4726 20.9606 28.4734L14.3567 28.4829C13.6741 28.4844 13.02 28.6775 12.5382 29.0198C12.0564 29.3622 11.7863 29.8256 11.7874 30.3084V30.3108C11.7874 30.319 11.7908 30.3269 11.7968 30.3328C11.8028 30.3386 11.811 30.3419 11.8195 30.3419Z" fill="#07448E"/>
<path d="M24.4014 10.3904C26.6143 10.5218 28.2182 12.008 28.2801 14.1418C28.2833 14.2348 28.2546 14.327 28.1984 14.4046C28.0945 14.5495 27.9781 14.6196 27.8494 14.6149C27.5606 14.6053 27.4006 14.4619 27.3692 14.1848C27.1712 12.4166 26.1588 11.4545 24.3321 11.2984C24.007 11.2697 23.8775 11.1009 23.9435 10.7918L23.9608 10.7154C23.9814 10.6191 24.0374 10.5333 24.1183 10.4736C24.1992 10.4139 24.2997 10.3844 24.4014 10.3904Z" fill="#00B9F5"/>
<path d="M15.3093 15.3413C17.3423 18.6195 20.0197 21.1754 23.3415 23.0088C23.9776 23.3577 24.6583 23.5751 25.3439 23.8188C25.4743 23.865 25.476 23.9152 25.3489 23.9693C23.2317 24.8709 21.0981 24.8486 18.9479 23.9024C16.1542 22.6743 14.4133 20.6027 13.7251 17.6877C13.3538 16.1107 13.5642 14.6364 14.2548 13.2195C14.3126 13.1001 14.3613 13.104 14.4009 13.2315C14.6286 13.9555 14.9083 14.6938 15.3093 15.3413Z" fill="white"/>
<path d="M24.376 14.7322C24.6932 14.7322 24.9503 14.484 24.9503 14.1779C24.9503 13.8717 24.6932 13.6235 24.376 13.6235C24.0589 13.6235 23.8018 13.8717 23.8018 14.1779C23.8018 14.484 24.0589 14.7322 24.376 14.7322Z" fill="white"/>
<path d="M18.4945 18.1346C18.4907 18.1311 18.4876 18.1268 18.4856 18.1221C18.4835 18.1174 18.4824 18.1123 18.4824 18.1072C18.4824 18.102 18.4835 18.097 18.4856 18.0922C18.4876 18.0875 18.4907 18.0833 18.4945 18.0797L18.5069 18.0677C18.7262 17.8523 19.031 17.7353 19.3545 17.7425C19.678 17.7497 19.9936 17.8804 20.2321 18.106L20.2965 18.1657C20.4147 18.2774 20.5104 18.4092 20.5782 18.5533C20.6459 18.6975 20.6843 18.8513 20.6912 19.006C20.6981 19.1606 20.6733 19.3131 20.6184 19.4547C20.5634 19.5962 20.4792 19.7242 20.3707 19.8311L20.3584 19.843C20.3547 19.8467 20.3502 19.8497 20.3453 19.8517C20.3405 19.8537 20.3352 19.8547 20.3299 19.8547C20.3246 19.8547 20.3193 19.8537 20.3144 19.8517C20.3095 19.8497 20.3051 19.8467 20.3014 19.843L18.4945 18.1346Z" fill="white"/>
<path d="M16.2074 27.4316L17.2618 24.2275C17.2658 24.2155 17.2724 24.2045 17.2812 24.1953C17.29 24.186 17.3008 24.1787 17.3128 24.174C17.3249 24.1692 17.3378 24.167 17.3508 24.1676C17.3638 24.1681 17.3766 24.1715 17.3881 24.1773L18.7693 24.8344C18.784 24.8414 18.7965 24.8523 18.8052 24.8658C18.814 24.8793 18.8187 24.8949 18.8188 24.9108L18.8262 27.4531C18.8262 27.4759 18.8168 27.4978 18.8001 27.5139C18.7834 27.5301 18.7607 27.5391 18.7371 27.5391L16.2915 27.5439C16.2776 27.5438 16.2638 27.5405 16.2514 27.5344C16.239 27.5282 16.2282 27.5193 16.22 27.5083C16.2118 27.4974 16.2064 27.4848 16.2042 27.4714C16.202 27.4581 16.2031 27.4445 16.2074 27.4316Z" fill="white"/>
<path d="M11.8193 30.3421C11.8108 30.3421 11.8026 30.3389 11.7965 30.333C11.7905 30.3272 11.7871 30.3193 11.7871 30.3111V30.3087C11.7861 29.8259 12.0561 29.3624 12.538 29.0201C13.0198 28.6778 13.6739 28.4847 14.3564 28.4832L20.9604 28.4736C21.2985 28.4729 21.6335 28.5193 21.9461 28.6102C22.2588 28.7011 22.543 28.8346 22.7825 29.0033C23.022 29.1719 23.2121 29.3723 23.342 29.593C23.4719 29.8137 23.5391 30.0504 23.5396 30.2896V30.292C23.5396 30.296 23.5388 30.3001 23.5371 30.3038C23.5355 30.3076 23.5332 30.311 23.5302 30.3139C23.5272 30.3168 23.5236 30.3191 23.5197 30.3207C23.5158 30.3222 23.5116 30.323 23.5074 30.323L11.8193 30.3421Z" fill="white"/>
</svg>
