<svg width="471" height="380" viewBox="0 0 471 380" fill="none" xmlns="http://www.w3.org/2000/svg">
<rect x="2.00001" y="280.738" width="184.492" height="90.2" rx="45.1" transform="rotate(-90 2.00001 280.738)" stroke="#131428" strokeWidth="4"/>
<rect x="376.8" y="282.738" width="188.492" height="94.2" rx="47.1" transform="rotate(-90 376.8 282.738)" fill="#131428"/>
<rect x="469" y="92.2461" width="184.4" height="90.246" rx="45.123" transform="rotate(180 469 92.2461)" stroke="#131428" strokeWidth="4"/>
<rect x="2.00001" y="233.992" width="137.746" height="90.2" rx="45.1" transform="rotate(-90 2.00001 233.992)" stroke="#131428" strokeWidth="4"/>
<rect x="2.00001" y="186.492" width="90.246" height="90.2" rx="45.1" transform="rotate(-90 2.00001 186.492)" stroke="#131428" strokeWidth="4"/>
<rect x="7.62939e-06" y="94.2461" width="94.246" height="94.2" rx="47.1" transform="rotate(-90 7.62939e-06 94.2461)" fill="#F87260"/>
<rect x="94.2" y="380" width="94.246" height="94.2" rx="47.1" transform="rotate(-90 94.2 380)" fill="#131428"/>
<rect x="378.8" y="378" width="90.246" height="90.2" rx="45.1" transform="rotate(-90 378.8 378)" stroke="#131428" strokeWidth="4"/>
<rect x="401.408" y="355.381" width="45.0079" height="44.984" rx="22.492" transform="rotate(-90 401.408 355.381)" stroke="#131428" strokeWidth="4"/>
<line x1="45.4768" y1="282.738" x2="45.4768" y2="140.992" stroke="#131428" strokeWidth="4"/>
<line x1="7.62939e-06" y1="139.746" x2="94.2" y2="139.746" stroke="#131428" strokeWidth="4"/>
<line y1="-2" x2="94.2231" y2="-2" transform="matrix(0.706435 -0.707778 0.707433 0.706781 13.4412 80.4683)" stroke="#FFF4F3" strokeWidth="4"/>
<path d="M188.4 280.738C137.479 280.738 96.2 239.459 96.2 188.538L96.2 96.2462L188.354 96.2462C239.299 96.2462 280.6 137.569 280.6 188.515C280.6 239.437 239.32 280.738 188.4 280.738Z" fill="#F4B840" stroke="#F4B840" strokeWidth="4"/>
<path d="M282.6 9.33823e-05C282.6 12.3767 280.163 24.632 275.429 36.0665C270.695 47.5009 263.757 57.8905 255.009 66.6421C246.262 75.3936 235.878 82.3358 224.449 87.0721C213.02 91.8084 200.771 94.2461 188.4 94.2461C176.029 94.2461 163.78 91.8084 152.351 87.072C140.922 82.3357 130.538 75.3936 121.791 66.6421C113.043 57.8905 106.105 47.5009 101.371 36.0665C96.6366 24.632 94.2 12.3766 94.2 5.34058e-05L282.6 9.33823e-05Z" fill="#34778A"/>
<path d="M282.6 285.754H188.4L282.6 380V285.754Z" fill="#F4B840"/>
<path d="M376.8 285.754H282.6L376.8 380V285.754Z" fill="#34778A"/>
<path d="M340.368 249.313C328.025 261.663 312.138 269.653 295.1 272.292L295.1 249.805C306.245 247.413 316.563 241.852 324.746 233.666C335.922 222.484 342.2 207.319 342.2 191.508C342.2 175.697 335.922 160.532 324.746 149.35C316.563 141.163 306.245 135.602 295.1 133.211L295.1 110.724C312.138 113.363 328.024 121.353 340.368 133.703C355.691 149.032 364.3 169.826 364.3 191.508C364.3 213.19 355.691 233.983 340.368 249.313Z" fill="#F87260" stroke="#F87260" strokeWidth="25"/>
<path d="M328.143 3.01569C334.124 3.01569 340.046 4.15655 345.572 6.37315C351.097 8.58974 356.118 11.8387 360.347 15.9344C364.576 20.0301 367.93 24.8924 370.219 30.2438C372.508 35.5951 373.686 41.3306 373.686 47.1228C373.686 52.9151 372.508 58.6506 370.219 64.0019C367.93 69.3532 364.576 74.2156 360.347 78.3113C356.118 82.407 351.097 85.6559 345.572 87.8725C340.046 90.0891 334.124 91.23 328.143 91.23L328.143 47.1228L328.143 3.01569Z" fill="#131428"/>
<path d="M467.986 140.577C467.986 146.661 466.845 152.686 464.63 158.307C462.414 163.928 459.167 169.036 455.073 173.338C450.979 177.64 446.12 181.053 440.771 183.381C435.422 185.71 429.689 186.908 423.9 186.908C418.111 186.908 412.378 185.71 407.029 183.381C401.68 181.053 396.82 177.64 392.727 173.338C388.633 169.036 385.386 163.928 383.17 158.307C380.955 152.686 379.814 146.661 379.814 140.577L423.9 140.577H467.986Z" fill="#FFF4F3"/>
</svg>
