<svg width="40" height="40" viewBox="0 0 40 40" fill="none" xmlns="http://www.w3.org/2000/svg">
<path d="M19.0489 16.0487C19.0197 15.8318 18.8423 15.6674 18.6073 15.6872C18.1184 15.7285 17.6311 15.7905 17.143 15.8473C16.0127 15.979 14.8824 16.1133 13.7521 16.2467C12.6218 16.3802 11.4915 16.5144 10.3612 16.6487L9.32469 16.7658V17.2496C9.3178 18.5771 9.31866 19.9054 9.32383 21.2328C9.32383 21.3749 9.28336 21.4498 9.1551 21.5229C8.33384 21.9912 8.23139 23.0854 8.94677 23.6992C9.04577 23.7844 9.16112 23.8498 9.28164 23.9333C8.8736 25.2324 8.46555 26.5288 8.05664 27.8322H11.5182C11.1041 26.515 10.6969 25.2195 10.2923 23.9307C10.3362 23.8989 10.3534 23.8834 10.3741 23.8722C10.8415 23.6226 11.0894 23.2343 11.1006 22.704C11.1118 22.1608 10.8648 21.7588 10.3922 21.5048C10.2699 21.4386 10.2544 21.3619 10.2544 21.2457C10.257 20.0818 10.2561 18.918 10.2561 17.7549C10.2561 17.6887 10.263 17.6215 10.2682 17.5234L10.2716 17.526C11.0232 17.4373 11.7153 17.3546 12.4066 17.2737C13.5369 17.1412 14.6672 17.0094 15.7983 16.8777C16.673 16.7753 17.5485 16.6728 18.4231 16.5695C18.5238 16.5575 18.6254 16.5472 18.7227 16.5213C18.9543 16.4602 19.0799 16.2734 19.0489 16.0504V16.0487Z" fill="#00B9F5"/>
<path d="M9.41622 17.3826C9.0891 17.2207 8.7482 17.0692 8.45723 16.854C7.84429 16.4003 7.85204 15.6824 8.45378 15.2149C8.60013 15.1013 8.768 15.0109 8.93586 14.9309C12.0995 13.4175 15.2615 11.9023 18.4294 10.3984C19.5614 9.86039 20.7038 9.86728 21.835 10.4191C24.8678 11.8989 27.898 13.383 30.9334 14.8577C31.4017 15.0849 31.8235 15.3389 32 15.8649V16.2867C31.8011 16.7421 31.4241 16.9935 30.9928 17.1992C30.0433 17.6529 29.1041 18.1272 28.1563 18.5835C28.0048 18.6566 27.9626 18.7436 27.9634 18.9037C27.9686 20.6685 27.9634 22.4341 27.9703 24.1989C27.9703 24.4244 27.9058 24.6052 27.7611 24.7739C26.2848 26.4913 24.4348 27.5846 22.2232 28.0392C19.8352 28.5298 17.5221 28.2802 15.3191 27.205C14.0898 26.6041 13.0301 25.7777 12.1615 24.7188C12.0625 24.5983 11.9997 24.4106 11.9988 24.254C11.9876 22.4651 11.9893 20.6771 11.9962 18.8882C11.9962 18.7143 11.9463 18.6257 11.787 18.5542C11.4255 18.3906 11.0717 18.2116 10.6989 18.0274C10.6498 18.0033 10.5999 17.9783 10.5491 17.9542M11.6467 17.4756C11.7672 17.5384 11.8327 17.5754 11.8998 17.6081C14.2035 18.7135 16.5045 19.824 18.8125 20.9216C19.6716 21.3305 20.5454 21.3322 21.4063 20.9147C23.5197 19.8894 25.6314 18.8589 27.743 17.8285C28.7305 17.3464 29.7161 16.8618 30.6992 16.3719C30.8533 16.2953 30.9902 16.1843 31.2011 16.0465C30.985 15.9148 30.8421 15.8132 30.6863 15.7366C27.6001 14.2267 24.514 12.7176 21.4252 11.2128C20.5575 10.7901 19.6802 10.8004 18.8091 11.2094C18.2727 11.4607 17.7407 11.7198 17.207 11.9764C14.5736 13.241 11.9394 14.5056 9.30689 15.7728C9.15796 15.8442 9.02195 15.9415 8.82309 16.0603C8.99698 16.1782 9.10373 16.266 9.22425 16.328C9.45927 16.4494 9.69772 16.5682 9.94393 16.6629M27.0819 19.0776C26.9605 19.1344 26.871 19.1749 26.7832 19.2188C25.1183 20.034 23.4534 20.851 21.7876 21.6654C20.672 22.2111 19.5451 22.2077 18.4294 21.6826C16.6741 20.857 14.9274 20.0125 13.1773 19.1766C13.1016 19.1405 13.0249 19.1077 12.9096 19.0552V19.3617C12.9096 20.845 12.9216 22.3291 12.901 23.8123C12.8958 24.1507 13.0086 24.3831 13.2376 24.6078C15.8313 27.1507 18.9218 27.9083 22.4117 27.1043C24.2049 26.691 25.72 25.7518 26.9476 24.3719C27.0251 24.2849 27.0767 24.1412 27.0776 24.0232C27.0862 22.4616 27.0836 20.9 27.0836 19.3384C27.0836 19.2636 27.0836 19.1878 27.0836 19.0767L27.0819 19.0776Z" fill="#07448E"/>
</svg>
