<svg width="40" height="40" viewBox="0 0 40 40" fill="none" xmlns="http://www.w3.org/2000/svg">
<path d="M13.2951 23.7256L13.2998 30.3961C13.3001 30.4639 13.2876 30.5312 13.2629 30.5939C13.2382 30.6567 13.2019 30.7138 13.156 30.7619C13.1101 30.81 13.0556 30.8481 12.9955 30.8742C12.9354 30.9002 12.871 30.9136 12.8059 30.9136H9.55605C9.18859 30.9136 9.00566 30.722 9.00725 30.3389C9.01679 28.4529 9.01441 26.3679 9.00009 24.0839C8.99293 23.1309 9.40573 22.3074 10.2361 21.9043C10.4874 21.7832 10.7229 21.6066 10.9424 21.3744C14.5581 17.5544 18.274 13.6182 22.0902 9.56602C23.6364 7.92389 25.8459 10.2054 24.2138 11.9521C20.3834 16.0541 16.7891 19.8625 13.4311 23.3773C13.3439 23.4696 13.2951 23.5947 13.2951 23.7256ZM23.7032 9.79243C23.183 9.45654 22.682 9.83722 22.3264 10.2229C22.1849 10.3788 22.1141 10.5646 22.1141 10.7802L22.1236 12.8851C22.1252 13.1007 22.2016 13.1347 22.3527 12.9871C22.8267 12.5227 23.3357 11.9877 23.8798 11.3823C24.3284 10.8822 24.2711 10.1582 23.7032 9.79243ZM19.4058 13.3454C19.3922 13.3601 19.3845 13.3797 19.3844 13.4001L19.3748 15.9827C19.3745 15.9988 19.3787 16.0145 19.3871 16.028C19.3955 16.0414 19.4075 16.0519 19.4217 16.0581C19.4359 16.0643 19.4515 16.0658 19.4666 16.0626C19.4816 16.0594 19.4954 16.0515 19.5061 16.04L21.5032 13.9226C21.5169 13.9079 21.5245 13.8883 21.5247 13.8679L21.5319 11.2977C21.5317 11.2819 21.5271 11.2665 21.5186 11.2534C21.51 11.2404 21.4979 11.2303 21.4839 11.2244C21.4698 11.2185 21.4544 11.2172 21.4395 11.2205C21.4247 11.2238 21.4112 11.2316 21.4006 11.243L19.4058 13.3454ZM16.6284 16.2937C16.6158 16.3079 16.609 16.3267 16.6093 16.346L16.5903 18.9386C16.5905 18.9532 16.5948 18.9674 16.6026 18.9795C16.6105 18.9916 16.6216 19.001 16.6346 19.0065C16.6475 19.0121 16.6618 19.0136 16.6755 19.0108C16.6893 19.008 16.7019 19.001 16.7119 18.9908L18.7115 16.861C18.725 16.8472 18.7327 16.8285 18.733 16.8088L18.7401 14.2013C18.7399 14.1864 18.7355 14.1718 18.7273 14.1596C18.7191 14.1474 18.7076 14.1379 18.6942 14.1326C18.6809 14.1272 18.6663 14.1262 18.6524 14.1295C18.6384 14.1329 18.6258 14.1406 18.6161 14.1515L16.6284 16.2937ZM13.863 19.2297C13.8561 19.2369 13.8507 19.2454 13.847 19.2548C13.8433 19.2642 13.8414 19.2742 13.8415 19.2844L13.8295 21.862C13.8299 21.8771 13.8346 21.8918 13.8429 21.9042C13.8512 21.9165 13.8628 21.9261 13.8762 21.9317C13.8897 21.9372 13.9044 21.9386 13.9186 21.9355C13.9328 21.9324 13.9458 21.925 13.956 21.9143L15.9651 19.7745C15.972 19.7673 15.9774 19.7588 15.9811 19.7494C15.9848 19.74 15.9866 19.73 15.9866 19.7198L15.989 17.1695C15.989 17.1542 15.9847 17.1392 15.9766 17.1265C15.9685 17.1137 15.9569 17.1038 15.9434 17.0979C15.9298 17.092 15.9149 17.0905 15.9005 17.0935C15.8861 17.0965 15.8728 17.1039 15.8625 17.1148L13.863 19.2297ZM13.0493 22.8249C13.0592 22.836 13.072 22.8437 13.0862 22.847C13.1004 22.8503 13.1151 22.8491 13.1286 22.8434C13.1421 22.8377 13.1536 22.8279 13.1615 22.8153C13.1695 22.8027 13.1737 22.7878 13.1734 22.7727L13.1877 20.2199C13.188 20.2051 13.184 20.1905 13.1763 20.178C13.1686 20.1656 13.1575 20.1558 13.1445 20.1499C13.1314 20.1441 13.117 20.1424 13.103 20.1451C13.089 20.1478 13.0761 20.1548 13.066 20.1652L11.6129 21.6082C11.6044 21.6166 11.598 21.627 11.5943 21.6386C11.5905 21.6501 11.5895 21.6625 11.5914 21.6745C11.5933 21.6865 11.598 21.6979 11.6051 21.7076C11.6121 21.7173 11.6214 21.725 11.632 21.7302L12.3883 22.0934C12.3963 22.097 12.4036 22.1021 12.4098 22.1083L13.0493 22.8249ZM9.68967 30.2568L12.6246 30.2518C12.6391 30.2518 12.6531 30.2457 12.6634 30.235C12.6737 30.2243 12.6794 30.2097 12.6794 30.1946L12.6675 23.947C12.6669 23.5221 12.5069 23.1148 12.2227 22.8148C11.9386 22.5147 11.5536 22.3466 11.1523 22.3472H11.1333C10.9346 22.3475 10.7379 22.3893 10.5545 22.4701C10.3711 22.5509 10.2045 22.6692 10.0642 22.8182C9.92399 22.9673 9.81282 23.1441 9.73709 23.3386C9.66136 23.5332 9.62254 23.7416 9.62286 23.952L9.63479 30.1995C9.63479 30.2147 9.64057 30.2293 9.65087 30.24C9.66116 30.2507 9.67512 30.2568 9.68967 30.2568Z" fill="#07448E"/>
<path d="M23.7034 9.79245C24.2713 10.1582 24.3286 10.8822 23.88 11.3823C23.3359 11.9878 22.8269 12.5227 22.3529 12.9871C22.2017 13.1348 22.1254 13.1007 22.1238 12.8851L22.1143 10.7802C22.1143 10.5646 22.185 10.3788 22.3266 10.2229C22.6821 9.83724 23.1832 9.45656 23.7034 9.79245Z" fill="white"/>
<path d="M19.406 13.3449L21.4008 11.2425C21.4114 11.2312 21.4249 11.2233 21.4397 11.22C21.4545 11.2167 21.47 11.2181 21.4841 11.224C21.4981 11.2298 21.5102 11.2399 21.5188 11.253C21.5273 11.266 21.5319 11.2815 21.5321 11.2973L21.5249 13.8674C21.5247 13.8879 21.5171 13.9075 21.5034 13.9222L19.5063 16.0395C19.4956 16.051 19.4818 16.0589 19.4668 16.0622C19.4517 16.0654 19.4361 16.0638 19.4219 16.0576C19.4077 16.0515 19.3957 16.041 19.3873 16.0275C19.3789 16.0141 19.3747 15.9983 19.375 15.9823L19.3846 13.3997C19.3847 13.3792 19.3924 13.3596 19.406 13.3449Z" fill="white"/>
<path d="M16.629 16.2941L18.6166 14.1518C18.6263 14.1409 18.639 14.1332 18.6529 14.1299C18.6669 14.1265 18.6815 14.1275 18.6948 14.1329C18.7082 14.1383 18.7197 14.1477 18.7279 14.1599C18.736 14.1722 18.7405 14.1867 18.7407 14.2016L18.7335 16.8091C18.7333 16.8288 18.7255 16.8476 18.7121 16.8613L16.7125 18.9911C16.7025 19.0013 16.6898 19.0083 16.6761 19.0111C16.6623 19.0139 16.6481 19.0124 16.6351 19.0068C16.6222 19.0013 16.6111 18.9919 16.6032 18.9798C16.5953 18.9677 16.591 18.9535 16.5908 18.9389L16.6099 16.3463C16.6095 16.327 16.6164 16.3082 16.629 16.2941Z" fill="white"/>
<path d="M13.8635 19.2294L15.863 17.1146C15.8734 17.1037 15.8866 17.0963 15.901 17.0933C15.9154 17.0903 15.9303 17.0918 15.9439 17.0977C15.9574 17.1036 15.969 17.1135 15.9771 17.1263C15.9853 17.139 15.9896 17.154 15.9895 17.1693L15.9871 19.7196C15.9872 19.7297 15.9853 19.7398 15.9816 19.7492C15.9779 19.7586 15.9725 19.7671 15.9656 19.7743L13.9565 21.9141C13.9463 21.9248 13.9333 21.9322 13.9192 21.9352C13.905 21.9383 13.8902 21.937 13.8768 21.9315C13.8633 21.9259 13.8517 21.9163 13.8434 21.9039C13.8351 21.8916 13.8305 21.8769 13.8301 21.8618L13.842 19.2842C13.842 19.274 13.8438 19.264 13.8475 19.2546C13.8512 19.2452 13.8566 19.2366 13.8635 19.2294Z" fill="white"/>
<path d="M26.0586 29.6672C26.06 29.6575 26.0593 29.6477 26.0567 29.6384C26.0541 29.6291 26.0496 29.6204 26.0435 29.6131C26.0373 29.6057 26.0298 29.5999 26.0212 29.5959C26.0127 29.5919 26.0035 29.5899 25.9942 29.59L20.2938 29.5925C20.2751 29.5926 20.2567 29.5969 20.2397 29.6052C20.2228 29.6135 20.2078 29.6255 20.1958 29.6404C20.1837 29.6553 20.175 29.6728 20.1701 29.6916C20.1651 29.7104 20.1642 29.7301 20.1673 29.7493C20.4155 31.2645 18.5877 31.0207 17.8146 30.9261C17.0368 30.8316 17.1585 30.2942 17.032 29.6846C17.0113 29.5851 16.9564 29.5137 16.8674 29.4706C16.4951 29.289 16.2064 28.9207 16.2136 28.4729C16.2279 27.4262 16.2271 26.3481 16.2112 25.2384C16.1945 24.1287 17.0201 23.6112 17.7192 22.9718C17.7924 22.9054 17.8393 22.8217 17.86 22.7205C17.9904 22.0504 18.1296 21.3927 18.2775 20.7474C18.466 19.9239 19.1365 19.486 19.9216 19.4736C22.2361 19.4387 24.37 19.442 26.3235 19.4835C27.1634 19.5018 27.6955 19.8965 27.9198 20.6678C28.0931 21.2616 28.2371 21.9276 28.3516 22.6657C28.3715 22.797 28.4379 22.9159 28.5377 22.9991C29.213 23.5639 30.0338 24.176 30.0219 25.1961C30.0108 26.2278 30.0116 27.2836 30.0243 28.3634C30.0306 28.8826 29.8056 29.2583 29.349 29.4905C29.2884 29.522 29.2386 29.5721 29.2065 29.6341C29.1744 29.6961 29.1617 29.7667 29.1701 29.8363C29.3395 31.2172 27.7909 30.9709 27.0441 30.9585C26.3028 30.9485 25.9743 30.5181 26.0586 29.6672ZM24.7629 20.9564C24.7336 21.0855 24.6635 21.2004 24.564 21.283C24.4645 21.3656 24.3413 21.4109 24.2141 21.4118H22.0022C21.8539 21.4118 21.7115 21.351 21.6057 21.2426C21.4999 21.1341 21.4392 20.9867 21.4367 20.832L21.4248 20.2324C21.4232 20.1478 21.3826 20.1047 21.3031 20.103C20.5205 20.0881 19.1866 19.8866 18.9051 20.8594C18.7556 21.3852 18.6235 21.9691 18.509 22.611C18.3897 23.2728 18.6458 23.6054 19.2773 23.6087C21.91 23.6203 24.3669 23.6237 26.648 23.6187C27.2326 23.6162 27.8744 23.5316 27.7456 22.7727C27.6374 22.1474 27.5141 21.5519 27.3757 20.9863C27.0989 19.8592 25.7818 20.0757 24.9419 20.108C24.8337 20.113 24.786 20.1719 24.7987 20.2847C24.8242 20.5086 24.8123 20.7325 24.7629 20.9564ZM24.1071 20.2616C24.1071 20.2286 24.0946 20.1969 24.0723 20.1736C24.0499 20.1502 24.0196 20.137 23.988 20.137L22.2509 20.1338C22.2352 20.1338 22.2197 20.137 22.2052 20.1432C22.1907 20.1494 22.1776 20.1585 22.1665 20.1701C22.1554 20.1816 22.1465 20.1953 22.1405 20.2104C22.1345 20.2255 22.1314 20.2417 22.1314 20.258L22.1308 20.6014C22.1307 20.6343 22.1433 20.666 22.1656 20.6894C22.1879 20.7127 22.2183 20.7259 22.2499 20.726L23.987 20.7291C24.0026 20.7292 24.0182 20.726 24.0326 20.7198C24.0471 20.7135 24.0603 20.7044 24.0714 20.6928C24.0825 20.6813 24.0913 20.6676 24.0973 20.6525C24.1033 20.6374 24.1065 20.6213 24.1065 20.6049L24.1071 20.2616ZM27.2516 25.746C27.8259 25.6133 28.4972 25.5245 29.2655 25.4797C29.2991 25.4779 29.3309 25.4632 29.3547 25.4384C29.3785 25.4136 29.3926 25.3804 29.3944 25.3454C29.4278 24.5641 28.8766 24.0864 28.3325 23.6659C28.3045 23.6447 28.2697 23.6357 28.2358 23.6408C28.2018 23.6459 28.1714 23.6648 28.1512 23.6933C27.8744 24.0781 27.5149 24.2705 27.0727 24.2705C24.4575 24.2705 21.8456 24.2714 19.2368 24.273C18.7325 24.2747 18.3467 24.079 18.0795 23.6859C18.0286 23.6112 17.9689 23.6013 17.9005 23.656C17.3541 24.0939 16.8316 24.5417 16.834 25.318C16.834 25.4026 16.8737 25.4499 16.9533 25.4598C17.4528 25.5245 17.9793 25.5851 18.5329 25.6415C19.2582 25.7136 19.6758 26.0993 19.5541 26.888C19.4539 27.5415 18.6609 27.7812 17.1752 27.607C16.9477 27.5805 16.8363 27.6867 16.8411 27.9255L16.8507 28.4256C16.8586 28.7673 17.0264 28.9382 17.3541 28.9382H28.9386C29.0497 28.9382 29.1565 28.8935 29.2366 28.8132C29.3166 28.7329 29.3638 28.6235 29.3681 28.5077L29.3896 27.9181C29.3975 27.7057 29.2997 27.6054 29.0961 27.617C28.2968 27.6568 26.2638 27.923 26.7124 26.3033C26.7967 25.9948 26.9764 25.809 27.2516 25.746ZM18.7667 26.9626C18.7992 26.9621 18.8304 26.9487 18.8538 26.9251C18.8773 26.9016 18.8914 26.8696 18.8932 26.8357L18.9099 26.5048C18.9113 26.4712 18.9006 26.4382 18.8798 26.4124C18.8591 26.3866 18.8298 26.3698 18.7977 26.3655L16.9795 26.1167C16.9612 26.1142 16.9427 26.1158 16.9251 26.1215C16.9074 26.1271 16.8912 26.1366 16.8774 26.1493C16.8636 26.162 16.8526 26.1777 16.8451 26.1953C16.8376 26.2128 16.8338 26.2318 16.834 26.251L16.8411 26.8556C16.8414 26.8733 16.8451 26.8907 16.8518 26.9069C16.8586 26.9231 16.8683 26.9377 16.8805 26.9499C16.8927 26.9622 16.9071 26.9718 16.9229 26.9782C16.9386 26.9847 16.9554 26.9878 16.9724 26.9875L18.7667 26.9626ZM29.3991 26.8855L29.3633 26.2013C29.363 26.1916 29.3609 26.1821 29.357 26.1732C29.353 26.1644 29.3475 26.1566 29.3406 26.1501C29.3337 26.1435 29.3256 26.1386 29.3168 26.1354C29.308 26.1322 29.2987 26.1309 29.2894 26.1316L28.9887 26.1515C28.5371 26.1779 28.1056 26.2322 27.7878 26.3026C27.4701 26.3729 27.292 26.4537 27.2922 26.5272L27.3065 26.8009C27.3079 26.8375 27.3537 26.8712 27.4413 26.9001C27.5289 26.9289 27.6566 26.9523 27.817 26.969C27.9775 26.9856 28.1676 26.9952 28.3764 26.9971C28.5853 26.999 28.8088 26.9932 29.0341 26.98L29.3347 26.9626C29.3438 26.962 29.3527 26.9595 29.3608 26.9553C29.369 26.9511 29.3763 26.9452 29.3823 26.938C29.3883 26.9309 29.3928 26.9225 29.3957 26.9135C29.3986 26.9045 29.3998 26.895 29.3991 26.8855ZM19.5538 29.7824C19.5538 29.7566 19.5489 29.731 19.5394 29.7072C19.5299 29.6834 19.5159 29.6617 19.4984 29.6435C19.4809 29.6253 19.4601 29.6108 19.4372 29.601C19.4143 29.5912 19.3898 29.5861 19.365 29.5862L17.8665 29.5889C17.8418 29.589 17.8173 29.5941 17.7944 29.604C17.7716 29.6139 17.7508 29.6284 17.7333 29.6467C17.7159 29.665 17.702 29.6867 17.6926 29.7106C17.6832 29.7344 17.6783 29.76 17.6784 29.7858L17.6789 30.1043C17.6789 30.1301 17.6839 30.1556 17.6934 30.1795C17.7029 30.2033 17.7168 30.225 17.7343 30.2432C17.7519 30.2614 17.7727 30.2758 17.7956 30.2857C17.8185 30.2955 17.843 30.3005 17.8677 30.3005L19.3662 30.2978C19.391 30.2977 19.4155 30.2926 19.4383 30.2827C19.4612 30.2727 19.4819 30.2582 19.4994 30.2399C19.5169 30.2217 19.5307 30.2 19.5401 30.1761C19.5496 30.1522 19.5544 30.1267 19.5544 30.1009L19.5538 29.7824ZM28.5518 29.755C28.5517 29.7325 28.5474 29.7102 28.5391 29.6894C28.5308 29.6685 28.5186 29.6496 28.5033 29.6337C28.488 29.6178 28.4698 29.6052 28.4499 29.5966C28.4299 29.588 28.4084 29.5836 28.3868 29.5837L26.8502 29.5864C26.8286 29.5865 26.8072 29.591 26.7872 29.5996C26.7672 29.6083 26.7491 29.621 26.7338 29.6369C26.7186 29.6529 26.7065 29.6719 26.6983 29.6927C26.69 29.7135 26.6858 29.7359 26.6858 29.7584L26.6864 30.1267C26.6865 30.1492 26.6908 30.1715 26.6991 30.1923C26.7074 30.2131 26.7196 30.232 26.7349 30.248C26.7502 30.2639 26.7684 30.2765 26.7883 30.2851C26.8083 30.2937 26.8298 30.2981 26.8514 30.298L28.388 30.2952C28.4096 30.2952 28.431 30.2907 28.451 30.2821C28.471 30.2734 28.4891 30.2607 28.5044 30.2448C28.5196 30.2288 28.5317 30.2098 28.54 30.189C28.5482 30.1681 28.5524 30.1458 28.5524 30.1233L28.5518 29.755Z" fill="#07448E"/>
<path d="M24.7629 20.9564C24.8122 20.7325 24.8241 20.5085 24.7986 20.2846C24.7859 20.1718 24.8336 20.1129 24.9418 20.108C25.7817 20.0756 27.0988 19.8592 27.3756 20.9863C27.514 21.5519 27.6373 22.1473 27.7455 22.7727C27.8743 23.5315 27.2325 23.6161 26.6479 23.6186C24.3668 23.6236 21.9099 23.6203 19.2772 23.6087C18.6457 23.6054 18.3896 23.2728 18.5089 22.611C18.6234 21.969 18.7555 21.3852 18.905 20.8594C19.1866 19.8865 20.5204 20.0881 21.303 20.103C21.3826 20.1046 21.4231 20.1478 21.4247 20.2324L21.4366 20.832C21.4391 20.9866 21.4998 21.1341 21.6056 21.2425C21.7114 21.351 21.8538 21.4117 22.0021 21.4117H24.2141C24.3412 21.4108 24.4644 21.3655 24.5639 21.2829C24.6634 21.2004 24.7335 21.0854 24.7629 20.9564Z" fill="white"/>
<path d="M23.9882 20.1372L22.2511 20.134C22.1853 20.1339 22.1317 20.1895 22.1316 20.2582L22.1311 20.6015C22.1309 20.6703 22.1843 20.726 22.2501 20.7262L23.9872 20.7293C24.0531 20.7294 24.1066 20.6738 24.1067 20.6051L24.1073 20.2618C24.1074 20.1931 24.0541 20.1373 23.9882 20.1372Z" fill="white"/>
<path d="M13.0486 22.8251L12.4092 22.1086C12.4029 22.1023 12.3957 22.0972 12.3877 22.0936L11.6313 21.7304C11.6207 21.7253 11.6115 21.7175 11.6044 21.7078C11.5973 21.6981 11.5927 21.6867 11.5908 21.6747C11.5889 21.6627 11.5899 21.6504 11.5936 21.6388C11.5973 21.6273 11.6037 21.6168 11.6122 21.6085L13.0653 20.1654C13.0755 20.155 13.0884 20.148 13.1024 20.1453C13.1163 20.1426 13.1308 20.1443 13.1438 20.1501C13.1569 20.156 13.168 20.1658 13.1757 20.1783C13.1833 20.1907 13.1873 20.2053 13.187 20.2201L13.1727 22.7729C13.173 22.788 13.1689 22.8029 13.1609 22.8155C13.1529 22.8281 13.1414 22.8379 13.128 22.8436C13.1145 22.8493 13.0997 22.8505 13.0855 22.8472C13.0714 22.8439 13.0585 22.8362 13.0486 22.8251Z" fill="white"/>
<path d="M9.68986 30.2567C9.6753 30.2567 9.66135 30.2507 9.65105 30.24C9.64076 30.2292 9.63498 30.2147 9.63498 30.1995L9.62305 23.952C9.62273 23.7415 9.66154 23.5331 9.73728 23.3386C9.81301 23.1441 9.92417 22.9672 10.0644 22.8182C10.2047 22.6692 10.3713 22.5509 10.5547 22.4701C10.7381 22.3893 10.9348 22.3475 11.1334 22.3472H11.1525C11.5537 22.3465 11.9388 22.5147 12.2229 22.8147C12.5071 23.1148 12.6671 23.522 12.6677 23.947L12.6796 30.1945C12.6796 30.2097 12.6739 30.2243 12.6636 30.235C12.6533 30.2457 12.6393 30.2517 12.6248 30.2517L9.68986 30.2567ZM12.0783 24.161C12.0783 23.9056 11.9811 23.6607 11.8079 23.4801C11.6347 23.2995 11.3998 23.1981 11.1549 23.1981C10.91 23.1981 10.6751 23.2995 10.502 23.4801C10.3288 23.6607 10.2315 23.9056 10.2315 24.161C10.2315 24.4163 10.3288 24.6613 10.502 24.8418C10.6751 25.0224 10.91 25.1238 11.1549 25.1238C11.3998 25.1238 11.6347 25.0224 11.8079 24.8418C11.9811 24.6613 12.0783 24.4163 12.0783 24.161Z" fill="white"/>
<path d="M12.0783 24.1611C12.0783 24.4165 11.981 24.6614 11.8078 24.842C11.6346 25.0226 11.3998 25.124 11.1549 25.124C10.91 25.124 10.6751 25.0226 10.5019 24.842C10.3287 24.6614 10.2314 24.4165 10.2314 24.1611C10.2314 23.9058 10.3287 23.6608 10.5019 23.4803C10.6751 23.2997 10.91 23.1982 11.1549 23.1982C11.3998 23.1982 11.6346 23.2997 11.8078 23.4803C11.981 23.6608 12.0783 23.9058 12.0783 24.1611ZM11.4555 24.1586C11.4555 24.0768 11.4243 23.9983 11.3689 23.9405C11.3134 23.8826 11.2381 23.8501 11.1596 23.8501C11.0812 23.8501 11.0059 23.8826 10.9504 23.9405C10.8949 23.9983 10.8638 24.0768 10.8638 24.1586C10.8638 24.2405 10.8949 24.3189 10.9504 24.3768C11.0059 24.4346 11.0812 24.4672 11.1596 24.4672C11.2381 24.4672 11.3134 24.4346 11.3689 24.3768C11.4243 24.3189 11.4555 24.2405 11.4555 24.1586Z" fill="#00B9F5"/>
<path d="M27.2517 25.7463C26.9765 25.8093 26.7967 25.9951 26.7124 26.3036C26.2638 27.9234 28.2968 27.6571 29.0961 27.6173C29.2997 27.6057 29.3976 27.7061 29.3896 27.9184L29.3681 28.508C29.3638 28.6238 29.3167 28.7333 29.2366 28.8135C29.1565 28.8938 29.0497 28.9386 28.9386 28.9385H17.3542C17.0265 28.9385 16.8586 28.7676 16.8507 28.4259L16.8412 27.9258C16.8364 27.687 16.9477 27.5808 17.1752 27.6074C18.6609 27.7815 19.4539 27.5418 19.5541 26.8883C19.6758 26.0996 19.2583 25.7139 18.5329 25.6418C17.9793 25.5854 17.4528 25.5249 16.9533 25.4602C16.8738 25.4502 16.834 25.4029 16.834 25.3183C16.8316 24.5421 17.3542 24.0942 17.9006 23.6563C17.969 23.6016 18.0286 23.6115 18.0795 23.6862C18.3468 24.0793 18.7325 24.275 19.2368 24.2734C21.8456 24.2717 24.4576 24.2709 27.0727 24.2709C27.5149 24.2709 27.8745 24.0785 28.1512 23.6936C28.1714 23.6651 28.2018 23.6462 28.2358 23.6411C28.2698 23.636 28.3046 23.645 28.3326 23.6663C28.8766 24.0868 29.4278 24.5645 29.3944 25.3457C29.3927 25.3808 29.3785 25.4139 29.3547 25.4387C29.3309 25.4635 29.2992 25.4783 29.2655 25.4801C28.4972 25.5249 27.8259 25.6136 27.2517 25.7463ZM25.1185 27.6969C25.2294 27.697 25.3366 27.6557 25.4206 27.5803C25.5047 27.505 25.5601 27.4007 25.5766 27.2864L25.7437 26.1319C25.7536 26.0632 25.7492 25.993 25.7308 25.9262C25.7123 25.8594 25.6803 25.7975 25.6368 25.7449C25.5933 25.6922 25.5394 25.6499 25.4787 25.6209C25.4181 25.592 25.3522 25.577 25.2855 25.5771L20.9428 25.5796C20.8764 25.5796 20.8107 25.5945 20.7503 25.6233C20.6899 25.6521 20.6361 25.6941 20.5927 25.7465C20.5492 25.7989 20.5171 25.8605 20.4984 25.927C20.4798 25.9935 20.4751 26.0634 20.4847 26.1319L20.647 27.2814C20.6635 27.3957 20.7189 27.5 20.803 27.5754C20.887 27.6507 20.9943 27.6921 21.1051 27.692L25.1185 27.6969Z" fill="white"/>
<path d="M11.1601 24.4671C11.3235 24.4671 11.456 24.329 11.456 24.1586C11.456 23.9882 11.3235 23.8501 11.1601 23.8501C10.9967 23.8501 10.8643 23.9882 10.8643 24.1586C10.8643 24.329 10.9967 24.4671 11.1601 24.4671Z" fill="white"/>
<path d="M25.1191 27.6965L21.1057 27.6915C20.9948 27.6916 20.8876 27.6502 20.8036 27.5749C20.7195 27.4996 20.6641 27.3953 20.6476 27.281L20.4853 26.1315C20.4757 26.0629 20.4804 25.993 20.499 25.9265C20.5177 25.86 20.5498 25.7985 20.5932 25.7461C20.6367 25.6937 20.6905 25.6517 20.7509 25.6228C20.8113 25.594 20.877 25.5791 20.9434 25.5791L25.2861 25.5767C25.3528 25.5766 25.4187 25.5916 25.4793 25.6205C25.54 25.6495 25.5939 25.6917 25.6374 25.7444C25.6809 25.7971 25.7129 25.859 25.7314 25.9258C25.7498 25.9926 25.7542 26.0628 25.7443 26.1315L25.5772 27.286C25.5607 27.4003 25.5053 27.5045 25.4212 27.5799C25.3372 27.6552 25.23 27.6966 25.1191 27.6965ZM21.6215 26.3322C21.6178 26.2941 21.5998 26.2592 21.5713 26.235C21.5429 26.2108 21.5064 26.1994 21.4699 26.2032L21.28 26.2233C21.2619 26.2252 21.2443 26.2309 21.2283 26.2398C21.2123 26.2488 21.1982 26.261 21.1867 26.2757C21.1752 26.2904 21.1666 26.3073 21.1614 26.3254C21.1561 26.3436 21.1544 26.3626 21.1562 26.3815L21.2103 26.936C21.214 26.974 21.232 27.009 21.2605 27.0332C21.2889 27.0574 21.3254 27.0688 21.3619 27.0649L21.5518 27.0448C21.5699 27.0429 21.5875 27.0373 21.6035 27.0283C21.6195 27.0194 21.6336 27.0072 21.6451 26.9925C21.6566 26.9778 21.6652 26.9609 21.6704 26.9427C21.6756 26.9246 21.6774 26.9055 21.6755 26.8867L21.6215 26.3322ZM22.7903 26.3927C22.7911 26.3597 22.7818 26.3271 22.7638 26.2999C22.7458 26.2726 22.72 26.252 22.6901 26.241C22.3735 26.1249 22.2351 26.2343 22.2749 26.5694C22.3003 26.7784 22.4053 26.9327 22.5898 27.0322C22.7155 27.1002 22.7791 27.0604 22.7807 26.9128L22.7903 26.3927ZM23.9281 26.4152C23.9296 26.3901 23.9264 26.3649 23.9187 26.3411C23.9109 26.3173 23.8987 26.2953 23.8828 26.2764C23.8668 26.2575 23.8475 26.2421 23.8258 26.231C23.8042 26.2199 23.7807 26.2133 23.7566 26.2117L23.6185 26.2024C23.5944 26.2007 23.5703 26.2041 23.5474 26.2122C23.5246 26.2203 23.5035 26.233 23.4854 26.2496C23.4672 26.2662 23.4524 26.2864 23.4418 26.309C23.4311 26.3315 23.4248 26.3561 23.4233 26.3812L23.3943 26.848C23.3928 26.8731 23.396 26.8983 23.4037 26.9221C23.4115 26.9459 23.4237 26.9679 23.4396 26.9868C23.4556 27.0057 23.4749 27.0211 23.4966 27.0322C23.5182 27.0433 23.5418 27.0499 23.5658 27.0515L23.7039 27.0608C23.728 27.0625 23.7521 27.0591 23.775 27.051C23.7978 27.0429 23.8189 27.0302 23.837 27.0136C23.8552 26.997 23.87 26.9768 23.8806 26.9542C23.8913 26.9317 23.8976 26.9071 23.8991 26.882L23.9281 26.4152ZM24.6252 26.3007C24.5234 26.4666 24.4916 26.678 24.5297 26.9351C24.5504 27.0678 24.6212 27.1135 24.7421 27.072C24.9919 26.9874 25.1 26.7668 25.0666 26.4102C25.0611 26.3587 25.0405 26.3102 25.0076 26.2715C24.9748 26.2327 24.9312 26.2054 24.8829 26.1934C24.8345 26.1814 24.7839 26.1853 24.7377 26.2045C24.6916 26.2237 24.6523 26.2573 24.6252 26.3007Z" fill="#00B9F5"/>
<path d="M18.7667 26.9628L16.9724 26.9877C16.9555 26.988 16.9386 26.9849 16.9229 26.9784C16.9071 26.972 16.8928 26.9623 16.8806 26.9501C16.8684 26.9378 16.8586 26.9232 16.8519 26.907C16.8451 26.8909 16.8415 26.8735 16.8411 26.8558L16.834 26.2512C16.8338 26.232 16.8376 26.213 16.8451 26.1954C16.8526 26.1779 16.8636 26.1622 16.8774 26.1495C16.8912 26.1367 16.9075 26.1272 16.9251 26.1216C16.9427 26.116 16.9613 26.1144 16.9795 26.1169L18.7977 26.3657C18.8298 26.37 18.8591 26.3867 18.8799 26.4125C18.9006 26.4383 18.9114 26.4713 18.9099 26.505L18.8932 26.8359C18.8914 26.8698 18.8773 26.9017 18.8539 26.9253C18.8304 26.9488 18.7993 26.9622 18.7667 26.9628Z" fill="white"/>
<path d="M29.3999 26.8854C29.4005 26.8949 29.3994 26.9044 29.3965 26.9134C29.3936 26.9224 29.389 26.9308 29.383 26.9379C29.3771 26.9451 29.3698 26.951 29.3616 26.9552C29.3534 26.9594 29.3446 26.9619 29.3355 26.9625L29.0348 26.98C28.8095 26.9931 28.586 26.9989 28.3772 26.997C28.1684 26.9951 27.9783 26.9855 27.8178 26.9689C27.6573 26.9522 27.5296 26.9288 27.442 26.9C27.3544 26.8711 27.3086 26.8374 27.3073 26.8008L27.293 26.5271C27.2928 26.4536 27.4709 26.3728 27.7886 26.3025C28.1063 26.2321 28.5379 26.1778 28.9895 26.1514L29.2901 26.1315C29.2994 26.1308 29.3087 26.1321 29.3175 26.1353C29.3263 26.1385 29.3344 26.1435 29.3413 26.15C29.3482 26.1565 29.3538 26.1643 29.3577 26.1732C29.3616 26.182 29.3638 26.1915 29.3641 26.2012L29.3999 26.8854Z" fill="white"/>
<path d="M21.4692 26.2031L21.2793 26.2232C21.2032 26.2313 21.1479 26.3021 21.1556 26.3814L21.2096 26.9358C21.2173 27.0151 21.2852 27.0729 21.3613 27.0648L21.5512 27.0447C21.6272 27.0367 21.6826 26.9658 21.6749 26.8866L21.6209 26.3321C21.6131 26.2528 21.5452 26.195 21.4692 26.2031Z" fill="white"/>
<path d="M22.7896 26.3929L22.7801 26.9129C22.7785 27.0605 22.7149 27.1003 22.5892 27.0323C22.4047 26.9328 22.2997 26.7785 22.2742 26.5695C22.2345 26.2345 22.3729 26.125 22.6894 26.2411C22.7194 26.2521 22.7452 26.2728 22.7632 26.3C22.7812 26.3273 22.7904 26.3598 22.7896 26.3929Z" fill="white"/>
<path d="M23.756 26.2116L23.6179 26.2023C23.5167 26.1955 23.4293 26.2755 23.4227 26.3811L23.3938 26.8479C23.3872 26.9535 23.464 27.0446 23.5653 27.0514L23.7034 27.0608C23.8046 27.0676 23.892 26.9875 23.8986 26.8819L23.9275 26.4152C23.9341 26.3096 23.8573 26.2184 23.756 26.2116Z" fill="white"/>
<path d="M24.6247 26.3006C24.6518 26.2572 24.6912 26.2236 24.7373 26.2044C24.7834 26.1852 24.8341 26.1814 24.8824 26.1933C24.9307 26.2053 24.9743 26.2326 25.0072 26.2714C25.0401 26.3102 25.0607 26.3586 25.0662 26.4101C25.0996 26.7667 24.9914 26.9873 24.7417 27.0719C24.6208 27.1134 24.55 27.0678 24.5293 26.9351C24.4911 26.678 24.5229 26.4665 24.6247 26.3006Z" fill="white"/>
<path d="M19.3647 29.5858L17.8662 29.5885C17.7621 29.5887 17.6779 29.6769 17.6781 29.7854L17.6786 30.1039C17.6788 30.2125 17.7633 30.3003 17.8674 30.3001L19.3659 30.2974C19.47 30.2972 19.5542 30.209 19.5541 30.1005L19.5535 29.782C19.5533 29.6735 19.4688 29.5856 19.3647 29.5858Z" fill="white"/>
<path d="M28.3859 29.5833L26.8492 29.5861C26.7583 29.5863 26.6847 29.6633 26.6849 29.7581L26.6855 30.1263C26.6856 30.2211 26.7595 30.2979 26.8504 30.2977L28.387 30.2949C28.478 30.2947 28.5516 30.2178 28.5514 30.1229L28.5508 29.7547C28.5506 29.6599 28.4768 29.5832 28.3859 29.5833Z" fill="white"/>
</svg>
