<svg width="40" height="40" viewBox="0 0 40 40" fill="none" xmlns="http://www.w3.org/2000/svg">
<path d="M11.5989 16.4031C11.5989 16.2731 11.5989 16.1628 11.5989 16.0531C11.5989 14.4415 11.5989 12.8299 11.5989 11.2183C11.5989 10.5897 11.7949 10.3944 12.4212 10.3944C13.3292 10.3944 14.2379 10.3944 15.1976 10.3944C15.1976 10.2345 15.1969 10.0903 15.1976 9.94609C15.2074 8.74226 15.9418 8.0048 17.1472 8.00254C19.0404 7.99879 20.9329 7.99954 22.8261 8.00254C24.0698 8.00404 24.7975 8.7325 24.8042 9.97388C24.8042 10.103 24.8042 10.2322 24.8042 10.3952C25.1489 10.3952 25.4643 10.3952 25.7805 10.3952C26.4083 10.3952 27.0362 10.3937 27.664 10.3952C28.1837 10.3974 28.4014 10.6205 28.4022 11.1619C28.4044 12.7923 28.4029 14.4227 28.4029 16.0531C28.4029 16.1628 28.4029 16.2731 28.4029 16.4038C29.3462 16.4038 30.2541 16.4038 31.1621 16.4038C31.8304 16.4038 32.0017 16.5765 32.0017 17.2554C32.0017 21.8838 32.0017 26.5128 32.0017 31.1412C32.0017 31.8268 31.8259 31.9995 31.1343 31.9995C23.7123 31.9995 16.2903 31.9995 8.86831 31.9995C8.75641 31.9995 8.64301 31.9995 8.53186 31.9853C8.23898 31.947 8.05724 31.7675 8.01669 31.4791C8.00242 31.3777 8.00092 31.2733 8.00092 31.1712C8.00017 26.5218 8.00017 21.8747 8.00017 17.2269C8.00017 17.1518 7.99866 17.0767 8.00467 17.0024C8.03621 16.6186 8.25775 16.4053 8.64226 16.4038C9.5134 16.4001 10.3853 16.4023 11.2572 16.4023C11.3593 16.4023 11.4615 16.4031 11.5989 16.4031ZM12.8222 11.6268V30.7837H16.997V30.4405C16.997 29.0632 17.009 27.6859 16.9917 26.3093C16.9842 25.7055 17.1171 25.3758 17.8914 25.3916C19.3243 25.4202 20.7587 25.3999 22.1923 25.3999C22.8224 25.3999 23.0041 25.5824 23.0049 26.2222C23.0056 27.6273 23.0049 29.0331 23.0049 30.4382C23.0049 30.5486 23.0049 30.659 23.0049 30.7807H27.1833V11.6373H24.8042C24.8042 11.7702 24.8042 11.8814 24.8042 11.9925C24.8042 13.2106 24.8072 14.4287 24.8035 15.6461C24.7997 16.8679 24.0645 17.6024 22.8411 17.6046C20.9487 17.6084 19.0554 17.6076 17.1629 17.6031C16.9587 17.6031 16.7476 17.5904 16.5516 17.5401C15.7068 17.3223 15.2051 16.6426 15.1999 15.7054C15.1924 14.4595 15.1976 13.2136 15.1976 11.967C15.1976 11.8574 15.1976 11.747 15.1976 11.626L12.8222 11.6268ZM20.0144 9.20412C19.0772 9.20412 18.14 9.20412 17.2027 9.20412C16.6132 9.20412 16.4014 9.41214 16.4014 9.99265C16.4014 11.8664 16.4014 13.7408 16.4014 15.6145C16.4014 16.183 16.617 16.4023 17.1757 16.4023C19.0592 16.4031 20.9434 16.4031 22.8269 16.4023C23.3758 16.4023 23.6004 16.1815 23.6004 15.6416C23.6011 13.7491 23.6011 11.8558 23.6004 9.96337C23.6004 9.42266 23.3773 9.20487 22.8261 9.20412C21.8889 9.20337 20.9517 9.20412 20.0144 9.20412ZM9.22352 17.6227V30.7829H11.5801V17.6227H9.22352ZM28.4247 17.6227V30.7739H30.7858V17.6219L28.4247 17.6227ZM21.789 26.6202H18.2196V30.7762H21.789V26.6202Z" fill="#07448E"/>
<path d="M16.4163 19.3908C16.6131 19.3908 16.8098 19.3802 17.0059 19.393C17.3536 19.4155 17.5916 19.6611 17.5976 19.9855C17.6044 20.3227 17.3641 20.5893 17.0044 20.6043C16.6026 20.6209 16.1985 20.6209 15.7968 20.6043C15.4385 20.5901 15.1975 20.3212 15.2042 19.9848C15.211 19.6611 15.4498 19.4155 15.7975 19.393C16.0025 19.3802 16.2098 19.3908 16.4163 19.3908Z" fill="#00B9F5"/>
<path d="M20.0003 19.3921C20.197 19.3921 20.3938 19.3831 20.5898 19.3944C20.9518 19.4147 21.1966 19.6647 21.1973 20.0004C21.1973 20.3361 20.954 20.5945 20.592 20.6072C20.1993 20.6215 19.8058 20.6207 19.413 20.6072C19.0518 20.5945 18.8054 20.3369 18.8047 20.0019C18.8047 19.667 19.0495 19.4147 19.4107 19.3944C19.6067 19.3831 19.8035 19.3921 20.0003 19.3921Z" fill="#00B9F5"/>
<path d="M23.6277 19.3908C23.8146 19.3908 24.0024 19.3818 24.1894 19.3924C24.5514 19.4126 24.7962 19.6635 24.7962 19.9991C24.7962 20.3348 24.5521 20.5924 24.1901 20.6052C23.7974 20.6195 23.4039 20.6187 23.0111 20.6052C22.6499 20.5924 22.4043 20.3341 22.4043 19.9991C22.4043 19.6642 22.6499 19.4119 23.0111 19.3924C23.2161 19.3811 23.4226 19.3901 23.6292 19.3901L23.6277 19.3908Z" fill="#00B9F5"/>
<path d="M16.3801 23.5972C16.1833 23.5972 15.9866 23.6032 15.7905 23.5957C15.4609 23.5837 15.2228 23.3501 15.207 23.0332C15.1898 22.6968 15.403 22.4279 15.7507 22.4106C16.1893 22.3888 16.6301 22.3888 17.0687 22.4129C17.4007 22.4309 17.6087 22.696 17.5982 23.0204C17.5877 23.3396 17.3533 23.5814 17.0259 23.5949C16.8111 23.6039 16.5956 23.5972 16.3801 23.5972Z" fill="#00B9F5"/>
<path d="M19.9787 23.5972C19.7819 23.5972 19.5852 23.6024 19.3892 23.5957C19.0595 23.5837 18.8214 23.3501 18.8057 23.0332C18.7884 22.6968 19.0017 22.4279 19.3494 22.4106C19.788 22.3888 20.2288 22.3888 20.6674 22.4129C20.9993 22.4309 21.2073 22.696 21.1968 23.0204C21.1863 23.3396 20.9512 23.5762 20.6246 23.5964C20.6058 23.5979 20.587 23.5972 20.5682 23.5972C20.3715 23.5972 20.1755 23.5972 19.9787 23.5972Z" fill="#00B9F5"/>
<path d="M23.583 23.5961C23.3773 23.5961 23.1708 23.6043 22.9657 23.5938C22.6533 23.5788 22.4235 23.3445 22.4055 23.0373C22.3867 22.7114 22.5895 22.4335 22.9162 22.4155C23.3728 22.39 23.8331 22.39 24.2897 22.4163C24.6156 22.435 24.8154 22.7159 24.7944 23.0433C24.7741 23.3505 24.5451 23.5803 24.2296 23.5946C24.0149 23.6043 23.7985 23.5961 23.583 23.5961Z" fill="#00B9F5"/>
<path d="M19.391 13.4145C19.002 13.4145 18.6558 13.4167 18.3104 13.4145C17.8763 13.4107 17.5857 13.1554 17.5939 12.7927C17.6022 12.4359 17.8815 12.1986 18.3051 12.1949C18.6513 12.1911 18.9975 12.1949 19.3903 12.1949C19.3903 11.935 19.3903 11.6872 19.3903 11.4386C19.3903 11.3072 19.3858 11.1758 19.3918 11.0451C19.4083 10.6674 19.6599 10.4008 19.9971 10.3985C20.3328 10.3963 20.5971 10.6636 20.6076 11.0383C20.6181 11.4108 20.6099 11.7841 20.6099 12.1956C21.0124 12.1956 21.3932 12.1904 21.7739 12.1979C22.0383 12.2031 22.2418 12.3233 22.3529 12.5711C22.4505 12.7889 22.4325 13.0209 22.2628 13.1696C22.1201 13.2943 21.9121 13.3859 21.7236 13.4055C21.3721 13.4423 21.0132 13.416 20.6106 13.416C20.6106 13.6105 20.6106 13.793 20.6106 13.9755C20.6106 14.1722 20.6166 14.369 20.6084 14.5657C20.5934 14.9427 20.3388 15.2101 20.0023 15.2123C19.6666 15.2146 19.4023 14.9465 19.3925 14.571C19.382 14.1985 19.3903 13.8253 19.3903 13.416L19.391 13.4145Z" fill="#00B9F5"/>
</svg>
