<svg width="40" height="40" viewBox="0 0 40 40" fill="none" xmlns="http://www.w3.org/2000/svg">
<path d="M30.8201 30.9226C31.1691 31.0659 31.3163 31.2775 31.2599 31.5595C31.203 31.8457 30.9683 31.9901 30.5521 31.9901C23.3616 31.9901 17.6725 31.9971 10.4819 31.9971C9.97285 31.9971 9.46323 32.0057 8.95469 31.9917C8.62281 31.9826 8.39405 31.7469 8.3962 31.458C8.39781 31.1669 8.63033 30.9542 8.9622 30.9392C9.01429 30.9371 9.06585 30.9338 9.15016 30.929C9.15016 30.8227 9.15016 30.7271 9.15016 30.632C9.15016 26.0052 9.14855 21.3783 9.15499 16.7514C9.15499 16.5533 9.10236 16.4577 8.9171 16.375C8.26893 16.0839 7.90806 15.3928 8.02029 14.7076C8.13306 14.017 8.68618 13.4891 9.39342 13.4032C9.52606 13.3871 9.66032 13.3833 9.79403 13.3833C11.9646 13.3822 14.1352 13.3822 16.3053 13.3822C16.4196 13.3822 16.534 13.3822 16.6661 13.3822V11.0774C16.5018 11.0538 16.3343 11.0425 16.1737 11.0038C15.4316 10.8261 14.9182 10.1151 15.0052 9.3971C15.105 8.57065 15.7205 8.00142 16.5297 8.00142C21.112 7.99981 25.6938 7.99927 30.2761 8.00142C31.1165 8.00142 31.791 8.65818 31.8039 9.47497C31.8173 10.3401 31.1858 11.0119 30.3217 11.0522C30.2696 11.0543 30.2181 11.0581 30.1531 11.0618C30.1531 21.0659 30.1504 27.6864 30.1451 30.9231C31.087 30.9306 30.819 30.922 30.8211 30.9231L30.8201 30.9226ZM29.0737 30.9285C29.0737 29.8421 29.0753 28.781 29.07 27.7193C29.07 27.6592 29.0667 20.6297 29.0678 20.409C29.0775 17.3991 29.0743 14.3897 29.0743 11.3797C29.0743 11.2761 29.0743 11.1725 29.0743 11.0506C28.9427 11.0506 28.846 11.0506 28.7488 11.0506C27.677 11.0506 26.6056 11.0527 25.5338 11.0489C25.2067 11.0479 24.9672 10.8282 24.957 10.5377C24.9473 10.2504 25.1815 10.0147 25.5042 9.99103C25.5842 9.98513 25.6648 9.98889 25.7453 9.98889C27.228 9.98942 28.7102 9.99157 30.1928 9.9905C30.5532 9.9905 30.7454 9.81919 30.7427 9.51632C30.7401 9.22526 30.5521 9.05825 30.2068 9.05825C25.6702 9.05718 21.133 9.05718 16.5963 9.05825C16.2682 9.05825 16.0534 9.24674 16.0523 9.51954C16.0507 9.78966 16.272 9.98728 16.591 9.9905C16.9572 9.99479 17.3234 9.99157 17.6897 9.99157C18.8598 9.99157 20.0294 9.9905 21.1996 9.99211C21.54 9.99211 21.7629 10.1355 21.8263 10.3847C21.9175 10.7434 21.6673 11.0479 21.2662 11.0495C20.1943 11.0538 19.1229 11.0511 18.0511 11.0511C17.9555 11.0511 17.8599 11.0511 17.7579 11.0511V30.9204H19.8141C19.8141 30.7953 19.8141 30.689 19.8141 30.5826C19.8141 28.752 19.813 26.9208 19.8146 25.0901C19.8146 24.595 20.0047 24.4044 20.4918 24.4038C22.3224 24.4027 24.1536 24.4027 25.9843 24.4038C26.4773 24.4038 26.6572 24.5869 26.6572 25.0874C26.6572 26.9363 26.6572 28.7847 26.6572 30.6337V30.929L29.0737 30.9285ZM10.2204 30.9247H16.6661V16.5382H10.2204V30.9247ZM22.6855 30.9301V25.4843H20.8892V30.9301H22.6855ZM23.7831 25.4762V30.9199H25.5756V25.4762H23.7831ZM16.6694 14.4461C16.5689 14.4412 16.4819 14.4332 16.3949 14.4332C14.1803 14.4326 11.9652 14.4321 9.75053 14.4348C9.62756 14.4348 9.4976 14.4461 9.38376 14.4869C9.18077 14.5599 9.07659 14.7189 9.06961 14.939C9.06262 15.1587 9.15606 15.3262 9.35315 15.4121C9.45464 15.4567 9.57815 15.4642 9.69146 15.4642C11.9329 15.4669 14.1749 15.4664 16.4164 15.4653C16.5007 15.4653 16.5856 15.453 16.6699 15.4465L16.6694 14.4461Z" fill="#07448E"/>
<path d="M21.1644 21.3407C20.8078 21.3407 20.4507 21.3456 20.0941 21.3391C19.7354 21.3327 19.5329 21.1302 19.5308 20.7704C19.5259 20.0836 19.5265 19.3968 19.5308 18.7099C19.5329 18.3383 19.737 18.1369 20.1156 18.1343C20.8201 18.1294 21.5247 18.13 22.2298 18.1343C22.6078 18.1364 22.821 18.3281 22.828 18.704C22.8409 19.3909 22.8409 20.0777 22.828 20.7645C22.821 21.1517 22.6062 21.337 22.2083 21.3402C21.8603 21.3429 21.5118 21.3413 21.1644 21.3407ZM20.6005 20.2549H21.7631V19.2104H20.6005V20.2549Z" fill="#00B9F5"/>
<path d="M21.095 16.7988C20.7384 16.7988 20.3818 16.8052 20.0252 16.7966C19.6665 16.7881 19.4786 16.6023 19.4753 16.2489C19.4689 15.5535 19.4694 14.8586 19.4753 14.1632C19.478 13.8243 19.6568 13.6149 19.9936 13.6079C20.7421 13.5918 21.4913 13.5918 22.2393 13.6068C22.5739 13.6133 22.7624 13.8157 22.7683 14.1573C22.7801 14.8521 22.7812 15.5481 22.7683 16.243C22.7618 16.6108 22.5615 16.7918 22.1915 16.7983C21.8264 16.8047 21.4607 16.7993 21.095 16.7988ZM20.5402 15.7248H21.6996V14.6749H20.5402V15.7248Z" fill="#00B9F5"/>
<path d="M25.8332 21.3411C25.4852 21.3411 25.1372 21.3438 24.7898 21.3405C24.3892 21.3368 24.1883 21.1504 24.1846 20.7584C24.1781 20.0716 24.1776 19.3847 24.1857 18.6979C24.19 18.337 24.394 18.1383 24.756 18.1351C25.4697 18.1292 26.1828 18.1298 26.8965 18.1351C27.2708 18.1378 27.4722 18.337 27.4765 18.7172C27.484 19.3949 27.484 20.0732 27.4765 20.7509C27.4722 21.1461 27.2719 21.3362 26.8772 21.3405C26.5292 21.3443 26.1812 21.3411 25.8332 21.3411ZM26.4094 20.2692V19.2145H25.2511V20.2692H26.4094Z" fill="#00B9F5"/>
<path d="M25.7536 16.7982C25.397 16.7982 25.0404 16.8046 24.6839 16.7966C24.3273 16.7885 24.1334 16.6054 24.1286 16.251C24.1195 15.5469 24.12 14.8424 24.1297 14.1384C24.134 13.8242 24.3106 13.618 24.6183 13.6116C25.3933 13.5949 26.1692 13.5955 26.9436 13.6142C27.2379 13.6212 27.4129 13.8274 27.4167 14.1266C27.4264 14.8397 27.4269 15.5529 27.4178 16.266C27.4135 16.6043 27.2191 16.788 26.8765 16.796C26.5022 16.8052 26.1284 16.7982 25.7536 16.7982ZM26.3534 14.6684H25.1887V15.7247H26.3534V14.6684Z" fill="#00B9F5"/>
<path d="M13.3238 25.7871C12.985 25.7871 12.6461 25.7919 12.3073 25.786C11.9604 25.7801 11.7418 25.5922 11.7338 25.2474C11.7177 24.5788 11.7182 23.9097 11.7322 23.2412C11.7397 22.8814 11.9566 22.6907 12.318 22.6886C12.9957 22.6848 13.674 22.6843 14.3517 22.6886C14.7126 22.6913 14.9177 22.8959 14.9198 23.2514C14.9236 23.9113 14.9241 24.5713 14.9198 25.2313C14.9177 25.5691 14.7099 25.7774 14.3678 25.785C14.0203 25.793 13.6718 25.7871 13.3238 25.7871ZM12.7997 23.7599V24.7083H13.8453V23.7599H12.7997Z" fill="#00B9F5"/>
<path d="M13.322 21.661C12.9831 21.661 12.6443 21.6659 12.3054 21.66C11.9596 21.6541 11.7416 21.4656 11.7335 21.1197C11.7179 20.4512 11.7179 19.7815 11.7324 19.1129C11.7399 18.7537 11.9574 18.5641 12.3204 18.562C12.9982 18.5577 13.6764 18.5571 14.3541 18.562C14.7128 18.5646 14.918 18.7725 14.9201 19.128C14.9239 19.7788 14.9233 20.4302 14.9201 21.0811C14.9185 21.4521 14.7144 21.6546 14.3385 21.6594C13.9997 21.6643 13.6608 21.661 13.322 21.661ZM13.845 20.5886V19.6419H12.8005V20.5886H13.845Z" fill="#00B9F5"/>
</svg>
