<svg width="40" height="40" viewBox="0 0 40 40" fill="none" xmlns="http://www.w3.org/2000/svg">
<path d="M32 26.8245C31.9693 26.8927 31.9374 26.961 31.9086 27.0299C31.6712 27.6085 31.2485 27.9423 30.6211 28.0036C30.4971 28.0155 30.3712 28.0155 30.2466 28.0155C25.9269 28.0155 21.6073 28.0155 17.2882 28.0155H16.9714C16.8693 28.5779 16.6795 29.0939 16.3451 29.5448C15.6563 30.4741 14.7333 30.98 13.5735 31.0063C12.7776 31.0245 11.9791 31.0264 11.1845 30.9901C9.66588 30.9206 8.27004 29.623 8.05149 28.1095C8.02018 27.894 8.0039 27.6749 8.0039 27.4569C7.99889 25.6609 8.00014 23.8649 8.00014 22.0683C8.00014 20.3293 9.13798 18.9266 10.8388 18.5815C11.0104 18.5465 11.0004 18.455 11.0004 18.3342C10.9991 16.4361 11.0229 14.5374 10.9885 12.64C10.9741 11.829 11.5564 10.9617 12.6317 11.0074C12.7394 11.0118 12.8477 11.0074 13.0018 11.0074C13.0018 10.8045 12.9924 10.6198 13.003 10.4369C13.0863 9.05861 14.0363 8.08671 15.4121 8.02284C16.1836 7.98715 16.9588 7.99591 17.7303 8.03098C18.9389 8.08671 19.9728 9.18323 19.9966 10.3925C20.0004 10.5872 19.9966 10.782 19.9966 11.008H20.3104C23.5598 11.008 26.8093 11.0256 30.0587 10.9968C30.9999 10.9886 31.685 11.2604 31.9987 12.1991V26.8238L32 26.8245ZM18.0059 27.0129H18.2651C22.2873 27.0129 26.3095 27.0129 30.3318 27.0129C30.8258 27.0129 30.9955 26.847 30.9955 26.3542C30.9962 21.7928 30.9962 17.232 30.9955 12.6706C30.9955 12.1766 30.8271 12.0112 30.333 12.0112C26.9746 12.0112 23.6162 12.0112 20.2578 12.0112C20.1757 12.0112 20.0931 12.0112 19.9991 12.0112C19.9991 12.1377 19.9991 12.2304 19.9991 12.3237C19.9991 16.0178 19.9991 19.7119 19.9985 23.4065C19.9985 23.5625 20.0023 23.7209 19.9747 23.8731C19.785 24.922 19.1782 25.6065 18.1618 25.9315C18.1017 25.9509 18.0146 26.0173 18.0128 26.0655C17.999 26.3755 18.0059 26.6854 18.0059 27.0129ZM18.9959 17.0298C18.9959 14.9056 18.9978 12.7815 18.9953 10.6573C18.994 9.62221 18.3804 9.01227 17.3496 9.01101C16.7954 9.01101 16.2406 9.01101 15.6864 9.01101C14.6105 9.01101 13.9999 9.61907 13.9999 10.6912C13.9999 14.049 13.9999 17.4067 13.9999 20.7652C13.9999 21.6556 13.9974 22.5455 14.0006 23.436C14.0043 24.3622 14.6374 24.999 15.5567 25.0028C16.2124 25.0053 16.8687 25.0134 17.5243 24.9959C17.7285 24.9903 17.9476 24.9445 18.1317 24.8581C18.7498 24.5669 18.9997 24.0472 18.9984 23.379C18.9947 21.263 18.9972 19.1464 18.9972 17.0304L18.9959 17.0298ZM11.001 19.5854C10.9327 19.5941 10.8795 19.5954 10.8288 19.6079C9.88694 19.8358 9.05156 20.7708 9.03403 21.7427C8.99833 23.6934 8.9833 25.6465 9.02401 27.5972C9.05156 28.9198 9.97837 29.8798 11.2934 29.9887C12.0919 30.0551 12.9009 30.0244 13.7037 29.9937C14.2817 29.9718 14.7902 29.7276 15.2123 29.3256C15.5812 28.9749 15.8279 28.5541 15.9368 28.0161C15.8248 28.0161 15.7421 28.0161 15.6588 28.0161C14.6362 28.0161 13.6129 28.0212 12.5903 28.0143C11.6141 28.008 11.001 27.3843 11.001 26.4124C11.001 24.2263 11.001 22.0401 11.001 19.854C11.001 19.7688 11.001 19.6837 11.001 19.5854ZM12.9961 12.0112C12.8521 12.0112 12.7362 12.0106 12.6204 12.0112C12.1889 12.0144 12.0054 12.1903 12.0054 12.6237C12.0036 17.2157 12.0036 21.8078 12.0054 26.3999C12.0054 26.8332 12.1895 27.0117 12.6198 27.0123C13.2917 27.0142 13.963 27.0123 14.6349 27.0123C14.7489 27.0123 14.8629 27.0123 14.9913 27.0123C14.9913 26.6848 14.9988 26.3886 14.9844 26.0937C14.9819 26.0367 14.9036 25.9628 14.8422 25.9321C14.5999 25.81 14.3293 25.7323 14.1077 25.582C13.3286 25.0541 12.993 24.297 12.9942 23.3633C12.9999 19.6849 12.9967 16.0065 12.9967 12.3281C12.9967 12.2285 12.9961 12.1296 12.9961 12.0112ZM16.9933 26.0373H16.0251V26.9973H16.9933V26.0373Z" fill="#07448E"/>
<path d="M25.484 13.0025C26.7722 13.0025 28.0603 13.0025 29.349 13.0025C29.8281 13.0025 30.0028 13.1735 30.0041 13.6488C30.0066 14.5543 30.006 15.4605 30.0041 16.366C30.0028 16.8444 29.8275 17.0197 29.3559 17.0197C26.7872 17.0197 24.2184 17.0197 21.6497 17.0197C21.1819 17.0197 20.9922 16.8338 20.9922 16.3729C20.9909 15.4592 20.9909 14.5455 20.9922 13.6325C20.9928 13.1979 21.1863 13.0032 21.6196 13.0025C22.9078 13.0013 24.1953 13.0025 25.484 13.0025ZM28.9934 14.0364H22.0254V15.9865H28.9934V14.0364Z" fill="#07448E"/>
<path d="M22.5132 18.0137C22.6691 18.0137 22.8251 18.0106 22.981 18.0137C23.2903 18.0206 23.4945 18.2097 23.5051 18.5228C23.5164 18.8497 23.517 19.1779 23.5051 19.5054C23.4939 19.8128 23.2897 20.0095 22.9785 20.0182C22.6591 20.0276 22.3391 20.0283 22.0197 20.0182C21.6966 20.0082 21.5056 19.8028 21.5019 19.4791C21.4987 19.1597 21.4975 18.8397 21.5019 18.5197C21.5069 18.2191 21.7016 18.0231 21.9985 18.0143C22.17 18.0093 22.3416 18.0137 22.5132 18.0137Z" fill="#00B9F5"/>
<path d="M25.5028 18.0129C25.6587 18.0129 25.8146 18.0104 25.9706 18.0129C26.2849 18.0186 26.4922 18.2014 26.5041 18.5114C26.5173 18.8464 26.5173 19.1821 26.5041 19.5171C26.4916 19.8127 26.2887 20.0074 25.9894 20.0175C25.6625 20.0281 25.3343 20.0294 25.0068 20.0175C24.6956 20.0062 24.5058 19.8002 24.5021 19.4896C24.4983 19.1702 24.4977 18.8502 24.5021 18.5302C24.5065 18.2152 24.6993 18.0211 25.0118 18.0136C25.1753 18.0098 25.3393 18.0129 25.5028 18.0129Z" fill="#00B9F5"/>
<path d="M28.4992 18.0128C28.6551 18.0128 28.811 18.0109 28.967 18.0128C29.2826 18.0178 29.4905 18.1988 29.503 18.5082C29.5168 18.8432 29.5162 19.1788 29.503 19.5139C29.4911 19.8101 29.2895 20.0061 28.9908 20.0167C28.6639 20.028 28.3357 20.028 28.0082 20.0167C27.6964 20.0061 27.5047 19.8007 27.5004 19.492C27.496 19.1726 27.496 18.8526 27.5004 18.5326C27.5047 18.2063 27.6995 18.0185 28.0308 18.0128C28.1867 18.0103 28.3432 18.0128 28.4992 18.0128Z" fill="#00B9F5"/>
<path d="M21.5016 22.0199C21.5016 21.8408 21.4947 21.6611 21.5035 21.482C21.5154 21.224 21.7095 21.0236 21.9669 21.0167C22.3176 21.0073 22.6689 21.0079 23.0196 21.016C23.2882 21.0223 23.4898 21.2121 23.503 21.4907C23.5186 21.8333 23.518 22.1771 23.5042 22.5196C23.4923 22.8145 23.2876 23.0081 22.9882 23.0181C22.6614 23.0287 22.3332 23.03 22.0057 23.0181C21.6951 23.0062 21.5079 22.8001 21.5022 22.4889C21.4991 22.333 21.5022 22.1771 21.5022 22.0211L21.5016 22.0199Z" fill="#00B9F5"/>
<path d="M24.5002 22.0138C24.5002 21.8503 24.4971 21.6862 24.5009 21.5228C24.5084 21.2109 24.7025 21.0174 25.0175 21.0131C25.3369 21.0087 25.6569 21.0087 25.9769 21.0131C26.2887 21.0168 26.4929 21.2059 26.5041 21.5178C26.516 21.8447 26.5154 22.1728 26.5041 22.5003C26.4935 22.8091 26.2912 23.0076 25.9813 23.017C25.6619 23.027 25.3419 23.027 25.0225 23.017C24.6981 23.0076 24.5065 22.8034 24.5009 22.4809C24.4984 22.325 24.5002 22.1698 24.5002 22.0138Z" fill="#00B9F5"/>
<path d="M27.5005 22.009C27.5005 21.8456 27.4968 21.6815 27.5011 21.5181C27.5093 21.2175 27.7015 21.0196 27.9996 21.014C28.3271 21.0077 28.6546 21.009 28.9822 21.014C29.2827 21.0177 29.4894 21.2012 29.5032 21.5006C29.5182 21.835 29.5169 22.1712 29.5044 22.5063C29.4932 22.8131 29.2884 23.0091 28.9765 23.0185C28.6571 23.0279 28.3372 23.0285 28.0178 23.0185C27.6953 23.0079 27.5055 22.8025 27.5005 22.4781C27.498 22.3222 27.5005 22.1662 27.5005 22.0103V22.009Z" fill="#00B9F5"/>
<path d="M21.5009 25.0083C21.5009 24.8367 21.4959 24.6651 21.5022 24.4935C21.5128 24.2218 21.7063 24.0226 21.9781 24.0157C22.3213 24.0076 22.6644 24.0082 23.0076 24.0151C23.2806 24.0201 23.486 24.2024 23.5011 24.4791C23.5192 24.8292 23.518 25.1811 23.5023 25.5312C23.4898 25.8149 23.2869 26.0065 22.9988 26.0171C22.6638 26.029 22.3282 26.0303 21.9931 26.0165C21.6944 26.004 21.5084 25.7967 21.5015 25.4999C21.4978 25.3364 21.5003 25.1718 21.5009 25.0083Z" fill="#00B9F5"/>
<path d="M25.5266 24.0119C25.675 24.0119 25.8228 24.0094 25.9712 24.0119C26.2856 24.0176 26.4928 24.2004 26.5047 24.5104C26.5179 24.8454 26.5179 25.1811 26.5041 25.5161C26.4916 25.8117 26.2887 26.0058 25.9894 26.0158C25.6625 26.0265 25.3343 26.0277 25.0068 26.0158C24.6956 26.0046 24.5058 25.7985 24.5021 25.4879C24.4983 25.1686 24.4977 24.8486 24.5021 24.5286C24.5065 24.2136 24.6993 24.0194 25.0118 24.0119C25.1834 24.0075 25.355 24.0119 25.5266 24.0119Z" fill="#00B9F5"/>
<path d="M27.5005 25.0091C27.5005 24.8456 27.4968 24.6816 27.5011 24.5181C27.5093 24.2175 27.7015 24.0197 27.999 24.014C28.3265 24.0078 28.654 24.009 28.9815 24.014C29.2909 24.0184 29.4944 24.21 29.5051 24.5231C29.5163 24.85 29.5169 25.1782 29.5051 25.5057C29.4938 25.8125 29.289 26.0092 28.9778 26.0179C28.6584 26.0273 28.3384 26.0279 28.019 26.0179C27.6959 26.0079 27.5068 25.8019 27.5018 25.4775C27.4993 25.3216 27.5018 25.1656 27.5018 25.0097L27.5005 25.0091Z" fill="#00B9F5"/>
</svg>
