<svg width="40" height="40" viewBox="0 0 40 40" fill="none" xmlns="http://www.w3.org/2000/svg">
<path d="M17.3722 31C17.3106 30.9535 17.2412 30.9141 17.1895 30.8587C17.058 30.7168 17.0054 30.553 17.0857 30.3642C17.1754 30.1529 17.336 30.0618 17.5647 30.0623C18.8612 30.0646 20.1572 30.0637 21.4537 30.0637C21.5377 30.0637 21.6218 30.0637 21.7317 30.0637C21.7317 29.5622 21.7317 29.0804 21.7317 28.5986C21.7326 27.6923 22.3167 27.1115 23.2272 27.1105C23.7024 27.1105 24.1777 27.1105 24.6839 27.1105C24.6839 26.6931 24.6482 26.2864 24.6928 25.8883C24.7491 25.3872 24.5787 25.1341 24.118 24.8754C22.1073 23.7456 20.9494 21.9983 20.6089 19.7139C20.6047 19.6843 20.5991 19.6552 20.5901 19.6045C20.5014 19.6045 20.4173 19.6045 20.3328 19.6045C19.1927 19.6045 18.0526 19.6063 16.9125 19.6016C16.7988 19.6016 16.6739 19.5876 16.5734 19.5397C16.3767 19.4462 16.2964 19.2706 16.3316 19.0541C16.3668 18.8381 16.4969 18.7048 16.7152 18.6709C16.8073 18.6569 16.9021 18.6587 16.9956 18.6587C18.0887 18.6578 19.1824 18.6583 20.2755 18.6583H20.5441V14.4951C20.4619 14.4951 20.3793 14.4951 20.2967 14.4951C19.1565 14.4951 18.0164 14.496 16.8763 14.4946C16.5612 14.4946 16.3715 14.3514 16.3302 14.0945C16.2875 13.8287 16.4593 13.5944 16.7279 13.5601C16.8204 13.5484 16.9148 13.5493 17.0082 13.5493C18.6949 13.5489 20.3816 13.5512 22.0688 13.5456C22.2374 13.5451 22.4111 13.5183 22.5727 13.4705C23.2141 13.2789 23.8499 13.0685 24.4913 12.8774C24.635 12.8347 24.689 12.7778 24.6876 12.6229C24.6806 11.6232 24.6857 10.6234 24.6834 9.62373C24.6824 9.24337 24.5012 9.06259 24.1232 9.06165C23.0845 9.05977 22.0458 9.06071 21.0071 9.06165C20.9465 9.06165 20.886 9.06916 20.7958 9.0748C20.7958 9.26216 20.8028 9.44012 20.7944 9.61715C20.769 10.1403 20.3427 10.5586 19.8177 10.5601C17.8107 10.5638 15.8038 10.5643 13.7969 10.5601C13.2733 10.5591 12.8478 10.1374 12.8239 9.61387C12.8159 9.44294 12.8225 9.27155 12.8225 9.07292C12.7328 9.06869 12.6586 9.06165 12.5844 9.06165C11.5612 9.06118 10.5385 9.06024 9.51531 9.06165C9.10584 9.06165 8.93539 9.23445 8.93539 9.65049C8.93492 16.2583 8.93492 22.8666 8.93539 29.4744C8.93539 29.8862 9.11007 30.0623 9.51812 30.0632C10.7207 30.0646 17.3726 30.0674 18.5752 30.0609C18.8415 30.0595 19.088 30.0811 19.1922 30.368C19.2932 30.6469 19.1415 30.8403 18.9311 31H9.12415C9.11288 30.9897 9.10396 30.9737 9.09081 30.969C8.30428 30.6934 8 30.2651 8 29.4312C8 22.8318 8 16.2325 8 9.63312C8 8.7029 8.571 8.1258 9.49652 8.12345C10.5117 8.1211 11.5265 8.12298 12.5417 8.12298C12.6253 8.12298 12.7089 8.12298 12.8192 8.12298C12.8192 7.91261 12.8169 7.72713 12.8197 7.54165C12.8258 7.16318 12.9883 7.0007 13.3648 7.0007C15.6606 6.99977 17.9563 6.99977 20.2516 7.0007C20.63 7.0007 20.7935 7.16177 20.7996 7.53836C20.8028 7.72948 20.8 7.92059 20.8 8.12251C20.9268 8.12251 21.0123 8.12251 21.0977 8.12251C22.1439 8.12251 23.1901 8.11875 24.2368 8.12533C24.8876 8.12955 25.4187 8.55498 25.5756 9.19031C25.6089 9.32461 25.6174 9.46783 25.6178 9.60682C25.6211 10.5666 25.6197 11.5264 25.6197 12.5121C25.7512 12.4745 25.8597 12.4257 25.9714 12.4158C26.1672 12.3984 26.3804 12.3543 26.5598 12.4088C28.2202 12.9131 29.8745 13.4376 31.5316 13.9522C31.7349 14.0156 31.9007 14.1138 31.9941 14.3119V19.4683C31.9791 19.5115 31.9566 19.5537 31.9509 19.5979C31.6969 21.6837 30.7164 23.3512 28.9903 24.5364C27.9953 25.2191 26.9298 25.8004 25.6197 25.56C25.6197 26.1752 25.6117 26.8077 25.6239 27.4397C25.6286 27.6778 25.5516 27.8548 25.3845 28.0201C24.4796 28.916 23.5827 29.82 22.6802 30.7178C22.5764 30.8211 22.4539 30.9066 22.3402 31H17.3722ZM21.4955 14.8003C21.4955 15.2187 21.4922 15.6394 21.4959 16.0597C21.5063 17.1679 21.4438 18.2831 21.5471 19.3828C21.765 21.7039 23.0136 23.3282 25.1032 24.3401C25.8982 24.7251 26.6485 24.7265 27.4454 24.342C29.5378 23.3319 30.8075 21.7081 30.9991 19.3866C31.1235 17.8816 31.0418 16.3602 31.0522 14.8458C31.0522 14.8313 31.0418 14.8167 31.0334 14.7942C29.4866 14.31 27.9347 13.8226 26.3809 13.3418C26.3067 13.3188 26.2104 13.3352 26.1325 13.3592C24.5932 13.8353 23.0554 14.3143 21.4955 14.8003ZM13.7607 7.94454C13.7607 8.4343 13.7715 8.90247 13.756 9.36922C13.749 9.58006 13.817 9.6303 14.0208 9.62983C15.8794 9.62232 17.7375 9.62561 19.5961 9.62514C19.643 9.62514 19.6961 9.63828 19.735 9.62044C19.7825 9.59837 19.8515 9.55047 19.852 9.51291C19.8595 8.99262 19.8571 8.47281 19.8571 7.94454H13.7607ZM22.6689 29.3072C23.0901 28.8841 23.5099 28.4634 23.9227 28.0487C23.6719 28.0487 23.3925 28.0365 23.1145 28.0525C22.8596 28.0671 22.683 28.2549 22.6717 28.5136C22.6595 28.7846 22.6689 29.0564 22.6689 29.3072Z" fill="#07448E"/>
<path d="M18.8856 24.7152C18.1986 24.7152 17.5112 24.7161 16.8242 24.7147C16.5889 24.7142 16.4157 24.6095 16.3452 24.379C16.2823 24.1719 16.3377 23.9859 16.5204 23.8643C16.5997 23.8117 16.7078 23.7784 16.8031 23.7779C18.201 23.7728 19.5989 23.7718 20.9963 23.7765C21.2786 23.7775 21.4819 23.9878 21.48 24.2433C21.4781 24.5067 21.2645 24.7119 20.97 24.7138C20.2751 24.718 19.5805 24.7152 18.8856 24.7152Z" fill="#07448E"/>
<path d="M12.4361 25.6582C12.9949 25.0975 13.5095 24.5753 14.0308 24.0593C14.3308 23.7625 14.729 23.8391 14.8567 24.2081C14.9206 24.3927 14.8666 24.5533 14.7398 24.6815C14.0918 25.3365 13.4429 25.9902 12.7845 26.6349C12.5742 26.841 12.3304 26.8326 12.1154 26.6288C11.8322 26.3602 11.5566 26.0836 11.2875 25.8004C11.088 25.5905 11.0927 25.3177 11.28 25.1299C11.4617 24.9477 11.7496 24.9444 11.9515 25.1388C12.114 25.2952 12.2605 25.4685 12.4361 25.6582Z" fill="#00B9F5"/>
<path d="M12.4346 15.4336C12.9972 14.8706 13.5184 14.3437 14.0462 13.8239C14.3026 13.5713 14.6623 13.6102 14.8205 13.8995C14.9318 14.1033 14.8989 14.2996 14.7411 14.4588C14.0936 15.1143 13.4442 15.7679 12.7863 16.4126C12.575 16.6197 12.3332 16.6122 12.1177 16.4084C11.8345 16.1403 11.5589 15.8628 11.2893 15.5806C11.0898 15.3711 11.0931 15.0978 11.2795 14.91C11.4598 14.7283 11.7505 14.7245 11.9514 14.9175C12.1139 15.0739 12.2604 15.2462 12.4346 15.4336Z" fill="#00B9F5"/>
<path d="M12.4348 20.5418C12.995 19.9811 13.5157 19.4543 14.0435 18.9349C14.338 18.6452 14.7709 18.7349 14.8521 19.1143C14.8812 19.2509 14.8319 19.4594 14.7376 19.558C14.1008 20.2239 13.4472 20.8733 12.7893 21.518C12.571 21.7321 12.3291 21.7195 12.1033 21.5035C11.8267 21.2391 11.5562 20.9682 11.2918 20.6916C11.0913 20.4817 11.0918 20.2103 11.2763 20.0206C11.4609 19.8309 11.7511 19.837 11.9661 20.037C12.046 20.1112 12.1239 20.1887 12.1981 20.2685C12.2723 20.3483 12.3418 20.4338 12.4348 20.5418Z" fill="#00B9F5"/>
<path d="M18.3917 26.773C17.8696 26.773 17.347 26.7753 16.8248 26.7715C16.6027 26.7701 16.428 26.672 16.351 26.4579C16.2824 26.2668 16.3153 26.0756 16.4815 25.9507C16.5745 25.8812 16.7069 25.8305 16.822 25.8296C17.8743 25.8207 18.9266 25.8197 19.9789 25.8277C20.2883 25.8301 20.4715 26.0273 20.4663 26.3067C20.4616 26.5786 20.2635 26.7678 19.9582 26.7711C19.4361 26.7772 18.9143 26.7735 18.3917 26.773Z" fill="#07448E"/>
<path d="M17.8851 21.6625C17.5493 21.6625 17.214 21.6648 16.8783 21.6615C16.5383 21.6583 16.3265 21.4765 16.3214 21.1915C16.3162 20.9084 16.5256 20.7125 16.8647 20.7097C17.5512 20.7036 18.2382 20.7036 18.9247 20.7097C19.2614 20.7125 19.4774 20.9112 19.4736 21.1892C19.4699 21.4667 19.2473 21.6583 18.9148 21.6615C18.5716 21.6653 18.2288 21.6625 17.8851 21.6625Z" fill="#07448E"/>
<path d="M17.8464 16.5535C17.5191 16.5535 17.1923 16.5568 16.865 16.5525C16.5312 16.5483 16.318 16.3563 16.3203 16.0712C16.3222 15.7965 16.526 15.6049 16.8509 15.6012C17.513 15.5937 18.1751 15.5941 18.8368 15.6012C19.1598 15.6045 19.3693 15.7979 19.374 16.0684C19.3786 16.3455 19.1551 16.5474 18.8274 16.5521C18.5005 16.5568 18.1737 16.5535 17.8464 16.5535Z" fill="#07448E"/>
<path d="M30.0731 17.539C30.0731 18.2015 30.1252 18.8693 30.0632 19.5262C29.8838 21.4345 28.2915 23.2433 26.4297 23.7068C26.3165 23.735 26.1803 23.7195 26.0658 23.6871C24.1584 23.1452 22.7224 21.4627 22.4792 19.4882C22.4534 19.2797 22.4383 19.0684 22.4374 18.8585C22.4332 17.8667 22.4346 16.875 22.436 15.8828C22.436 15.5973 22.5407 15.447 22.8121 15.3616C23.9043 15.0183 24.9965 14.676 26.0925 14.3445C26.2109 14.3088 26.3597 14.314 26.479 14.3506C27.559 14.6779 28.6367 15.0146 29.7134 15.3522C30.0266 15.4503 30.1191 15.5879 30.1196 15.9218C30.1205 16.4608 30.1196 16.9994 30.1196 17.5385C30.1041 17.5385 30.0886 17.539 30.0731 17.539ZM23.3709 17.6869C23.3709 17.6869 23.3742 17.6869 23.3761 17.6869C23.3761 18.1161 23.3502 18.5471 23.3808 18.9745C23.5061 20.7297 24.3762 21.9666 25.9958 22.6704C26.1855 22.7531 26.3545 22.7536 26.5532 22.6756C28.138 22.0525 29.1673 20.547 29.1832 18.7951C29.1903 17.9912 29.1785 17.1873 29.1893 16.3834C29.1917 16.2153 29.1302 16.1566 28.9813 16.1115C28.1328 15.8542 27.2881 15.5837 26.4391 15.3264C26.3423 15.2972 26.2212 15.2972 26.124 15.3264C25.2609 15.5888 24.4016 15.8645 23.5385 16.126C23.4085 16.1655 23.3662 16.2195 23.3685 16.3514C23.3756 16.7961 23.3714 17.2413 23.3714 17.686L23.3709 17.6869Z" fill="#00B9F5"/>
<path d="M25.8471 19.3136C26.3843 18.7726 26.8778 18.2622 27.3896 17.7715C27.4967 17.6686 27.6798 17.571 27.8122 17.5879C27.9536 17.6062 28.1118 17.74 28.1992 17.8673C28.3086 18.0269 28.2536 18.2171 28.1175 18.3589C27.8747 18.612 27.6244 18.8581 27.3765 19.1065C27.0018 19.4817 26.628 19.8583 26.2509 20.2311C25.9767 20.5025 25.7358 20.502 25.463 20.2316C25.1362 19.9076 24.8103 19.5831 24.4872 19.2549C24.2613 19.0252 24.2463 18.7501 24.4417 18.5519C24.6426 18.3481 24.9122 18.3542 25.1446 18.5838C25.377 18.813 25.5987 19.0544 25.8471 19.3136Z" fill="#00B9F5"/>
</svg>
