<svg width="40" height="40" viewBox="0 0 40 40" fill="none" xmlns="http://www.w3.org/2000/svg">
<rect x="13.4" y="8.4" width="12.2" height="23.2" rx="1.6" fill="white" stroke="#07448E" stroke-width="0.8"/>
<path d="M17.4362 10.7696C17.2711 10.7696 17.1032 10.7104 17.0317 10.5493C16.999 10.4759 16.9916 10.3948 17.0095 10.3059C17.0574 10.0651 17.2599 10.0031 17.4786 10.0031C18.5204 10.0029 19.5622 10.0019 20.6041 10.0001C21.0655 9.99946 21.5269 10.0015 21.9881 10.0061C22.0064 10.0064 22.0381 10.0114 22.0833 10.0211C22.3223 10.0729 22.4207 10.3031 22.3499 10.5249C22.2821 10.738 22.0641 10.7688 21.874 10.7688C20.3947 10.7692 18.9155 10.7695 17.4362 10.7696Z" fill="#07448E"/>
<path d="M18.9585 19.4246C19.5954 20.0029 20.2315 20.5822 20.8668 21.1624C20.8892 21.183 20.9117 21.2167 20.9343 21.2638C21.0481 21.5008 20.8116 21.6971 20.5892 21.6055C20.5677 21.5967 20.5301 21.5678 20.4762 21.5188C19.7178 20.8274 18.9595 20.1359 18.2012 19.4444C18.1082 19.3594 18.0425 19.3041 18.0111 19.2079C17.9703 19.0838 18.0487 18.9375 18.1766 18.8994C18.2052 18.8908 18.2558 18.8865 18.3283 18.8864C18.6383 18.886 18.9485 18.8861 19.2587 18.8868C19.2914 18.8869 19.3445 18.8816 19.418 18.8708C20.0465 18.7782 20.4545 18.2706 20.4415 17.6434C20.4413 17.6371 20.4382 17.634 20.4321 17.634C19.7451 17.6339 19.058 17.6339 18.3709 17.634C18.2613 17.634 18.1852 17.6238 18.1426 17.6034C18.0253 17.5471 17.9751 17.4163 18.0141 17.292C18.0521 17.1708 18.1455 17.1101 18.2943 17.1099C18.9539 17.1094 19.611 17.1092 20.2656 17.1093L20.27 17.1082L20.2732 17.105L20.2743 17.1005L20.273 17.0962C20.084 16.8001 19.8286 16.6185 19.5067 16.5513C19.4245 16.5343 19.2918 16.5247 19.1088 16.5225C18.7954 16.5188 18.5555 16.5185 18.3892 16.5217C18.3085 16.5233 18.2537 16.5219 18.2248 16.5175C17.9585 16.4766 17.9162 16.1086 18.1658 16.0185C18.1992 16.0065 18.2557 16.0005 18.3351 16.0005C19.4697 15.9998 20.6042 15.9998 21.7388 16.0005C21.8219 16.0005 21.8829 16.0086 21.9217 16.0249C22.1333 16.1138 22.1269 16.4254 21.9091 16.5032C21.8748 16.5154 21.8193 16.5215 21.7426 16.5213C21.3297 16.5209 20.9167 16.521 20.5038 16.5215L20.5004 16.5225L20.4981 16.5252L20.4977 16.5288L20.4992 16.5321C20.6549 16.6982 20.7741 16.8871 20.857 17.099C20.8598 17.1059 20.8649 17.1093 20.8724 17.1093C21.166 17.1092 21.4591 17.1093 21.7514 17.1097C21.8212 17.1099 21.8708 17.1147 21.9003 17.1243C22.1311 17.1997 22.1359 17.5367 21.9053 17.6164C21.8718 17.6279 21.8123 17.6337 21.7266 17.6338C21.4765 17.6338 21.2263 17.6339 20.9761 17.634C20.9686 17.634 20.9649 17.6377 20.9649 17.6452C20.9771 18.3519 20.6054 18.9637 19.964 19.2545C19.7492 19.352 19.5407 19.4024 19.3386 19.4056C19.213 19.4075 19.0873 19.4108 18.9617 19.4156C18.9533 19.4159 18.9522 19.4189 18.9585 19.4246Z" fill="#00B9F5"/>
<path d="M19.4134 29.7765C18.8672 29.7779 18.8674 29.0224 19.3836 29.0076C19.7346 28.9976 20.0859 28.9975 20.4375 29.0072C20.5393 29.01 20.6145 29.0221 20.6632 29.0434C20.8688 29.1337 20.9408 29.3991 20.8275 29.5954C20.7407 29.7457 20.5834 29.7725 20.4177 29.7731C20.083 29.7744 19.7482 29.7756 19.4134 29.7765Z" fill="#07448E"/>
</svg>
