<svg width="40" height="40" viewBox="0 0 40 40" fill="none" xmlns="http://www.w3.org/2000/svg">
<rect x="13.4" y="8.4" width="12.2" height="23.2" rx="1.6" fill="white" stroke="#07448E" stroke-width="0.8"/>
<path d="M17.4362 10.7696C17.2711 10.7696 17.1032 10.7104 17.0317 10.5493C16.999 10.4759 16.9916 10.3948 17.0095 10.3059C17.0574 10.0651 17.2599 10.0031 17.4786 10.0031C18.5204 10.0029 19.5622 10.0019 20.6041 10.0001C21.0655 9.99946 21.5269 10.0015 21.9881 10.0061C22.0064 10.0064 22.0381 10.0114 22.0833 10.0211C22.3223 10.0729 22.4207 10.3031 22.3499 10.5249C22.2821 10.738 22.0641 10.7688 21.874 10.7688C20.3947 10.7692 18.9155 10.7695 17.4362 10.7696Z" fill="#07448E"/>
<path d="M19.4134 29.7765C18.8672 29.7779 18.8674 29.0224 19.3836 29.0076C19.7346 28.9976 20.0859 28.9975 20.4375 29.0072C20.5393 29.01 20.6145 29.0221 20.6632 29.0434C20.8688 29.1337 20.9408 29.3991 20.8275 29.5954C20.7407 29.7457 20.5834 29.7725 20.4177 29.7731C20.083 29.7744 19.7482 29.7756 19.4134 29.7765Z" fill="#07448E"/>
<path d="M20.5459 19.3343L22.7059 19.3363C22.762 19.3365 22.817 19.3522 22.8647 19.3817C22.9125 19.4112 22.9511 19.4533 22.9764 19.5035C23.0016 19.5536 23.0125 19.6097 23.0079 19.6656C23.0032 19.7215 22.9831 19.7751 22.9499 19.8203C21.7579 21.455 20.5566 23.1116 19.3459 24.7903C19.2326 24.949 19.1092 25.0456 18.9759 25.0803C18.929 25.0927 18.8797 25.0927 18.8328 25.0805C18.7858 25.0682 18.7429 25.0441 18.7083 25.0104C18.6736 24.9767 18.6483 24.9347 18.6349 24.8884C18.6215 24.8421 18.6205 24.7931 18.6319 24.7463L19.5619 20.8683C19.5819 20.7883 19.5506 20.7483 19.4679 20.7483L17.3579 20.7503C17.2965 20.7503 17.2368 20.733 17.1859 20.7003C16.9566 20.5496 16.9319 20.3543 17.1119 20.1143C18.3532 18.453 19.5919 16.783 20.8279 15.1043C20.8507 15.073 20.8795 15.0467 20.9128 15.0269C20.946 15.0071 20.983 14.9942 21.0214 14.9889C21.0599 14.9837 21.099 14.9863 21.1366 14.9965C21.1741 15.0067 21.2092 15.0243 21.2399 15.0483C21.3599 15.1416 21.3919 15.2923 21.3359 15.5003C20.9999 16.7296 20.7059 17.9703 20.4539 19.2223C20.4392 19.297 20.4699 19.3343 20.5459 19.3343ZM20.0839 20.5623L19.3639 23.5663C19.2666 23.969 19.3406 24.0036 19.5859 23.6703L22.3939 19.8543C22.4002 19.846 22.4041 19.8362 22.4051 19.8258C22.4062 19.8155 22.4043 19.8051 22.3997 19.7957C22.3951 19.7864 22.3881 19.7785 22.3793 19.7729C22.3705 19.7674 22.3603 19.7644 22.3499 19.7643L20.2099 19.7603C20.1668 19.7603 20.1242 19.7506 20.0855 19.7317C20.0467 19.7129 20.0127 19.6855 19.9861 19.6515C19.9595 19.6176 19.941 19.5781 19.932 19.5359C19.9229 19.4938 19.9236 19.4502 19.9339 19.4083L20.7439 16.0963C20.746 16.0865 20.7447 16.0763 20.7403 16.0673C20.7358 16.0584 20.7284 16.0512 20.7193 16.047C20.7102 16.0428 20.7 16.0419 20.6903 16.0443C20.6806 16.0467 20.672 16.0523 20.6659 16.0603L17.6339 20.1783C17.5752 20.2583 17.5959 20.2983 17.6959 20.2983L19.8799 20.3043C19.9117 20.3044 19.9431 20.3116 19.9718 20.3255C20.0004 20.3393 20.0255 20.3594 20.0451 20.3843C20.0648 20.4091 20.0785 20.4381 20.0852 20.4689C20.0919 20.4998 20.0915 20.5317 20.0839 20.5623Z" fill="#00B9F5"/>
</svg>
