<svg width="40" height="40" viewBox="0 0 40 40" fill="none" xmlns="http://www.w3.org/2000/svg">
<path d="M8 20.7456C8.13049 20.4968 8.33327 20.4104 8.61444 20.4142C9.49643 20.4269 10.3789 20.4156 11.2609 20.4203C11.8345 20.4231 12.2644 20.6841 12.5297 21.1901C12.5991 21.3229 12.6714 21.36 12.8127 21.3591C13.8355 21.3534 14.8583 21.3591 15.8811 21.3549C16.4801 21.352 17.0382 21.4975 17.5588 21.789C18.3342 22.2228 19.1049 22.6654 19.8855 23.0897C20.0353 23.1709 20.2212 23.2221 20.3911 23.2245C21.312 23.2376 22.2334 23.2296 23.1549 23.231C24.3715 23.2324 25.162 24.0313 25.1484 25.2438C25.1479 25.2964 25.1484 25.3485 25.1484 25.4259C25.8619 25.1804 26.5528 24.9424 27.2438 24.7049C28.0169 24.4392 28.7871 24.1665 29.5635 23.9107C30.6854 23.5413 31.7293 24.1431 31.9654 25.2837C32.1292 26.0751 31.6997 26.9097 30.9201 27.258C29.2636 27.9977 27.6005 28.7243 25.9403 29.4561C24.672 30.0152 23.406 30.5808 22.1339 31.1309C20.1761 31.9777 18.2788 31.8355 16.4496 30.7474C15.6924 30.2968 14.9386 29.8406 14.1829 29.3871C13.6989 29.0966 13.1619 28.9802 12.6048 28.8985C12.3973 29.336 12.0847 29.6458 11.6087 29.7537C11.481 29.7828 11.3463 29.7899 11.2149 29.7903C10.3639 29.7936 9.51286 29.7819 8.66185 29.7979C8.38256 29.803 8.16335 29.7387 8.00094 29.5092L8 20.7456ZM12.6968 27.9597C13.5675 28.0555 14.3514 28.3484 15.0794 28.8182C15.7014 29.2196 16.344 29.5894 16.9823 29.9654C18.4863 30.8512 20.0569 30.9976 21.6641 30.3001C24.6076 29.0224 27.5395 27.718 30.4755 26.4224C30.9722 26.2032 31.1656 25.7545 30.983 25.2748C30.8182 24.842 30.3544 24.6416 29.8541 24.8138C27.8817 25.4926 25.913 26.1807 23.9411 26.8613C23.7876 26.9144 23.6247 26.9702 23.4656 26.9712C21.8105 26.9801 20.1554 26.9801 18.5004 26.9773C18.2398 26.9773 18.038 26.7623 18.0371 26.5154C18.0361 26.2708 18.2389 26.0624 18.4975 26.045C18.5675 26.0403 18.6379 26.0432 18.7083 26.0432C20.223 26.0432 21.7378 26.046 23.252 26.0418C23.9106 26.0399 24.3556 25.4367 24.1631 24.8227C24.0364 24.4191 23.6731 24.1717 23.1854 24.1698C22.2565 24.1665 21.3271 24.1609 20.3981 24.1726C20.0343 24.1773 19.7095 24.0919 19.3964 23.9112C18.667 23.4906 17.9277 23.0874 17.1983 22.6668C16.7537 22.4105 16.2806 22.2904 15.7694 22.2927C14.8245 22.2974 13.8801 22.2941 12.9352 22.2941H12.6958V27.9597H12.6968ZM8.94583 28.8548C9.69686 28.8548 10.4216 28.8548 11.1468 28.8548C11.5871 28.8548 11.7491 28.6906 11.7491 28.2427C11.7495 26.1511 11.7495 24.0595 11.7491 21.9684C11.7491 21.5276 11.581 21.3586 11.1402 21.3572C10.477 21.3553 9.81374 21.3563 9.15049 21.3572C9.08336 21.3572 9.01624 21.3661 8.94536 21.3708L8.94583 28.8548Z" fill="#07448E"/>
<path d="M28.1598 12.3618C27.8242 11.4564 27.2727 10.7729 26.4714 10.3782C25.9218 10.0904 25.3059 9.96419 24.6957 10.0087C23.6757 10.0548 22.8364 10.5753 22.1666 11.4728C22.1624 11.4784 22.1582 11.4845 22.1539 11.4902C22.0549 11.6183 21.9568 11.7474 21.8559 11.8722C21.755 11.7474 21.6568 11.6183 21.5578 11.4902C21.5536 11.4845 21.5494 11.4784 21.5451 11.4728C20.8762 10.5758 20.0365 10.0552 19.0165 10.0092C18.4063 9.96466 17.7904 10.0909 17.2408 10.3786C16.4395 10.7734 15.888 11.4564 15.5524 12.3623C15.105 13.5259 15.2313 14.7036 15.872 15.8602C16.3898 16.7948 17.1281 17.5515 17.9144 18.256C19.0714 19.2924 20.251 20.304 21.4226 21.324C21.5756 21.4568 21.7179 21.5164 21.8559 21.4995C21.9939 21.5164 22.1361 21.4568 22.2891 21.324C23.4612 20.304 24.6403 19.2929 25.7974 18.256C26.5836 17.5515 27.322 16.7948 27.8397 15.8602C28.4804 14.7036 28.6071 13.5254 28.1598 12.3618ZM27.4276 14.2342C27.3356 14.8905 27.0403 15.449 26.6578 15.9602C26.6254 15.9893 26.5939 16.0222 26.5639 16.0597C25.7387 17.0914 24.7192 17.9204 23.7241 18.7742C23.1495 19.2671 22.5679 19.7524 21.9892 20.2411C21.9474 20.2763 21.9042 20.3096 21.8563 20.3467C21.8085 20.3096 21.7648 20.2758 21.7235 20.2411C21.1447 19.7529 20.5636 19.2676 19.9886 18.7742C18.9935 17.9204 17.974 17.0919 17.1488 16.0597C17.1187 16.0222 17.0873 15.9893 17.0549 15.9602C16.6723 15.449 16.3771 14.8905 16.2851 14.2342C16.2161 13.7409 16.2565 13.257 16.3907 12.8185C16.4034 12.7805 16.4156 12.742 16.4283 12.704C16.4334 12.6895 16.4381 12.6749 16.4433 12.6608C16.4578 12.6219 16.4729 12.5834 16.4888 12.5454C16.4916 12.5388 16.494 12.5317 16.4973 12.5247C16.5165 12.4796 16.5367 12.4355 16.5578 12.3923C16.5616 12.3844 16.5658 12.3768 16.5696 12.3689C16.5893 12.3294 16.6094 12.2909 16.6306 12.2529C16.6324 12.2496 16.6339 12.2468 16.6357 12.244C16.8859 11.8028 17.2408 11.4634 17.6468 11.2433C17.8313 11.1456 18.0317 11.0701 18.2467 11.0212C18.4129 10.9832 18.5743 10.9612 18.7311 10.9532C19.2287 10.9424 19.7356 11.0916 20.1825 11.4249C20.2895 11.5047 20.389 11.5897 20.482 11.6793C20.5463 11.7483 20.6087 11.822 20.6692 11.9009C20.9584 12.2783 21.1588 12.728 21.3672 13.1607C21.371 13.1682 21.3747 13.1758 21.3785 13.1833C21.4747 13.4602 21.6207 13.5804 21.8512 13.5813C21.8526 13.5813 21.8545 13.5813 21.8559 13.5813C21.8573 13.5813 21.8587 13.5813 21.8606 13.5813C22.091 13.5804 22.2365 13.4602 22.3332 13.1833C22.337 13.1758 22.3408 13.1687 22.3445 13.1607C22.5525 12.728 22.7534 12.2778 23.0425 11.9009C23.1026 11.822 23.1655 11.7483 23.2298 11.6793C23.3227 11.5897 23.4222 11.5047 23.5293 11.4249C23.9761 11.0912 24.4831 10.9419 24.9806 10.9532C25.1374 10.9612 25.2989 10.9832 25.465 11.0212C25.68 11.0701 25.8805 11.1456 26.0649 11.2433C26.471 11.4634 26.8258 11.8028 27.076 12.244C27.0779 12.2473 27.0793 12.2501 27.0812 12.2529C27.1023 12.2909 27.1225 12.3294 27.1422 12.3689C27.1459 12.3768 27.1502 12.3844 27.1539 12.3923C27.175 12.4355 27.1952 12.4796 27.2145 12.5247C27.2173 12.5313 27.2201 12.5383 27.2229 12.5454C27.2389 12.5834 27.2539 12.6214 27.2685 12.6608C27.2736 12.6749 27.2783 12.6895 27.2835 12.704C27.2962 12.742 27.3084 12.7805 27.321 12.8185C27.4553 13.257 27.4961 13.7409 27.4266 14.2342H27.4276Z" fill="#00B9F5"/>
<path d="M10.8096 22.763C10.8106 23.031 10.6078 23.231 10.3379 23.2296C10.0694 23.2277 9.87039 23.0235 9.87508 22.7546C9.87978 22.5011 10.0826 22.2988 10.3351 22.295C10.5979 22.2913 10.8087 22.4992 10.8096 22.763Z" fill="#07448E"/>
</svg>
