<svg width="40" height="40" viewBox="0 0 40 40" fill="none" xmlns="http://www.w3.org/2000/svg">
<path d="M8.00313 25.5958C8.04258 25.4862 8.07703 25.3753 8.12149 25.2682C8.36822 24.6727 8.93996 24.2888 9.58685 24.2851C9.89119 24.2832 10.1949 24.2851 10.535 24.2851C10.535 24.193 10.535 24.111 10.535 24.0289C10.535 23.4271 10.5324 22.826 10.5356 22.2242C10.5393 21.5341 11.0641 21.0055 11.7504 21.0037C13.1018 21.0005 14.4532 21.0024 15.8052 21.0037C16.1472 21.0037 16.3501 21.1846 16.345 21.479C16.3407 21.7626 16.1403 21.938 15.8115 21.938C14.5146 21.9392 13.2177 21.938 11.9208 21.938C11.5507 21.938 11.4705 22.0194 11.4705 22.392C11.4705 23.0151 11.4705 23.6376 11.4705 24.2719H19.5369C19.5369 24.1918 19.5369 24.1097 19.5369 24.0277C19.5369 23.4184 19.5357 22.8091 19.5375 22.1997C19.5388 21.8622 19.7248 21.6556 20.0166 21.6593C20.3009 21.6631 20.4744 21.8591 20.4756 22.1916C20.4787 22.8779 20.4762 23.5643 20.4762 24.2669H28.5176C28.5226 24.2187 28.5338 24.1598 28.5338 24.101C28.5351 23.5148 28.5357 22.9293 28.5338 22.3432C28.5332 22.0338 28.4387 21.9386 28.1281 21.9386C26.8311 21.9374 25.5342 21.9386 24.2373 21.9374C24.1522 21.9374 24.0632 21.9392 23.9825 21.9161C23.7645 21.8528 23.6337 21.6361 23.6612 21.4063C23.6881 21.1828 23.8704 21.0062 24.1077 21.0055C25.5292 21.0018 26.9514 20.993 28.3729 21.0105C28.9616 21.0181 29.4613 21.576 29.4675 22.1785C29.4738 22.7953 29.4694 23.4127 29.4694 24.0302C29.4694 24.1066 29.4694 24.1824 29.4694 24.2838C29.7919 24.2838 30.0944 24.2826 30.3962 24.2838C31.303 24.2882 32.0025 24.9871 32 25.8851C31.9981 26.7668 31.2955 27.4675 30.4012 27.4682C27.6672 27.4707 24.9324 27.4694 22.1984 27.4682C21.8527 27.4682 21.6466 27.2941 21.6435 27.0048C21.641 26.7067 21.8489 26.5326 22.2121 26.5326C24.8842 26.5326 27.5557 26.5326 30.2278 26.5326C30.7432 26.5326 31.0556 26.2877 31.0607 25.8819C31.0663 25.4768 30.7482 25.2188 30.2403 25.2188C23.4126 25.2188 16.5843 25.2188 9.75656 25.2206C9.62567 25.2206 9.48916 25.2325 9.36517 25.2714C9.11029 25.3515 8.93432 25.6208 8.93933 25.8851C8.94434 26.1431 9.11593 26.4017 9.36078 26.4781C9.49166 26.5188 9.63695 26.5307 9.77534 26.5307C12.4161 26.5338 15.0563 26.5326 17.6971 26.5326C17.7672 26.5326 22.8584 26.5301 22.9285 26.5338C23.1966 26.5482 23.38 26.7399 23.3794 27.0022C23.3788 27.264 23.1947 27.4606 22.9248 27.4657C22.519 27.4732 17.0915 27.4682 16.6851 27.4682C14.3724 27.4682 12.0604 27.4682 9.74779 27.4682C8.83037 27.4682 8.31436 27.0912 8.03444 26.217C8.02755 26.195 8.01127 26.1763 8 26.1562C8 25.969 8 25.7811 8 25.5939L8.00313 25.5958Z" fill="#07448E"/>
<path d="M22.6375 14.304C22.6455 14.3115 22.6534 14.319 22.6612 14.3266C22.8816 14.5432 23.0575 14.7933 23.1934 15.0699C23.609 15.9162 23.695 16.7742 23.2971 17.646C23.0606 18.1639 22.675 18.5618 22.2153 18.8979C22.1416 18.9518 22.0897 19.0149 22.0694 19.0841C22.0484 19.1554 22.063 19.2268 22.1102 19.2889M22.6375 14.304L22.1102 19.2889L22.6375 14.304ZM22.6375 14.304C22.6351 14.325 22.6327 14.3462 22.6303 14.3675C22.6176 14.4801 22.6045 14.5967 22.5763 14.7072C22.4298 15.2782 21.9314 15.617 21.3004 15.6M22.6375 14.304L19.664 9.79821C19.6706 9.82875 19.6773 9.85896 19.684 9.88892C19.7096 10.0032 19.7344 10.114 19.7457 10.2262M22.1102 19.2889C22.156 19.3495 22.2177 19.3872 22.2908 19.3893C22.3623 19.3913 22.4354 19.359 22.5053 19.2995M22.1102 19.2889L22.5053 19.2995L22.1102 19.2889ZM21.3004 15.6C20.7717 15.5859 20.2914 15.1888 20.1844 14.666C20.1243 14.3725 20.2025 14.0995 20.3393 13.8513C20.4306 13.6855 20.53 13.5203 20.6452 13.3678C20.9219 13.0026 21.0583 12.6302 21.0775 12.2516C21.0968 11.8725 20.999 11.4835 20.8019 11.0856C20.5516 10.5797 20.1852 10.1735 19.7247 9.84119C19.7271 9.85225 19.7296 9.86332 19.7321 9.87438C19.758 9.99029 19.7839 10.1059 19.7954 10.2212M19.7954 10.2212L19.7457 10.2262L19.7954 10.2212ZM19.7954 10.2212L19.7457 10.2262L19.7954 10.2212ZM19.7954 10.2212C19.8546 10.8063 19.6512 11.3193 19.3555 11.7971C19.0302 12.3232 18.6196 12.7803 18.2126 13.2334C18.1677 13.2834 18.1228 13.3333 18.0781 13.3833C17.6704 13.8394 17.2667 14.2924 16.9247 14.7978C16.5745 15.3156 16.4294 15.8288 16.4464 16.3387C16.4635 16.8493 16.6432 17.3604 16.9489 17.8725C17.2067 18.3044 17.5598 18.6511 17.9994 18.9052C18.0692 18.9456 18.1197 18.9992 18.1427 19.0627C18.166 19.1272 18.1586 19.1958 18.1235 19.2596C18.0874 19.325 18.0315 19.3686 17.9618 19.3814C17.8935 19.3941 17.819 19.3759 17.7457 19.3328C17.0867 18.9445 16.6096 18.391 16.2865 17.7052C16.0246 17.149 15.914 16.5592 15.9601 15.9467C15.9965 15.4635 16.1925 15.034 16.4406 14.633C16.7784 14.0865 17.2043 13.6111 17.627 13.1393C17.6558 13.1071 17.6846 13.075 17.7134 13.0428C17.7589 12.9919 17.8046 12.9412 17.8502 12.8905C18.2412 12.4558 18.6286 12.0249 18.9355 11.5293C19.1315 11.2124 19.28 10.8829 19.3059 10.5117C19.3328 10.1227 19.2026 9.78058 18.9786 9.46308C18.9661 9.4454 18.953 9.428 18.9394 9.40988C18.9259 9.39207 18.9118 9.37324 18.8983 9.35419C18.8983 9.35418 18.8983 9.3542 18.8983 9.35419L18.9392 9.32534C18.8806 9.24242 18.8734 9.15719 18.9402 9.07657L19.7457 10.2262M20.9859 13.6573L21.0256 13.6877C20.8958 13.8575 20.7838 14.0495 20.7067 14.2473C20.6059 14.5058 20.6889 14.7362 20.8521 14.8948C21.0173 15.0553 21.2607 15.1378 21.4698 15.0981C21.701 15.0543 21.8737 14.9557 21.9845 14.8136C22.0953 14.6716 22.1485 14.4807 22.1305 14.2438C22.123 14.1449 22.1045 14.047 22.0853 13.9461C22.0815 13.9261 22.0777 13.9059 22.0739 13.8855C22.0566 13.791 22.0462 13.6758 22.1509 13.5897C22.2006 13.5491 22.2534 13.5324 22.3076 13.5338C22.3598 13.5353 22.4101 13.5534 22.4566 13.5756C22.9159 13.7952 23.2306 14.1623 23.4852 14.5768L20.9859 13.6573ZM20.9859 13.6573L21.0256 13.6877C21.4805 13.0925 21.6884 12.4285 21.5263 11.6852C21.2392 10.3678 20.3865 9.52302 19.2036 8.97656L20.9859 13.6573ZM22.5053 19.2995C22.5474 19.2636 22.5899 19.2277 22.6326 19.1917C22.8315 19.024 23.0337 18.8535 23.2112 18.6612L23.1744 18.6273M22.5053 19.2995L23.1744 18.6273L22.5053 19.2995ZM23.1744 18.6273L23.2112 18.6612C23.6783 18.155 23.9584 17.5504 24.0303 16.8619C24.1165 16.0377 23.9151 15.2762 23.4852 14.5768L23.1744 18.6273Z" fill="#00B9F5"/>
<path d="M22.6375 14.304C22.6455 14.3115 22.6534 14.319 22.6612 14.3266C22.8816 14.5432 23.0575 14.7933 23.1934 15.0699C23.609 15.9162 23.695 16.7742 23.2971 17.646C23.0606 18.1639 22.675 18.5618 22.2153 18.8979C22.1416 18.9518 22.0897 19.0149 22.0694 19.0841C22.0484 19.1554 22.063 19.2268 22.1102 19.2889M22.6375 14.304L22.1102 19.2889M22.6375 14.304C22.6351 14.325 22.6327 14.3462 22.6303 14.3675C22.6176 14.4801 22.6045 14.5967 22.5763 14.7072C22.4298 15.2782 21.9314 15.617 21.3004 15.6M22.6375 14.304L19.664 9.79821C19.6706 9.82875 19.6773 9.85896 19.684 9.88892C19.7096 10.0032 19.7344 10.114 19.7457 10.2262M22.1102 19.2889C22.156 19.3495 22.2177 19.3872 22.2908 19.3893C22.3623 19.3913 22.4354 19.359 22.5053 19.2995M22.1102 19.2889L22.5053 19.2995M21.3004 15.6L21.3018 15.55M21.3004 15.6C20.7717 15.5859 20.2914 15.1888 20.1844 14.666C20.1243 14.3725 20.2025 14.0995 20.3393 13.8513C20.4306 13.6855 20.53 13.5203 20.6452 13.3678C20.9219 13.0026 21.0583 12.6302 21.0775 12.2516C21.0968 11.8725 20.999 11.4835 20.8019 11.0856C20.5516 10.5797 20.1852 10.1735 19.7247 9.84119C19.7271 9.85225 19.7296 9.86332 19.7321 9.87438C19.758 9.99029 19.7839 10.1059 19.7954 10.2212M19.7457 10.2262L19.7954 10.2212M19.7457 10.2262L18.9402 9.07657C18.8734 9.15719 18.8806 9.24242 18.9392 9.32534L18.8983 9.35419M22.5053 19.2995C22.5474 19.2636 22.5899 19.2277 22.6326 19.1917C22.8315 19.024 23.0337 18.8535 23.2112 18.6612M22.5053 19.2995L23.1744 18.6273M19.7954 10.2212C19.8546 10.8063 19.6512 11.3193 19.3555 11.7971C19.0302 12.3232 18.6196 12.7803 18.2126 13.2334C18.1677 13.2834 18.1228 13.3333 18.0781 13.3833C17.6704 13.8394 17.2667 14.2924 16.9247 14.7978C16.5745 15.3156 16.4294 15.8288 16.4464 16.3387C16.4635 16.8493 16.6432 17.3604 16.9489 17.8725C17.2067 18.3044 17.5598 18.6511 17.9994 18.9052C18.0692 18.9456 18.1197 18.9992 18.1427 19.0627C18.166 19.1272 18.1586 19.1958 18.1235 19.2596M18.1235 19.2596L18.0797 19.2354M18.1235 19.2596C18.0874 19.325 18.0315 19.3686 17.9618 19.3814C17.8935 19.3941 17.819 19.3759 17.7457 19.3328C17.0867 18.9445 16.6096 18.391 16.2865 17.7052C16.0246 17.149 15.914 16.5592 15.9601 15.9467C15.9965 15.4635 16.1925 15.034 16.4406 14.633C16.7784 14.0865 17.2043 13.6111 17.627 13.1393C17.6558 13.1071 17.6846 13.075 17.7134 13.0428C17.7589 12.9919 17.8046 12.9412 17.8502 12.8905C18.2412 12.4558 18.6286 12.0249 18.9355 11.5293C19.1315 11.2124 19.28 10.8829 19.3059 10.5117C19.3328 10.1227 19.2026 9.78058 18.9786 9.46308C18.9661 9.4454 18.953 9.428 18.9394 9.40988C18.9259 9.39207 18.9118 9.37324 18.8983 9.35419M18.8983 9.35419C18.8983 9.35418 18.8983 9.3542 18.8983 9.35419ZM20.9859 13.6573L21.0256 13.6877M20.9859 13.6573L23.4852 14.5768M20.9859 13.6573L19.2036 8.97656C20.3865 9.52302 21.2392 10.3678 21.5263 11.6852C21.6884 12.4285 21.4805 13.0925 21.0256 13.6877M21.0256 13.6877C20.8958 13.8575 20.7838 14.0495 20.7067 14.2473C20.6059 14.5058 20.6889 14.7362 20.8521 14.8948C21.0173 15.0553 21.2607 15.1378 21.4698 15.0981C21.701 15.0543 21.8737 14.9557 21.9845 14.8136C22.0953 14.6716 22.1485 14.4807 22.1305 14.2438C22.123 14.1449 22.1045 14.047 22.0853 13.9461C22.0815 13.9261 22.0777 13.9059 22.0739 13.8855C22.0566 13.791 22.0462 13.6758 22.1509 13.5897C22.2006 13.5491 22.2534 13.5324 22.3076 13.5338C22.3598 13.5353 22.4101 13.5534 22.4566 13.5756C22.9159 13.7952 23.2306 14.1623 23.4852 14.5768M23.4852 14.5768C23.9151 15.2762 24.1165 16.0377 24.0303 16.8619C23.9584 17.5504 23.6783 18.155 23.2112 18.6612M23.4852 14.5768L23.1744 18.6273M23.2112 18.6612L23.1744 18.6273" stroke="#00B9F5" stroke-width="0.1"/>
<path d="M19.2038 18.9248C19.2161 18.9398 19.2303 18.9532 19.2444 18.9666C19.2601 18.9815 19.2758 18.9963 19.289 19.0133M19.2038 18.9248L18.1073 17.7349C18.1699 18.396 18.5532 18.8741 19.0234 19.2973C19.106 19.3716 19.2199 19.3545 19.2873 19.2719C19.3554 19.1883 19.3561 19.0988 19.289 19.0133M19.2038 18.9248C19.1549 18.8656 19.1046 18.8073 19.0542 18.7491C18.9355 18.6117 18.8166 18.4743 18.7177 18.3239L19.2038 18.9248ZM19.289 19.0133L19.3283 18.9824C19.3671 19.032 19.3893 19.0865 19.3889 19.1437C19.3885 19.201 19.3657 19.2549 19.3261 19.3035C19.2427 19.4056 19.0963 19.4301 18.99 19.3344M19.289 19.0133L18.99 19.3344L19.289 19.0133ZM18.99 19.3344C18.5165 18.9083 18.1219 18.4194 18.0576 17.7396C18.0317 17.4639 18.1109 17.2068 18.2161 16.9644C18.2286 16.9354 18.2414 16.9067 18.254 16.878C18.2957 16.7829 18.3369 16.689 18.3748 16.5934C18.4914 16.2999 18.512 16.0017 18.4192 15.7C18.4033 15.6485 18.397 15.5969 18.4073 15.5471C18.4177 15.4963 18.4446 15.4517 18.4877 15.4133M18.99 19.3344L19.6439 16.2438C19.4527 15.8655 19.176 15.5673 18.7831 15.3858C18.7369 15.3645 18.687 15.3498 18.6358 15.3517C18.5833 15.3536 18.533 15.3728 18.4877 15.4133M21.9237 18.0662C21.979 17.7153 21.9457 17.3616 21.8175 17.0235L21.9237 18.0662ZM21.9237 18.0662L21.8175 17.0235L21.9237 18.0662ZM21.1338 19.3585C21.0682 19.3898 21.0003 19.3973 20.9389 19.3793C20.8772 19.3613 20.8263 19.3189 20.7933 19.2588C20.7602 19.1984 20.7516 19.1314 20.7709 19.0692C20.7903 19.007 20.8363 18.9545 20.9031 18.9201C21.2422 18.7461 21.3636 18.4376 21.4249 18.0751L21.1338 19.3585ZM21.1338 19.3585C21.3876 19.2374 21.596 19.0511 21.7074 18.7904L21.1338 19.3585ZM21.5739 16.8537C21.514 16.8553 21.4631 16.8733 21.4227 16.9074C21.3828 16.941 21.3569 16.987 21.3407 17.0383L21.5739 16.8537ZM21.5739 16.8537C21.6325 16.8522 21.6841 16.8662 21.7267 16.8971C21.7688 16.9278 21.7979 16.9719 21.8175 17.0235M21.5739 16.8537L21.8175 17.0235L21.5739 16.8537ZM21.2603 18.1091C21.3231 18.0616 21.3808 18.0039 21.4404 17.9436L19.2137 16.5037C19.3749 16.813 19.4148 17.1538 19.4282 17.5071C19.4354 17.6945 19.4856 17.8584 19.5786 17.9942C19.6717 18.13 19.8056 18.2351 19.9761 18.308C20.4428 18.5075 20.8739 18.402 21.2603 18.1091ZM18.7595 18.2964C18.5174 17.9274 18.4885 17.5371 18.6863 17.1313C18.8386 16.8194 18.9569 16.4918 18.984 16.1372C18.999 16.16 19.014 16.1824 19.029 16.2048C19.0952 16.3037 19.1597 16.4001 19.2137 16.5037L18.7595 18.2964ZM20.1376 17.8335C20.0007 17.7536 19.9022 17.6033 19.9128 17.3573L21.3026 17.1801C21.19 17.5247 20.9909 17.7766 20.6371 17.8784C20.4659 17.9275 20.2778 17.9154 20.1376 17.8335Z" fill="#00B9F5"/>
<path d="M19.2038 18.9248C19.2161 18.9398 19.2303 18.9532 19.2444 18.9666C19.2601 18.9815 19.2758 18.9963 19.289 19.0133M19.2038 18.9248L18.1073 17.7349C18.1699 18.396 18.5532 18.8741 19.0234 19.2973C19.106 19.3716 19.2199 19.3545 19.2873 19.2719C19.3554 19.1883 19.3561 19.0988 19.289 19.0133M19.2038 18.9248C19.1549 18.8656 19.1046 18.8073 19.0542 18.7491C18.9355 18.6117 18.8166 18.4743 18.7177 18.3239L19.2038 18.9248ZM19.289 19.0133L19.3283 18.9824C19.3671 19.032 19.3893 19.0865 19.3889 19.1437C19.3885 19.201 19.3657 19.2549 19.3261 19.3035C19.2427 19.4056 19.0963 19.4301 18.99 19.3344M19.289 19.0133L18.99 19.3344M18.99 19.3344C18.5165 18.9083 18.1219 18.4194 18.0576 17.7396C18.0317 17.4639 18.1109 17.2068 18.2161 16.9644C18.2286 16.9354 18.2414 16.9067 18.254 16.878C18.2957 16.7829 18.3369 16.689 18.3748 16.5934C18.4914 16.2999 18.512 16.0017 18.4192 15.7C18.4033 15.6485 18.397 15.5969 18.4073 15.5471C18.4177 15.4963 18.4446 15.4517 18.4877 15.4133M18.99 19.3344L19.6439 16.2438C19.4527 15.8655 19.176 15.5673 18.7831 15.3858C18.7369 15.3645 18.687 15.3498 18.6358 15.3517C18.5833 15.3536 18.533 15.3728 18.4877 15.4133M18.4877 15.4133L18.521 15.4506M21.8175 17.0235C21.9457 17.3616 21.979 17.7153 21.9237 18.0662L21.8175 17.0235ZM21.8175 17.0235C21.7979 16.9719 21.7688 16.9278 21.7267 16.8971C21.6841 16.8662 21.6325 16.8522 21.5739 16.8537M21.8175 17.0235L21.5739 16.8537M21.1338 19.3585C21.0682 19.3898 21.0003 19.3973 20.9389 19.3793C20.8772 19.3613 20.8263 19.3189 20.7933 19.2588C20.7602 19.1984 20.7516 19.1314 20.7709 19.0692C20.7903 19.007 20.8363 18.9545 20.9031 18.9201C21.2422 18.7461 21.3636 18.4376 21.4249 18.0751L21.1338 19.3585ZM21.1338 19.3585C21.3876 19.2374 21.596 19.0511 21.7074 18.7904L21.1338 19.3585ZM21.5739 16.8537C21.514 16.8553 21.4631 16.8733 21.4227 16.9074C21.3828 16.941 21.3569 16.987 21.3407 17.0383L21.5739 16.8537ZM19.2137 16.5037L21.4404 17.9436C21.3808 18.0039 21.3231 18.0616 21.2603 18.1091C20.8739 18.402 20.4428 18.5075 19.9761 18.308C19.8056 18.2351 19.6717 18.13 19.5786 17.9942C19.4856 17.8584 19.4354 17.6945 19.4282 17.5071C19.4148 17.1538 19.3749 16.813 19.2137 16.5037ZM19.2137 16.5037C19.1597 16.4001 19.0952 16.3037 19.029 16.2048C19.014 16.1824 18.999 16.16 18.984 16.1372C18.9569 16.4918 18.8386 16.8194 18.6863 17.1313C18.4885 17.5371 18.5174 17.9274 18.7595 18.2964L19.2137 16.5037ZM20.1376 17.8335C20.0007 17.7536 19.9022 17.6033 19.9128 17.3573L21.3026 17.1801C21.19 17.5247 20.9909 17.7766 20.6371 17.8784C20.4659 17.9275 20.2778 17.9154 20.1376 17.8335Z" stroke="#00B9F5" stroke-width="0.1"/>
</svg>
