<svg width="40" height="40" viewBox="0 0 40 40" fill="none" xmlns="http://www.w3.org/2000/svg">
<path d="M12.0007 10.405C12.0007 10.1105 11.9987 9.84534 12.0007 9.58019C12.0094 8.70057 12.7173 8.00463 13.6009 8.0053C14.4832 8.0053 15.1885 8.70258 15.1972 9.58419C15.1999 9.84868 15.1972 10.1138 15.1972 10.3917H18.3991C18.3991 10.1432 18.3984 9.88875 18.3991 9.63429C18.4024 8.79207 18.9995 8.0988 19.7956 8.01064C20.6512 7.91647 21.416 8.45546 21.5642 9.30902C21.6243 9.65432 21.5742 10.0197 21.5742 10.3903H24.7975C24.7975 10.1172 24.7955 9.85269 24.7975 9.5882C24.8055 8.70592 25.5088 8.0073 26.3904 8.00596C27.2754 8.00463 27.9847 8.69857 27.994 9.57685C27.9967 9.842 27.994 10.1078 27.994 10.405C28.4148 10.405 28.8202 10.3984 29.225 10.407C29.6317 10.4151 30.0471 10.3903 30.4432 10.4638C31.3348 10.6294 31.9907 11.4516 31.9914 12.3586C31.9954 15.8163 31.9934 19.2746 31.9927 22.7323C31.9927 23.0302 31.8444 23.1998 31.5953 23.2012C31.3455 23.2019 31.1959 23.0315 31.1959 22.735C31.1946 20.6017 31.1959 18.4692 31.1959 16.3359V16.0207H8.7968V16.2865C8.7968 20.2691 8.7968 24.2524 8.7968 28.2351C8.7968 29.1227 9.28168 29.6029 10.1767 29.6029C13.7846 29.6029 17.3926 29.6029 21.0005 29.6029C21.084 29.6029 21.1682 29.5969 21.2503 29.6069C21.4527 29.631 21.5943 29.796 21.5949 29.9997C21.5963 30.2034 21.4567 30.3697 21.255 30.3964C21.1815 30.4064 21.1054 30.4004 21.0306 30.4004C17.3892 30.4004 13.7479 30.4004 10.1072 30.4004C8.83754 30.4004 8 29.5595 8 28.2852C8 23.0275 8 17.7699 8 12.5122C8 11.2419 8.84021 10.4057 10.1152 10.405C10.731 10.405 11.3475 10.405 12.0007 10.405ZM8.80347 15.1885H31.1939C31.1939 14.2247 31.2133 13.2763 31.1866 12.3292C31.1705 11.7595 30.7658 11.3241 30.1987 11.2366C29.8648 11.1851 29.5182 11.2078 29.1775 11.2038C28.7895 11.1992 28.4008 11.2025 27.974 11.2025C27.974 11.5905 28.0247 11.9559 27.964 12.3018C27.813 13.1554 27.045 13.6951 26.1941 13.5969C25.3959 13.5047 24.8028 12.8141 24.7995 11.9719C24.7988 11.7174 24.7995 11.4636 24.7995 11.2172H21.5983C21.5983 11.4536 21.601 11.6767 21.5976 11.8998C21.5956 12.0327 21.601 12.1689 21.5749 12.2978C21.4033 13.1461 20.6559 13.6904 19.8017 13.5982C19.0049 13.5121 18.4044 12.8188 18.4011 11.9793C18.3998 11.7248 18.4011 11.4703 18.4011 11.2245H15.1992C15.1992 11.4944 15.2005 11.7442 15.1992 11.994C15.1939 12.8989 14.4986 13.6016 13.609 13.6036C12.704 13.6056 12.0067 12.9036 12.002 11.9859C12.0007 11.7308 12.002 11.4757 12.002 11.2045C11.8972 11.2045 11.823 11.2045 11.7495 11.2045C11.1418 11.2058 10.5326 11.1851 9.9262 11.2145C9.31575 11.2439 8.83152 11.7161 8.81282 12.3259C8.7841 13.2736 8.80548 14.2227 8.80548 15.1898L8.80347 15.1885ZM14.4004 10.7931C14.4004 10.411 14.4058 10.0283 14.3991 9.64631C14.3911 9.16275 14.0404 8.80142 13.5943 8.80476C13.1448 8.8081 12.8035 9.16609 12.8001 9.65499C12.7948 10.4197 12.7955 11.1845 12.8001 11.9492C12.8035 12.4368 13.1434 12.7974 13.5916 12.8034C14.0458 12.8094 14.3937 12.4408 14.3997 11.9405C14.4044 11.5585 14.4004 11.1751 14.4004 10.7931ZM19.1986 10.8118C19.1986 11.1938 19.1939 11.5765 19.1999 11.9586C19.2072 12.4421 19.5552 12.8048 20.0014 12.8034C20.4482 12.8021 20.7948 12.4414 20.7988 11.9552C20.8048 11.1905 20.8042 10.4257 20.7988 9.661C20.7955 9.1721 20.4575 8.81211 20.0094 8.80476C19.5532 8.79742 19.2052 9.16342 19.1992 9.66501C19.1952 10.047 19.1986 10.4297 19.1986 10.8118ZM27.1992 10.7931C27.1992 10.411 27.2046 10.0283 27.1979 9.64631C27.1899 9.16275 26.8392 8.80142 26.3931 8.80476C25.9436 8.80877 25.6023 9.16676 25.599 9.65499C25.5936 10.4197 25.5943 11.1845 25.599 11.9492C25.6023 12.4368 25.9429 12.7974 26.3904 12.8034C26.8446 12.8094 27.1926 12.4408 27.1986 11.9399C27.2032 11.5578 27.1992 11.1751 27.1992 10.7931Z" fill="#07448E"/>
<path d="M26.8035 31.9999C23.8942 31.9972 21.5946 29.6756 21.5986 26.7442C21.6026 23.8984 23.9469 21.5995 26.8409 21.6035C29.6801 21.6075 32.0017 23.9518 31.9951 26.8084C31.9884 29.6823 29.6687 32.0026 26.8035 31.9999ZM26.7922 31.2018C29.1725 31.2178 31.1735 29.2402 31.1963 26.8498C31.2196 24.4313 29.2413 22.4116 26.8396 22.4023C24.3971 22.3923 22.4141 24.3519 22.3988 26.7903C22.3834 29.1981 24.3637 31.1857 26.7922 31.2018Z" fill="#00B9F5"/>
<path d="M12.8031 20.8011C12.5366 20.8011 12.2701 20.8045 12.003 20.8011C11.5388 20.7945 11.2055 20.4598 11.2015 19.9937C11.1975 19.5936 11.1968 19.1935 11.2015 18.7941C11.2075 18.3426 11.5421 18.01 11.995 18.006C12.5366 18.0013 13.0783 18 13.6199 18.006C14.0541 18.0114 14.39 18.3506 14.3967 18.7868C14.4027 19.2035 14.404 19.6203 14.396 20.0364C14.388 20.4572 14.0501 20.7905 13.628 20.8005C13.3535 20.8072 13.0783 20.8011 12.8031 20.8011ZM12.009 19.985H13.5879V18.8162H12.009V19.985Z" fill="#07448E"/>
<path d="M17.5982 20.8019C17.3397 20.8019 17.0819 20.8039 16.8234 20.8019C16.3398 20.7972 16.0046 20.468 16.0006 19.9898C15.9972 19.5984 15.9972 19.2063 16.0006 18.8149C16.0046 18.3454 16.3338 18.0095 16.7987 18.0054C17.3317 18.0008 17.8653 18.0008 18.3983 18.0054C18.8618 18.0095 19.1924 18.3467 19.1964 18.8156C19.1998 19.207 19.2004 19.599 19.1964 19.9904C19.1917 20.4706 18.8591 20.7966 18.3729 20.8012C18.1144 20.8039 17.8566 20.8019 17.5982 20.8019ZM16.8134 18.8069V19.9857H18.3789V18.8069H16.8134Z" fill="#07448E"/>
<path d="M22.3915 20.8018C22.125 20.8018 21.8585 20.8059 21.5914 20.8018C21.1405 20.7945 20.8053 20.4606 20.7999 20.0097C20.7952 19.6016 20.7939 19.1929 20.7999 18.7848C20.8066 18.3487 21.1419 18.0114 21.578 18.0067C22.1277 18.0007 22.678 18 23.2277 18.0067C23.6485 18.0127 23.9864 18.3514 23.9938 18.7721C24.0011 19.1969 24.0025 19.6223 23.9938 20.0465C23.9851 20.4532 23.6478 20.7878 23.2411 20.7998C22.9579 20.8085 22.6747 20.8012 22.3915 20.8018ZM21.6181 18.8082V19.9877H23.1796V18.8082H21.6181Z" fill="#07448E"/>
<path d="M27.1923 18.0046C27.4675 18.0046 27.742 17.9999 28.0172 18.0053C28.4513 18.014 28.7879 18.3499 28.7946 18.786C28.8006 19.2028 28.8019 19.6196 28.7946 20.0357C28.7866 20.4564 28.4493 20.7937 28.0272 20.7997C27.4775 20.8071 26.9272 20.8064 26.3775 20.7997C25.9434 20.7944 25.6067 20.4544 25.6007 20.019C25.5947 19.6022 25.5934 19.1854 25.6007 18.7693C25.6087 18.3479 25.9454 18.0153 26.3675 18.0053C26.642 17.9986 26.9171 18.0046 27.1923 18.0046ZM27.9784 19.9943V18.8148H26.4115V19.9943H27.9784Z" fill="#07448E"/>
<path d="M12.7958 21.6033C13.071 21.6033 13.3455 21.5986 13.6207 21.6046C14.0548 21.6133 14.3908 21.9499 14.3974 22.3861C14.4035 22.7941 14.4028 23.2029 14.3974 23.611C14.3914 24.0611 14.0555 24.3957 13.6033 24.3998C13.0703 24.4051 12.5367 24.4044 12.0037 24.3998C11.5395 24.3957 11.2063 24.0591 11.2022 23.5923C11.1989 23.1922 11.1976 22.7921 11.2022 22.3927C11.2083 21.9412 11.5429 21.6113 11.9964 21.604C12.2629 21.5999 12.5286 21.6026 12.7958 21.6033ZM13.5813 23.5929V22.4134H12.0144V23.5929H13.5813Z" fill="#07448E"/>
<path d="M17.6124 21.6031C17.8789 21.6031 18.1453 21.5991 18.4125 21.6038C18.8493 21.6118 19.1893 21.9444 19.1959 22.3778C19.2026 22.7946 19.2033 23.2115 19.1959 23.6276C19.1886 24.0604 18.848 24.3943 18.4098 24.399C17.8682 24.4043 17.3265 24.405 16.7855 24.399C16.3487 24.3943 16.0094 24.0576 16.0021 23.6241C15.9954 23.2074 15.9954 22.7907 16.0021 22.3746C16.0094 21.9405 16.3487 21.6111 16.7882 21.6038C17.0634 21.5991 17.3373 21.6031 17.6124 21.6031ZM16.8082 23.5901H18.3845V22.4186H16.8082V23.5901Z" fill="#07448E"/>
<path d="M12.7743 28.0022C12.5245 28.0022 12.2741 28.0043 12.0243 28.0022C11.54 27.9976 11.2054 27.669 11.2007 27.1907C11.1974 26.7994 11.1974 26.4073 11.2007 26.0159C11.2048 25.5344 11.536 25.2078 12.0236 25.2052C12.5399 25.2024 13.0568 25.2024 13.5731 25.2052C14.0573 25.2078 14.3926 25.537 14.3973 26.0153C14.4013 26.4066 14.4013 26.7987 14.3973 27.1901C14.3926 27.671 14.06 27.9969 13.5744 28.0016C13.308 28.0042 13.0415 28.0022 12.7743 28.0022ZM13.5878 26.0166H12.0149V27.1854H13.5878V26.0166Z" fill="#07448E"/>
<path d="M17.6124 25.2028C17.8789 25.2028 18.1453 25.1988 18.4125 25.2035C18.8493 25.2115 19.1893 25.5441 19.1966 25.9776C19.2033 26.3943 19.204 26.8111 19.1966 27.2272C19.1893 27.6607 18.8486 27.9939 18.4105 27.9986C17.8688 28.004 17.3272 28.0046 16.7855 27.9986C16.3487 27.9939 16.0088 27.6573 16.0021 27.2245C15.9954 26.8078 15.9954 26.391 16.0021 25.9749C16.0094 25.5408 16.348 25.2115 16.7875 25.2035C17.0627 25.1988 17.3372 25.2028 17.6124 25.2028ZM18.3791 27.1931V26.0143H16.8142V27.1931H18.3791Z" fill="#07448E"/>
<path d="M21.6091 22.4011V23.5766C21.6646 23.5993 21.7267 23.6187 21.7828 23.6487C21.9598 23.7429 22.0292 23.8992 21.9878 24.0876C21.9464 24.2766 21.8175 24.3861 21.6178 24.4001C21.2204 24.4288 20.819 24.0896 20.805 23.6841C20.789 23.2266 20.789 22.7678 20.805 22.311C20.8183 21.9436 21.1556 21.6164 21.525 21.6077C22.0827 21.595 22.6404 21.5997 23.1981 21.6057C23.4352 21.6083 23.5928 21.774 23.5954 21.9964C23.5988 22.2301 23.4372 22.3971 23.1847 22.3998C22.6691 22.4051 22.1528 22.4018 21.6078 22.4018L21.6091 22.4011Z" fill="#07448E"/>
<path d="M29.3209 24.6278C29.3219 25.0731 29.3224 25.5188 29.3209 25.964C29.3208 26.0148 29.3065 26.0613 29.2721 26.0949C29.2379 26.1283 29.1912 26.1417 29.1411 26.1417C28.6975 26.1422 28.254 26.1422 27.8105 26.1417C27.7609 26.1417 27.7154 26.1268 27.6819 26.0961C27.648 26.065 27.6307 26.0215 27.6314 25.9738L27.6814 25.9745M29.3209 24.6278L28.9344 25.8109C28.5666 25.2352 28.0505 24.8745 27.3745 24.7622C26.2488 24.5751 25.1863 25.2284 24.8357 26.3137C24.7565 26.5586 24.7245 26.8103 24.7313 27.0676C24.734 27.1699 24.6966 27.2219 24.6224 27.2244M29.3209 24.6278C29.3205 24.5949 29.312 24.5587 29.2954 24.5286L29.3209 24.6278ZM29.3209 24.6278L29.2954 24.5286L29.3209 24.6278ZM27.6814 25.9745L27.6314 25.9738C27.6319 25.9263 27.6502 25.8841 27.685 25.8541C27.7191 25.8247 27.7646 25.8111 27.8139 25.8109C28.0528 25.8106 28.2919 25.8107 28.5308 25.8108C28.6455 25.8109 28.7602 25.8109 28.8748 25.8109C28.5154 25.262 28.0169 24.9196 27.3663 24.8115C26.2653 24.6286 25.2263 25.2671 24.8832 26.329C24.806 26.5681 24.7747 26.8141 24.7813 27.0662C24.7828 27.1224 24.7737 27.1735 24.7466 27.2121C24.7177 27.2534 24.6738 27.2726 24.6242 27.2743M27.6814 25.9745C27.6822 25.9056 27.7331 25.8612 27.814 25.8609L29.141 26.0917C28.6975 26.0922 28.254 26.0922 27.8105 26.0917C27.7309 26.0917 27.6804 26.0442 27.6814 25.9745ZM24.6242 27.2743L24.6224 27.2244L24.6242 27.2743ZM24.6242 27.2743L24.6224 27.2244L24.6242 27.2743ZM24.6242 27.2743C24.5729 27.2762 24.5269 27.2588 24.495 27.2186C24.4651 27.1809 24.4527 27.1296 24.4511 27.0728C24.4164 25.8813 25.2256 24.8092 26.3744 24.5261C27.3594 24.2834 28.363 24.6251 28.9941 25.4115V25.4092V25.4075V25.4058V25.4041V25.4024V25.4007V25.399V25.3973V25.3956V25.3939V25.3922V25.3905V25.3888V25.3871V25.3854V25.3837V25.3821V25.3804V25.3787V25.377V25.3753V25.3736V25.3719V25.3702V25.3685V25.3668V25.3651V25.3634V25.3617V25.36V25.3583V25.3566V25.3549V25.3533V25.3516V25.3499V25.3482V25.3465V25.3448V25.3431V25.3414V25.3397V25.338V25.3363V25.3346V25.3329V25.3312V25.3295V25.3278V25.3261V25.3244V25.3228V25.3211V25.3194V25.3177V25.316V25.3143V25.3126V25.3109V25.3092V25.3075V25.3058V25.3041V25.3024V25.3007V25.299V25.2973V25.2956V25.294V25.2923V25.2906V25.2889V25.2872V25.2855V25.2838V25.2821V25.2804V25.2787V25.277V25.2753V25.2736V25.2719V25.2702V25.2685V25.2668V25.2651V25.2635V25.2618V25.2601V25.2584V25.2567V25.255V25.2533V25.2516V25.2499V25.2482V25.2465V25.2448V25.2431V25.2414V25.2397V25.238V25.2363V25.2347V25.233V25.2313V25.2296V25.2279V25.2262V25.2245V25.2228V25.2211V25.2194V25.2177V25.216V25.2143V25.2126V25.2109V25.2092V25.2075V25.2058V25.2042V25.2025V25.2008V25.1991V25.1974V25.1957V25.194V25.1923V25.1906V25.1889V25.1872V25.1855V25.1838V25.1821V25.1804V25.1787V25.177V25.1754V25.1737V25.172V25.1703V25.1686V25.1669V25.1652V25.1635V25.1618V25.1601V25.1584V25.1567V25.155V25.1533V25.1516V25.1499V25.1482V25.1466V25.1449V25.1432V25.1415V25.1398V25.1381V25.1364V25.1347V25.133V25.1313V25.1296V25.1279V25.1262V25.1245V25.1228V25.1211V25.1194V25.1178V25.1161V25.1144V25.1127V25.111V25.1093V25.1076V25.1059V25.1042V25.1025V25.1008V25.0991V25.0974V25.0957V25.094V25.0923V25.0906V25.089V25.0873V25.0856V25.0839V25.0822V25.0805V25.0788V25.0771V25.0754V25.0737V25.072V25.0703V25.0686V25.0669V25.0652V25.0635V25.0619V25.0602V25.0585V25.0568V25.0551V25.0534V25.0517V25.05V25.0483V25.0466V25.0449V25.0432V25.0415V25.0398V25.0381V25.0364V25.0347V25.0331V25.0314V25.0297V25.028V25.0263V25.0246V25.0229V25.0212V25.0195V25.0178V25.0161V25.0144V25.0127V25.011V25.0093V25.0076V25.0059V25.0043V25.0026V25.0009V24.9992V24.9975V24.9958V24.9941V24.9924V24.9907V24.989V24.9873V24.9856V24.9839V24.9822V24.9805V24.9788V24.9772V24.9755V24.9738V24.9721V24.9704V24.9687V24.967V24.9653V24.9636V24.9619V24.9602V24.9585V24.9568V24.9551V24.9534V24.9517V24.9501V24.9484V24.9467V24.945V24.9433V24.9416V24.9399V24.9382V24.9365V24.9348V24.9331V24.9314V24.9297V24.928V24.9263V24.9246V24.923V24.9213V24.9196V24.9179V24.9162V24.9145V24.9128V24.9111V24.9094V24.9077V24.906V24.9043V24.9026V24.9009V24.8992V24.8975V24.8959V24.8942V24.8925V24.8908V24.8891V24.8874V24.8857V24.884V24.8823V24.8806V24.8789V24.8772V24.8755V24.8738V24.8721V24.8704V24.8688V24.8671V24.8654V24.8637V24.862V24.8603V24.8586V24.8569V24.8552V24.8535V24.8518V24.8501V24.8484V24.8467V24.845V24.8434V24.8417V24.84V24.8383V24.8366V24.8349V24.8332V24.8315V24.8298V24.8281V24.8264V24.8247V24.823V24.8213V24.8196V24.8179V24.8163V24.8146V24.8129V24.8112V24.8095V24.8078V24.8061V24.8044V24.8027V24.801V24.7993V24.7976V24.7959V24.7942V24.7925V24.7909V24.7892V24.7875V24.7858V24.7841V24.7824V24.7807V24.779V24.7773V24.7756V24.7739V24.7722V24.7705V24.7688V24.7671V24.7655V24.7638V24.7621V24.7604V24.7587V24.757V24.7553V24.7536V24.7519V24.7502V24.7485V24.7468V24.7451V24.7434V24.7417V24.7401V24.7384V24.7367V24.735V24.7333V24.7316V24.7299V24.7282V24.7265V24.7248V24.7231V24.7214V24.7197V24.718V24.7163V24.7147V24.713V24.7113V24.7096V24.7079V24.7062V24.7045V24.7028V24.7011V24.6994V24.6977V24.696V24.6943V24.6926V24.6909V24.6893V24.6876V24.6859V24.6842V24.6825V24.6808V24.6791V24.6774V24.6757V24.674V24.6723V24.6706V24.6689V24.6672V24.6656V24.6639V24.6622V24.6605V24.6588V24.6571V24.6554V24.6537V24.652V24.6503V24.6486V24.6469V24.6452V24.6435V24.6419V24.6402V24.6385V24.6368V24.6351V24.6334V24.6317V24.63V24.6283V24.6266V24.6249V24.6232V24.6215V24.6198C28.9941 24.5816 29.0033 24.5458 29.025 24.5162C29.0468 24.4864 29.0779 24.4675 29.1133 24.457M24.6224 27.2244L29.2954 24.5286L24.6224 27.2244ZM29.1133 24.457C29.1132 24.4571 29.1134 24.457 29.1133 24.457V24.457ZM29.1133 24.457C29.1786 24.4375 29.259 24.4622 29.2954 24.5286L29.1133 24.457Z" fill="#00B9F5"/>
<path d="M29.3209 24.6278C29.3219 25.0731 29.3224 25.5188 29.3209 25.964C29.3208 26.0148 29.3065 26.0613 29.2721 26.0949C29.2379 26.1283 29.1912 26.1417 29.1411 26.1417C28.6975 26.1422 28.254 26.1422 27.8105 26.1417C27.7609 26.1417 27.7154 26.1268 27.6819 26.0961C27.648 26.065 27.6307 26.0215 27.6314 25.9738M29.3209 24.6278L28.9344 25.8109C28.5666 25.2352 28.0505 24.8745 27.3745 24.7622C26.2488 24.5751 25.1863 25.2284 24.8357 26.3137C24.7565 26.5586 24.7245 26.8103 24.7313 27.0676C24.734 27.1699 24.6966 27.2219 24.6224 27.2244M29.3209 24.6278C29.3205 24.5949 29.312 24.5587 29.2954 24.5286M29.3209 24.6278L29.2954 24.5286M27.6314 25.9738L27.6814 25.9745M27.6314 25.9738C27.6319 25.9263 27.6502 25.8841 27.685 25.8541C27.7191 25.8247 27.7646 25.8111 27.8139 25.8109C28.0528 25.8106 28.2919 25.8107 28.5308 25.8108C28.6455 25.8109 28.7602 25.8109 28.8748 25.8109C28.5154 25.262 28.0169 24.9196 27.3663 24.8115C26.2653 24.6286 25.2263 25.2671 24.8832 26.329C24.806 26.5681 24.7747 26.8141 24.7813 27.0662C24.7828 27.1224 24.7737 27.1735 24.7466 27.2121C24.7177 27.2534 24.6738 27.2726 24.6242 27.2743M27.6814 25.9745C27.6822 25.9056 27.7331 25.8612 27.814 25.8609L29.141 26.0917C28.6975 26.0922 28.254 26.0922 27.8105 26.0917C27.7309 26.0917 27.6804 26.0442 27.6814 25.9745ZM24.6224 27.2244L24.6242 27.2743M24.6224 27.2244L29.2954 24.5286M29.2954 24.5286C29.259 24.4622 29.1786 24.4375 29.1133 24.457M24.6242 27.2743C24.5729 27.2762 24.5269 27.2588 24.495 27.2186C24.4651 27.1809 24.4527 27.1296 24.4511 27.0728C24.4164 25.8813 25.2256 24.8092 26.3744 24.5261C27.3594 24.2834 28.363 24.6251 28.9941 25.4115V25.4092V25.4075V25.4058V25.4041V25.4024V25.4007V25.399V25.3973V25.3956V25.3939V25.3922V25.3905V25.3888V25.3871V25.3854V25.3837V25.3821V25.3804V25.3787V25.377V25.3753V25.3736V25.3719V25.3702V25.3685V25.3668V25.3651V25.3634V25.3617V25.36V25.3583V25.3566V25.3549V25.3533V25.3516V25.3499V25.3482V25.3465V25.3448V25.3431V25.3414V25.3397V25.338V25.3363V25.3346V25.3329V25.3312V25.3295V25.3278V25.3261V25.3244V25.3228V25.3211V25.3194V25.3177V25.316V25.3143V25.3126V25.3109V25.3092V25.3075V25.3058V25.3041V25.3024V25.3007V25.299V25.2973V25.2956V25.294V25.2923V25.2906V25.2889V25.2872V25.2855V25.2838V25.2821V25.2804V25.2787V25.277V25.2753V25.2736V25.2719V25.2702V25.2685V25.2668V25.2651V25.2635V25.2618V25.2601V25.2584V25.2567V25.255V25.2533V25.2516V25.2499V25.2482V25.2465V25.2448V25.2431V25.2414V25.2397V25.238V25.2363V25.2347V25.233V25.2313V25.2296V25.2279V25.2262V25.2245V25.2228V25.2211V25.2194V25.2177V25.216V25.2143V25.2126V25.2109V25.2092V25.2075V25.2058V25.2042V25.2025V25.2008V25.1991V25.1974V25.1957V25.194V25.1923V25.1906V25.1889V25.1872V25.1855V25.1838V25.1821V25.1804V25.1787V25.177V25.1754V25.1737V25.172V25.1703V25.1686V25.1669V25.1652V25.1635V25.1618V25.1601V25.1584V25.1567V25.155V25.1533V25.1516V25.1499V25.1482V25.1466V25.1449V25.1432V25.1415V25.1398V25.1381V25.1364V25.1347V25.133V25.1313V25.1296V25.1279V25.1262V25.1245V25.1228V25.1211V25.1194V25.1178V25.1161V25.1144V25.1127V25.111V25.1093V25.1076V25.1059V25.1042V25.1025V25.1008V25.0991V25.0974V25.0957V25.094V25.0923V25.0906V25.089V25.0873V25.0856V25.0839V25.0822V25.0805V25.0788V25.0771V25.0754V25.0737V25.072V25.0703V25.0686V25.0669V25.0652V25.0635V25.0619V25.0602V25.0585V25.0568V25.0551V25.0534V25.0517V25.05V25.0483V25.0466V25.0449V25.0432V25.0415V25.0398V25.0381V25.0364V25.0347V25.0331V25.0314V25.0297V25.028V25.0263V25.0246V25.0229V25.0212V25.0195V25.0178V25.0161V25.0144V25.0127V25.011V25.0093V25.0076V25.0059V25.0043V25.0026V25.0009V24.9992V24.9975V24.9958V24.9941V24.9924V24.9907V24.989V24.9873V24.9856V24.9839V24.9822V24.9805V24.9788V24.9772V24.9755V24.9738V24.9721V24.9704V24.9687V24.967V24.9653V24.9636V24.9619V24.9602V24.9585V24.9568V24.9551V24.9534V24.9517V24.9501V24.9484V24.9467V24.945V24.9433V24.9416V24.9399V24.9382V24.9365V24.9348V24.9331V24.9314V24.9297V24.928V24.9263V24.9246V24.923V24.9213V24.9196V24.9179V24.9162V24.9145V24.9128V24.9111V24.9094V24.9077V24.906V24.9043V24.9026V24.9009V24.8992V24.8975V24.8959V24.8942V24.8925V24.8908V24.8891V24.8874V24.8857V24.884V24.8823V24.8806V24.8789V24.8772V24.8755V24.8738V24.8721V24.8704V24.8688V24.8671V24.8654V24.8637V24.862V24.8603V24.8586V24.8569V24.8552V24.8535V24.8518V24.8501V24.8484V24.8467V24.845V24.8434V24.8417V24.84V24.8383V24.8366V24.8349V24.8332V24.8315V24.8298V24.8281V24.8264V24.8247V24.823V24.8213V24.8196V24.8179V24.8163V24.8146V24.8129V24.8112V24.8095V24.8078V24.8061V24.8044V24.8027V24.801V24.7993V24.7976V24.7959V24.7942V24.7925V24.7909V24.7892V24.7875V24.7858V24.7841V24.7824V24.7807V24.779V24.7773V24.7756V24.7739V24.7722V24.7705V24.7688V24.7671V24.7655V24.7638V24.7621V24.7604V24.7587V24.757V24.7553V24.7536V24.7519V24.7502V24.7485V24.7468V24.7451V24.7434V24.7417V24.7401V24.7384V24.7367V24.735V24.7333V24.7316V24.7299V24.7282V24.7265V24.7248V24.7231V24.7214V24.7197V24.718V24.7163V24.7147V24.713V24.7113V24.7096V24.7079V24.7062V24.7045V24.7028V24.7011V24.6994V24.6977V24.696V24.6943V24.6926V24.6909V24.6893V24.6876V24.6859V24.6842V24.6825V24.6808V24.6791V24.6774V24.6757V24.674V24.6723V24.6706V24.6689V24.6672V24.6656V24.6639V24.6622V24.6605V24.6588V24.6571V24.6554V24.6537V24.652V24.6503V24.6486V24.6469V24.6452V24.6435V24.6419V24.6402V24.6385V24.6368V24.6351V24.6334V24.6317V24.63V24.6283V24.6266V24.6249V24.6232V24.6215V24.6198C28.9941 24.5816 29.0033 24.5458 29.025 24.5162C29.0468 24.4864 29.0779 24.4675 29.1133 24.457M29.1133 24.457L29.1275 24.505M29.1133 24.457C29.1134 24.457 29.1132 24.4571 29.1133 24.457Z" stroke="#00B9F5" stroke-width="0.1"/>
<path d="M24.8733 29.4917C24.8276 29.5057 24.7729 29.4879 24.749 29.4447C24.7367 29.4225 24.7297 29.3946 24.7295 29.3691C24.7282 28.9238 24.7282 28.4786 24.7292 28.0336L24.8733 29.4917ZM24.8733 29.4917C24.9278 29.475 24.9562 29.437 24.9562 29.3763V28.5202L24.8733 29.4917ZM27.4495 29.5039C26.4549 29.6622 25.6385 29.3425 25.0062 28.5817V28.5836V28.5853V28.587V28.5887V28.5904V28.5921V28.5938V28.5955V28.5972V28.5989V28.6006V28.6023V28.6039V28.6056V28.6073V28.609V28.6107V28.6124V28.6141V28.6158V28.6175V28.6192V28.6209V28.6226V28.6243V28.626V28.6277V28.6294V28.6311V28.6328V28.6344V28.6361V28.6378V28.6395V28.6412V28.6429V28.6446V28.6463V28.648V28.6497V28.6514V28.6531V28.6548V28.6565V28.6582V28.6599V28.6616V28.6632V28.6649V28.6666V28.6683V28.67V28.6717V28.6734V28.6751V28.6768V28.6785V28.6802V28.6819V28.6836V28.6853V28.687V28.6887V28.6904V28.6921V28.6937V28.6954V28.6971V28.6988V28.7005V28.7022V28.7039V28.7056V28.7073V28.709V28.7107V28.7124V28.7141V28.7158V28.7175V28.7192V28.7209V28.7225V28.7242V28.7259V28.7276V28.7293V28.731V28.7327V28.7344V28.7361V28.7378V28.7395V28.7412V28.7429V28.7446V28.7463V28.748V28.7497V28.7514V28.753V28.7547V28.7564V28.7581V28.7598V28.7615V28.7632V28.7649V28.7666V28.7683V28.77V28.7717V28.7734V28.7751V28.7768V28.7785V28.7802V28.7818V28.7835V28.7852V28.7869V28.7886V28.7903V28.792V28.7937V28.7954V28.7971V28.7988V28.8005V28.8022V28.8039V28.8056V28.8073V28.809V28.8106V28.8123V28.814V28.8157V28.8174V28.8191V28.8208V28.8225V28.8242V28.8259V28.8276V28.8293V28.831V28.8327V28.8344V28.8361V28.8378V28.8394V28.8411V28.8428V28.8445V28.8462V28.8479V28.8496V28.8513V28.853V28.8547V28.8564V28.8581V28.8598V28.8615V28.8632V28.8649V28.8666V28.8682V28.8699V28.8716V28.8733V28.875V28.8767V28.8784V28.8801V28.8818V28.8835V28.8852V28.8869V28.8886V28.8903V28.892V28.8937V28.8954V28.897V28.8987V28.9004V28.9021V28.9038V28.9055V28.9072V28.9089V28.9106V28.9123V28.914V28.9157V28.9174V28.9191V28.9208V28.9225V28.9242V28.9258V28.9275V28.9292V28.9309V28.9326V28.9343V28.936V28.9377V28.9394V28.9411V28.9428V28.9445V28.9462V28.9479V28.9496V28.9513V28.953V28.9546V28.9563V28.958V28.9597V28.9614V28.9631V28.9648V28.9665V28.9682V28.9699V28.9716V28.9733V28.975V28.9767V28.9784V28.9801V28.9817V28.9834V28.9851V28.9868V28.9885V28.9902V28.9919V28.9936V28.9953V28.997V28.9987V29.0004V29.0021V29.0038V29.0055V29.0072V29.0089V29.0105V29.0122V29.0139V29.0156V29.0173V29.019V29.0207V29.0224V29.0241V29.0258V29.0275V29.0292V29.0309V29.0326V29.0343V29.036V29.0376V29.0393V29.041V29.0427V29.0444V29.0461V29.0478V29.0495V29.0512V29.0529V29.0546V29.0563V29.058V29.0597V29.0614V29.0631V29.0647V29.0664V29.0681V29.0698V29.0715V29.0732V29.0749V29.0766V29.0783V29.08V29.0817V29.0834V29.0851V29.0868V29.0885V29.0902V29.0918V29.0935V29.0952V29.0969V29.0986V29.1003V29.102V29.1037V29.1054V29.1071V29.1088V29.1105V29.1122V29.1139V29.1156V29.1173V29.1189V29.1206V29.1223V29.124V29.1257V29.1274V29.1291V29.1308V29.1325V29.1342V29.1359V29.1376V29.1393V29.141V29.1427V29.1443V29.146V29.1477V29.1494V29.1511V29.1528V29.1545V29.1562V29.1579V29.1596V29.1613V29.163V29.1647V29.1664V29.1681V29.1698V29.1714V29.1731V29.1748V29.1765V29.1782V29.1799V29.1816V29.1833V29.185V29.1867V29.1884V29.1901V29.1918V29.1935V29.1952V29.1968V29.1985V29.2002V29.2019V29.2036V29.2053V29.207V29.2087V29.2104V29.2121V29.2138V29.2155V29.2172V29.2189V29.2206V29.2222V29.2239V29.2256V29.2273V29.229V29.2307V29.2324V29.2341V29.2358V29.2375V29.2392V29.2409V29.2426V29.2443V29.246V29.2476V29.2493V29.251V29.2527V29.2544V29.2561V29.2578V29.2595V29.2612V29.2629V29.2646V29.2663V29.268V29.2697V29.2714V29.273V29.2747V29.2764V29.2781V29.2798V29.2815V29.2832V29.2849V29.2866V29.2883V29.29V29.2917V29.2934V29.2951V29.2968V29.2984V29.3001V29.3018V29.3035V29.3052V29.3069V29.3086V29.3103V29.312V29.3137V29.3154V29.3171V29.3188V29.3205V29.3221V29.3238V29.3255V29.3272V29.3289V29.3306V29.3323V29.334V29.3357V29.3374V29.3391V29.3408V29.3425V29.3442V29.3459V29.3475V29.3492V29.3509V29.3526V29.3543V29.356V29.3577V29.3594V29.3611V29.3628V29.3645V29.3662V29.3679V29.3696V29.3712V29.3729V29.3746V29.3763C25.0062 29.4145 24.9972 29.4502 24.9756 29.4799C24.954 29.5096 24.9232 29.5287 24.888 29.5395C24.8228 29.5594 24.7422 29.5356 24.7052 29.469C24.6887 29.4391 24.6798 29.4029 24.6795 29.3696C24.6782 28.9243 24.6782 28.4786 24.6792 28.0335C24.6793 27.9827 24.6935 27.9362 24.7277 27.9025C24.7617 27.869 24.8084 27.8554 24.8584 27.8553C25.302 27.8548 25.7456 27.8548 26.1891 27.8553M27.4495 29.5039C28.0771 29.4041 28.5887 29.0848 28.9868 28.5935C29.3395 28.158 29.521 27.6552 29.5477 27.0978C29.5511 27.0254 29.5506 26.9522 29.5454 26.8794C29.542 26.8317 29.5229 26.7898 29.4897 26.7609C29.4565 26.7321 29.4132 26.7197 29.368 26.7232C29.3244 26.7266 29.2851 26.7451 29.2575 26.7778C29.23 26.8102 29.2172 26.8527 29.2186 26.8988M29.2186 26.8988C29.225 27.1195 29.206 27.3365 29.1512 27.5486C28.8691 28.6415 27.8209 29.3503 26.7053 29.1964M29.2186 26.8988C29.2186 26.8987 29.2186 26.8989 29.2186 26.8988V26.8988ZM26.7053 29.1964C26.0243 29.1024 25.5011 28.7581 25.1249 28.186L26.7053 29.1964ZM25.1249 28.186C25.2398 28.186 25.3547 28.186 25.4696 28.1861C25.7085 28.1862 25.9475 28.1863 26.1864 28.186C26.2358 28.1858 26.2814 28.172 26.3154 28.1424C26.35 28.1123 26.3682 28.0698 26.3687 28.0224C26.3692 27.9746 26.3517 27.9313 26.3176 27.9004C26.284 27.8699 26.2386 27.8553 26.1891 27.8553M25.1249 28.186C25.1204 28.186 25.1158 28.186 25.1113 28.186H25.1102H25.1092H25.1081H25.1071H25.1059H25.1048H25.1037H25.1027H25.1016H25.1006H25.0995H25.0985H25.0974H25.0964H25.0953H25.0943H25.0932H25.0921H25.091H25.0899H25.0887H25.0875H25.0863H25.0851H25.0839M25.1249 28.186C25.1208 28.1797 25.1167 28.1734 25.1126 28.167L25.1113 28.1679L25.0839 28.186M26.1891 27.8553V27.9053V27.8553ZM26.1891 27.8553V27.9053V27.8553ZM26.1891 27.9053C26.2687 27.9053 26.3194 27.9522 26.3187 28.0219L24.8586 27.9053C25.3021 27.9048 25.7456 27.9048 26.1891 27.9053ZM25.0839 28.186L25.0706 28.1942L25.0839 28.186ZM25.0839 28.186L25.0706 28.1942L25.0839 28.186ZM25.0706 28.1942L25.0839 28.186H25.0829H25.0818H25.0808H25.0797H25.0787H25.0776H25.0766H25.0755H25.0745H25.0734H25.0724H25.0713H25.0703H25.0692H25.0681H25.0669H25.0657C25.06 28.1766 25.0545 28.1667 25.0483 28.1557C25.0449 28.1495 25.0413 28.143 25.0374 28.136L25.0706 28.1942Z" fill="#00B9F5"/>
<path d="M24.8733 29.4917C24.8276 29.5057 24.7729 29.4879 24.749 29.4447C24.7367 29.4225 24.7297 29.3946 24.7295 29.3691C24.7282 28.9238 24.7282 28.4786 24.7292 28.0336L24.8733 29.4917ZM24.8733 29.4917C24.9278 29.475 24.9562 29.437 24.9562 29.3763V28.5202L24.8733 29.4917ZM27.4495 29.5039C26.4549 29.6622 25.6385 29.3425 25.0062 28.5817V28.5836V28.5853V28.587V28.5887V28.5904V28.5921V28.5938V28.5955V28.5972V28.5989V28.6006V28.6023V28.6039V28.6056V28.6073V28.609V28.6107V28.6124V28.6141V28.6158V28.6175V28.6192V28.6209V28.6226V28.6243V28.626V28.6277V28.6294V28.6311V28.6328V28.6344V28.6361V28.6378V28.6395V28.6412V28.6429V28.6446V28.6463V28.648V28.6497V28.6514V28.6531V28.6548V28.6565V28.6582V28.6599V28.6616V28.6632V28.6649V28.6666V28.6683V28.67V28.6717V28.6734V28.6751V28.6768V28.6785V28.6802V28.6819V28.6836V28.6853V28.687V28.6887V28.6904V28.6921V28.6937V28.6954V28.6971V28.6988V28.7005V28.7022V28.7039V28.7056V28.7073V28.709V28.7107V28.7124V28.7141V28.7158V28.7175V28.7192V28.7209V28.7225V28.7242V28.7259V28.7276V28.7293V28.731V28.7327V28.7344V28.7361V28.7378V28.7395V28.7412V28.7429V28.7446V28.7463V28.748V28.7497V28.7514V28.753V28.7547V28.7564V28.7581V28.7598V28.7615V28.7632V28.7649V28.7666V28.7683V28.77V28.7717V28.7734V28.7751V28.7768V28.7785V28.7802V28.7818V28.7835V28.7852V28.7869V28.7886V28.7903V28.792V28.7937V28.7954V28.7971V28.7988V28.8005V28.8022V28.8039V28.8056V28.8073V28.809V28.8106V28.8123V28.814V28.8157V28.8174V28.8191V28.8208V28.8225V28.8242V28.8259V28.8276V28.8293V28.831V28.8327V28.8344V28.8361V28.8378V28.8394V28.8411V28.8428V28.8445V28.8462V28.8479V28.8496V28.8513V28.853V28.8547V28.8564V28.8581V28.8598V28.8615V28.8632V28.8649V28.8666V28.8682V28.8699V28.8716V28.8733V28.875V28.8767V28.8784V28.8801V28.8818V28.8835V28.8852V28.8869V28.8886V28.8903V28.892V28.8937V28.8954V28.897V28.8987V28.9004V28.9021V28.9038V28.9055V28.9072V28.9089V28.9106V28.9123V28.914V28.9157V28.9174V28.9191V28.9208V28.9225V28.9242V28.9258V28.9275V28.9292V28.9309V28.9326V28.9343V28.936V28.9377V28.9394V28.9411V28.9428V28.9445V28.9462V28.9479V28.9496V28.9513V28.953V28.9546V28.9563V28.958V28.9597V28.9614V28.9631V28.9648V28.9665V28.9682V28.9699V28.9716V28.9733V28.975V28.9767V28.9784V28.9801V28.9817V28.9834V28.9851V28.9868V28.9885V28.9902V28.9919V28.9936V28.9953V28.997V28.9987V29.0004V29.0021V29.0038V29.0055V29.0072V29.0089V29.0105V29.0122V29.0139V29.0156V29.0173V29.019V29.0207V29.0224V29.0241V29.0258V29.0275V29.0292V29.0309V29.0326V29.0343V29.036V29.0376V29.0393V29.041V29.0427V29.0444V29.0461V29.0478V29.0495V29.0512V29.0529V29.0546V29.0563V29.058V29.0597V29.0614V29.0631V29.0647V29.0664V29.0681V29.0698V29.0715V29.0732V29.0749V29.0766V29.0783V29.08V29.0817V29.0834V29.0851V29.0868V29.0885V29.0902V29.0918V29.0935V29.0952V29.0969V29.0986V29.1003V29.102V29.1037V29.1054V29.1071V29.1088V29.1105V29.1122V29.1139V29.1156V29.1173V29.1189V29.1206V29.1223V29.124V29.1257V29.1274V29.1291V29.1308V29.1325V29.1342V29.1359V29.1376V29.1393V29.141V29.1427V29.1443V29.146V29.1477V29.1494V29.1511V29.1528V29.1545V29.1562V29.1579V29.1596V29.1613V29.163V29.1647V29.1664V29.1681V29.1698V29.1714V29.1731V29.1748V29.1765V29.1782V29.1799V29.1816V29.1833V29.185V29.1867V29.1884V29.1901V29.1918V29.1935V29.1952V29.1968V29.1985V29.2002V29.2019V29.2036V29.2053V29.207V29.2087V29.2104V29.2121V29.2138V29.2155V29.2172V29.2189V29.2206V29.2222V29.2239V29.2256V29.2273V29.229V29.2307V29.2324V29.2341V29.2358V29.2375V29.2392V29.2409V29.2426V29.2443V29.246V29.2476V29.2493V29.251V29.2527V29.2544V29.2561V29.2578V29.2595V29.2612V29.2629V29.2646V29.2663V29.268V29.2697V29.2714V29.273V29.2747V29.2764V29.2781V29.2798V29.2815V29.2832V29.2849V29.2866V29.2883V29.29V29.2917V29.2934V29.2951V29.2968V29.2984V29.3001V29.3018V29.3035V29.3052V29.3069V29.3086V29.3103V29.312V29.3137V29.3154V29.3171V29.3188V29.3205V29.3221V29.3238V29.3255V29.3272V29.3289V29.3306V29.3323V29.334V29.3357V29.3374V29.3391V29.3408V29.3425V29.3442V29.3459V29.3475V29.3492V29.3509V29.3526V29.3543V29.356V29.3577V29.3594V29.3611V29.3628V29.3645V29.3662V29.3679V29.3696V29.3712V29.3729V29.3746V29.3763C25.0062 29.4145 24.9972 29.4502 24.9756 29.4799C24.954 29.5096 24.9232 29.5287 24.888 29.5395C24.8228 29.5594 24.7422 29.5356 24.7052 29.469C24.6887 29.4391 24.6798 29.4029 24.6795 29.3696C24.6782 28.9243 24.6782 28.4786 24.6792 28.0335C24.6793 27.9827 24.6935 27.9362 24.7277 27.9025C24.7617 27.869 24.8084 27.8554 24.8584 27.8553C25.302 27.8548 25.7456 27.8548 26.1891 27.8553M27.4495 29.5039L27.4416 29.4545M27.4495 29.5039C28.0771 29.4041 28.5887 29.0848 28.9868 28.5935C29.3395 28.158 29.521 27.6552 29.5477 27.0978C29.5511 27.0254 29.5506 26.9522 29.5454 26.8794C29.542 26.8317 29.5229 26.7898 29.4897 26.7609C29.4565 26.7321 29.4132 26.7197 29.368 26.7232C29.3244 26.7266 29.2851 26.7451 29.2575 26.7778C29.23 26.8102 29.2172 26.8527 29.2186 26.8988M26.1891 27.8553C26.2386 27.8553 26.284 27.8699 26.3176 27.9004C26.3517 27.9313 26.3692 27.9746 26.3687 28.0224C26.3682 28.0698 26.35 28.1123 26.3154 28.1424C26.2814 28.172 26.2358 28.1858 26.1864 28.186C25.9475 28.1863 25.7085 28.1862 25.4696 28.1861C25.3547 28.186 25.2398 28.186 25.1249 28.186M26.1891 27.8553V27.9053M29.2186 26.8988C29.225 27.1195 29.206 27.3365 29.1512 27.5486C28.8691 28.6415 27.8209 29.3503 26.7053 29.1964M29.2186 26.8988C29.2186 26.8989 29.2186 26.8987 29.2186 26.8988ZM29.2186 26.8988L29.2686 26.8974M26.7053 29.1964C26.0243 29.1024 25.5011 28.7581 25.1249 28.186M26.7053 29.1964L26.6985 29.246M25.1249 28.186C25.1204 28.186 25.1158 28.186 25.1113 28.186H25.1102H25.1092H25.1081H25.1071H25.1059H25.1048H25.1037H25.1027H25.1016H25.1006H25.0995H25.0985H25.0974H25.0964H25.0953H25.0943H25.0932H25.0921H25.091H25.0899H25.0887H25.0875H25.0863H25.0851H25.0839M25.1249 28.186C25.1208 28.1797 25.1167 28.1734 25.1126 28.167L25.1113 28.1679L25.0839 28.186M25.0839 28.186L25.0706 28.1942L25.0374 28.136C25.0413 28.143 25.0449 28.1495 25.0483 28.1557C25.0545 28.1667 25.06 28.1766 25.0657 28.186H25.0669H25.0681H25.0692H25.0703H25.0713H25.0724H25.0734H25.0745H25.0755H25.0766H25.0776H25.0787H25.0797H25.0808H25.0818H25.0829H25.0839ZM26.1891 27.9053C26.2687 27.9053 26.3194 27.9522 26.3187 28.0219L24.8586 27.9053C25.3021 27.9048 25.7456 27.9048 26.1891 27.9053Z" stroke="#00B9F5" stroke-width="0.1"/>
</svg>
