<svg width="128" height="128" viewBox="0 0 128 128" fill="none" xmlns="http://www.w3.org/2000/svg">
<path d="M42.4624 62.4806C39.8854 62.4806 37.3084 62.489 34.7314 62.4806C29.8864 62.4614 25.7376 58.4574 25.6738 53.608C25.6034 48.3242 25.6056 43.0362 25.6738 37.7502C25.7356 32.9732 29.7904 28.931 34.5696 28.8734C39.8556 28.8096 45.1436 28.8054 50.4296 28.8756C55.279 28.9416 59.2744 33.0882 59.285 37.946C59.2958 43.1 59.2978 48.2518 59.285 53.4058C59.2744 58.3722 55.1704 62.4614 50.1954 62.4806C47.6184 62.4912 45.0414 62.4806 42.4644 62.4806H42.4624ZM55.6176 45.694C55.6176 43.2492 55.6284 40.8042 55.6156 38.3592C55.5984 34.941 53.2856 32.5814 49.8738 32.5622C44.9562 32.5324 40.0408 32.5366 35.1234 32.5622C31.686 32.5792 29.3774 34.8878 29.3602 38.3294C29.3348 43.2448 29.3284 48.1602 29.3602 53.0778C29.3838 56.4874 31.7562 58.8024 35.1702 58.8088C40.0344 58.8196 44.8966 58.8174 49.761 58.8088C53.2472 58.8024 55.6006 56.4406 55.6156 52.9478C55.624 50.5306 55.6176 48.1112 55.6176 45.694Z" fill="#07448E"/>
<path d="M82.5342 62.457C79.9572 62.457 77.3804 62.4656 74.8034 62.457C69.9582 62.438 65.8096 58.434 65.7456 53.5846C65.6754 48.3008 65.6774 43.0128 65.7456 37.7268C65.8074 32.9498 69.8624 28.9076 74.6416 28.85C79.9274 28.7862 85.2156 28.7818 90.5016 28.8522C95.351 28.9182 99.3464 33.0648 99.357 37.9226C99.3676 43.0766 99.3698 48.2284 99.357 53.3824C99.3464 58.3488 95.2424 62.438 90.2672 62.457C87.6904 62.4678 85.1134 62.457 82.5364 62.457H82.5342ZM95.6896 45.6706C95.6896 43.2256 95.7002 40.7808 95.6874 38.3358C95.6704 34.9176 93.3576 32.5578 89.9458 32.5388C85.0282 32.509 80.1128 32.5132 75.1952 32.5388C71.7578 32.5558 69.4492 34.8644 69.4322 38.306C69.4066 43.2214 69.4002 48.1368 69.4322 53.0544C69.4556 56.464 71.8282 58.779 75.242 58.7854C80.1064 58.796 84.9686 58.794 89.8328 58.7854C93.3192 58.779 95.6726 56.4172 95.6874 52.9244C95.696 50.5072 95.6874 48.0878 95.6874 45.6706H95.6896Z" fill="#07448E"/>
<path d="M42.4406 102.543C39.8636 102.543 37.2866 102.552 34.7096 102.543C29.8644 102.524 25.7158 98.52 25.6518 93.6706C25.5816 88.3868 25.5838 83.0986 25.6518 77.8126C25.7136 73.0356 29.7686 68.9934 34.5478 68.936C39.8338 68.872 45.1218 68.8678 50.4078 68.9382C55.2572 69.0042 59.2526 73.1506 59.2632 78.0086C59.2738 83.1626 59.276 88.3144 59.2632 93.4682C59.2526 98.4348 55.1486 102.524 50.1736 102.543C47.5966 102.554 45.0176 102.543 42.4406 102.543ZM55.5958 85.7566C55.5958 83.3116 55.6064 80.8666 55.5936 78.4218C55.5766 75.0036 53.2638 72.6438 49.852 72.6246C44.9344 72.5948 40.019 72.5992 35.1014 72.6246C31.6642 72.6416 29.3554 74.9504 29.3384 78.392C29.3128 83.3074 29.3064 88.2228 29.3384 93.1402C29.3618 96.55 31.7344 98.865 35.1484 98.8714C40.0126 98.882 44.8748 98.88 49.739 98.8714C53.2254 98.865 55.5788 96.5032 55.5936 93.0104C55.6022 90.5932 55.5936 88.1738 55.5936 85.7566H55.5958Z" fill="#07448E"/>
<path d="M80.6438 87.5438C78.7208 87.5438 76.9168 87.5438 75.1108 87.5438C72.666 87.5438 70.2232 87.548 67.7782 87.5438C66.4684 87.5416 65.6656 86.826 65.672 85.6846C65.6784 84.5792 66.4578 83.8722 67.7314 83.87C71.716 83.8616 75.7008 83.8658 79.6854 83.8658C79.9708 83.8658 80.2562 83.8658 80.6418 83.8658C80.6418 83.5016 80.6418 83.2184 80.6418 82.935C80.6418 78.9504 80.6374 74.9656 80.6438 70.983C80.6438 69.8394 81.1998 69.0854 82.1176 68.9172C83.3316 68.6958 84.3134 69.5646 84.3156 70.9C84.324 74.9102 84.3198 78.9226 84.3198 82.933C84.3198 83.2162 84.3198 83.5016 84.3198 83.8658H85.2632C89.1692 83.8658 93.073 83.8636 96.9788 83.87C97.3474 83.87 97.7328 83.8742 98.0778 83.983C98.8808 84.2342 99.3982 85.1096 99.2874 85.921C99.166 86.824 98.4356 87.5118 97.4964 87.5374C96.3804 87.5672 95.2644 87.546 94.1484 87.548C90.9092 87.548 87.672 87.548 84.3176 87.548C84.3176 87.8696 84.3176 88.1486 84.3176 88.4276C84.3176 92.4656 84.3134 96.5014 84.3198 100.539C84.3198 101.366 83.9812 101.977 83.2442 102.339C82.5542 102.678 81.8068 102.624 81.334 102.069C80.959 101.63 80.678 100.957 80.6694 100.384C80.614 96.4268 80.6396 92.4698 80.6396 88.5108C80.6396 88.2232 80.6396 87.9378 80.6396 87.5438H80.6438Z" fill="#00B9F5"/>
</svg>
