<svg width="40" height="40" viewBox="0 0 40 40" fill="none" xmlns="http://www.w3.org/2000/svg">
<path d="M12.0007 10.405C12.0007 10.1105 11.9987 9.84534 12.0007 9.58019C12.0094 8.70057 12.7173 8.00463 13.6009 8.0053C14.4832 8.0053 15.1885 8.70258 15.1972 9.58419C15.1999 9.84868 15.1972 10.1138 15.1972 10.3917H18.3991C18.3991 10.1432 18.3984 9.88875 18.3991 9.63429C18.4024 8.79207 18.9995 8.0988 19.7956 8.01064C20.6512 7.91647 21.416 8.45546 21.5642 9.30902C21.6243 9.65432 21.5742 10.0197 21.5742 10.3903H24.7975C24.7975 10.1172 24.7955 9.85269 24.7975 9.5882C24.8055 8.70592 25.5088 8.0073 26.3904 8.00596C27.2754 8.00463 27.9847 8.69857 27.994 9.57685C27.9967 9.842 27.994 10.1078 27.994 10.405C28.4148 10.405 28.8202 10.3984 29.225 10.407C29.6317 10.4151 30.0471 10.3903 30.4432 10.4638C31.3348 10.6294 31.9907 11.4516 31.9914 12.3586C31.9954 15.8163 31.9934 19.2746 31.9927 22.7323C31.9927 23.0302 31.8444 23.1998 31.5953 23.2012C31.3455 23.2019 31.1959 23.0315 31.1959 22.735C31.1946 20.6017 31.1959 18.4692 31.1959 16.3359V16.0207H8.7968V16.2865C8.7968 20.2691 8.7968 24.2524 8.7968 28.2351C8.7968 29.1227 9.28168 29.6029 10.1767 29.6029C13.7846 29.6029 17.3926 29.6029 21.0005 29.6029C21.084 29.6029 21.1682 29.5969 21.2503 29.6069C21.4527 29.631 21.5943 29.796 21.595 29.9997C21.5963 30.2034 21.4567 30.3697 21.255 30.3964C21.1815 30.4064 21.1054 30.4004 21.0306 30.4004C17.3892 30.4004 13.7479 30.4004 10.1072 30.4004C8.83754 30.4004 8 29.5595 8 28.2852C8 23.0275 8 17.7699 8 12.5122C8 11.2419 8.84021 10.4057 10.1152 10.405C10.731 10.405 11.3475 10.405 12.0007 10.405ZM8.80347 15.1885H31.1939C31.1939 14.2247 31.2133 13.2763 31.1866 12.3292C31.1705 11.7595 30.7658 11.3241 30.1987 11.2366C29.8648 11.1851 29.5182 11.2078 29.1775 11.2038C28.7895 11.1992 28.4008 11.2025 27.974 11.2025C27.974 11.5905 28.0247 11.9559 27.964 12.3018C27.813 13.1554 27.045 13.6951 26.1941 13.5969C25.3959 13.5047 24.8028 12.8141 24.7995 11.9719C24.7988 11.7174 24.7995 11.4636 24.7995 11.2172H21.5983C21.5983 11.4536 21.601 11.6767 21.5976 11.8998C21.5956 12.0327 21.601 12.1689 21.5749 12.2978C21.4033 13.1461 20.6559 13.6904 19.8017 13.5982C19.0049 13.5121 18.4044 12.8188 18.4011 11.9793C18.3998 11.7248 18.4011 11.4703 18.4011 11.2245H15.1992C15.1992 11.4944 15.2005 11.7442 15.1992 11.994C15.1939 12.8989 14.4986 13.6016 13.609 13.6036C12.704 13.6056 12.0067 12.9036 12.002 11.9859C12.0007 11.7308 12.002 11.4757 12.002 11.2045C11.8972 11.2045 11.823 11.2045 11.7495 11.2045C11.1418 11.2058 10.5326 11.1851 9.9262 11.2145C9.31575 11.2439 8.83152 11.7161 8.81282 12.3259C8.7841 13.2736 8.80548 14.2227 8.80548 15.1898L8.80347 15.1885ZM14.4004 10.7931C14.4004 10.411 14.4058 10.0283 14.3991 9.64631C14.3911 9.16275 14.0404 8.80142 13.5943 8.80476C13.1448 8.8081 12.8035 9.16609 12.8001 9.65499C12.7948 10.4197 12.7955 11.1845 12.8001 11.9492C12.8035 12.4368 13.1434 12.7974 13.5916 12.8034C14.0458 12.8094 14.3937 12.4408 14.3997 11.9405C14.4044 11.5585 14.4004 11.1752 14.4004 10.7931ZM19.1986 10.8118C19.1986 11.1938 19.1939 11.5765 19.1999 11.9586C19.2072 12.4421 19.5552 12.8048 20.0014 12.8034C20.4482 12.8021 20.7948 12.4414 20.7988 11.9552C20.8048 11.1905 20.8042 10.4257 20.7988 9.661C20.7955 9.1721 20.4575 8.81211 20.0094 8.80476C19.5532 8.79742 19.2052 9.16342 19.1992 9.66501C19.1952 10.047 19.1986 10.4297 19.1986 10.8118ZM27.1992 10.7931C27.1992 10.411 27.2046 10.0283 27.1979 9.64631C27.1899 9.16275 26.8392 8.80142 26.3931 8.80476C25.9436 8.80877 25.6023 9.16676 25.599 9.65499C25.5936 10.4197 25.5943 11.1845 25.599 11.9492C25.6023 12.4368 25.9429 12.7974 26.3904 12.8034C26.8446 12.8094 27.1926 12.4408 27.1986 11.9399C27.2032 11.5578 27.1992 11.1751 27.1992 10.7931Z" fill="#07448E"/>
<path d="M26.8035 31.9999C23.8942 31.9972 21.5946 29.6756 21.5986 26.7443C21.6026 23.8984 23.9469 21.5995 26.8409 21.6035C29.6801 21.6075 32.0017 23.9518 31.9951 26.8084C31.9884 29.6823 29.6687 32.0026 26.8035 31.9999ZM26.7922 31.2018C29.1725 31.2178 31.1735 29.2402 31.1963 26.8498C31.2196 24.4313 29.2413 22.4116 26.8396 22.4023C24.3971 22.3923 22.4141 24.3519 22.3988 26.7903C22.3834 29.1981 24.3637 31.1857 26.7922 31.2018Z" fill="#00B9F5"/>
<path d="M12.8031 20.8011C12.5366 20.8011 12.2701 20.8045 12.003 20.8011C11.5388 20.7945 11.2055 20.4599 11.2015 19.9937C11.1975 19.5936 11.1968 19.1935 11.2015 18.7941C11.2075 18.3426 11.5421 18.01 11.995 18.006C12.5366 18.0013 13.0783 18 13.6199 18.006C14.0541 18.0114 14.39 18.3506 14.3967 18.7868C14.4027 19.2035 14.404 19.6203 14.396 20.0364C14.388 20.4572 14.0501 20.7905 13.628 20.8005C13.3535 20.8072 13.0783 20.8011 12.8031 20.8011ZM12.009 19.985H13.5879V18.8162H12.009V19.985Z" fill="#07448E"/>
<path d="M17.5982 20.8019C17.3397 20.8019 17.0819 20.8039 16.8234 20.8019C16.3398 20.7972 16.0046 20.468 16.0006 19.9898C15.9972 19.5984 15.9972 19.2063 16.0006 18.8149C16.0046 18.3454 16.3338 18.0095 16.7987 18.0054C17.3317 18.0008 17.8653 18.0008 18.3983 18.0054C18.8618 18.0095 19.1924 18.3467 19.1964 18.8156C19.1998 19.207 19.2004 19.599 19.1964 19.9904C19.1917 20.4706 18.8591 20.7966 18.3729 20.8012C18.1144 20.8039 17.8566 20.8019 17.5982 20.8019ZM16.8134 18.8069V19.9857H18.3789V18.8069H16.8134Z" fill="#07448E"/>
<path d="M22.3915 20.8018C22.125 20.8018 21.8585 20.8058 21.5914 20.8018C21.1405 20.7945 20.8053 20.4605 20.7999 20.0097C20.7952 19.6016 20.7939 19.1929 20.7999 18.7848C20.8066 18.3487 21.1419 18.0114 21.578 18.0067C22.1277 18.0007 22.678 18 23.2277 18.0067C23.6485 18.0127 23.9864 18.3513 23.9938 18.7721C24.0011 19.1969 24.0025 19.6223 23.9938 20.0465C23.9851 20.4532 23.6478 20.7878 23.2411 20.7998C22.9579 20.8085 22.6747 20.8012 22.3915 20.8018ZM21.6181 18.8082V19.9877H23.1796V18.8082H21.6181Z" fill="#07448E"/>
<path d="M27.1923 18.0046C27.4675 18.0046 27.742 17.9999 28.0172 18.0053C28.4513 18.014 28.7879 18.3499 28.7946 18.7861C28.8006 19.2028 28.8019 19.6196 28.7946 20.0357C28.7866 20.4564 28.4493 20.7937 28.0272 20.7997C27.4775 20.8071 26.9272 20.8064 26.3775 20.7997C25.9434 20.7944 25.6067 20.4544 25.6007 20.019C25.5947 19.6022 25.5934 19.1855 25.6007 18.7694C25.6087 18.3479 25.9454 18.0153 26.3675 18.0053C26.642 17.9986 26.9171 18.0046 27.1923 18.0046ZM27.9784 19.9943V18.8148H26.4115V19.9943H27.9784Z" fill="#07448E"/>
<path d="M12.7958 21.6033C13.071 21.6033 13.3455 21.5986 13.6207 21.6046C14.0548 21.6133 14.3908 21.9499 14.3974 22.3861C14.4035 22.7941 14.4028 23.2029 14.3974 23.611C14.3914 24.0611 14.0555 24.3957 13.6033 24.3998C13.0703 24.4051 12.5367 24.4044 12.0037 24.3998C11.5395 24.3957 11.2063 24.0591 11.2022 23.5923C11.1989 23.1922 11.1976 22.7921 11.2022 22.3927C11.2083 21.9412 11.5429 21.6113 11.9964 21.604C12.2629 21.5999 12.5286 21.6026 12.7958 21.6033ZM13.5813 23.5929V22.4134H12.0144V23.5929H13.5813Z" fill="#07448E"/>
<path d="M17.6124 21.6032C17.8789 21.6032 18.1453 21.5992 18.4125 21.6038C18.8493 21.6119 19.1893 21.9445 19.1959 22.3779C19.2026 22.7947 19.2033 23.2115 19.1959 23.6276C19.1886 24.0604 18.848 24.3943 18.4098 24.399C17.8682 24.4043 17.3265 24.405 16.7855 24.399C16.3487 24.3943 16.0094 24.0577 16.0021 23.6242C15.9954 23.2075 15.9954 22.7907 16.0021 22.3746C16.0094 21.9405 16.3487 21.6112 16.7882 21.6038C17.0634 21.5992 17.3373 21.6032 17.6124 21.6032ZM16.8082 23.5902H18.3845V22.4187H16.8082V23.5902Z" fill="#07448E"/>
<path d="M12.7743 28.0022C12.5245 28.0022 12.2741 28.0043 12.0243 28.0022C11.54 27.9976 11.2054 27.669 11.2007 27.1907C11.1974 26.7994 11.1974 26.4073 11.2007 26.0159C11.2048 25.5344 11.536 25.2078 12.0236 25.2052C12.5399 25.2024 13.0568 25.2024 13.5731 25.2052C14.0573 25.2078 14.3926 25.537 14.3973 26.0153C14.4013 26.4066 14.4013 26.7987 14.3973 27.1901C14.3926 27.671 14.06 27.9969 13.5744 28.0016C13.308 28.0042 13.0415 28.0022 12.7743 28.0022ZM13.5878 26.0166H12.0149V27.1854H13.5878V26.0166Z" fill="#07448E"/>
<path d="M17.6124 25.2028C17.8789 25.2028 18.1453 25.1988 18.4125 25.2035C18.8493 25.2115 19.1893 25.5441 19.1966 25.9776C19.2033 26.3943 19.204 26.8111 19.1966 27.2272C19.1893 27.6607 18.8486 27.9939 18.4105 27.9986C17.8688 28.004 17.3272 28.0046 16.7855 27.9986C16.3487 27.9939 16.0088 27.6573 16.0021 27.2245C15.9954 26.8078 15.9954 26.391 16.0021 25.9749C16.0094 25.5408 16.348 25.2115 16.7875 25.2035C17.0627 25.1988 17.3372 25.2028 17.6124 25.2028ZM18.3791 27.1931V26.0143H16.8142V27.1931H18.3791Z" fill="#07448E"/>
<path d="M21.6091 22.4011V23.5766C21.6646 23.5993 21.7267 23.6187 21.7828 23.6487C21.9598 23.7429 22.0292 23.8992 21.9878 24.0875C21.9464 24.2766 21.8175 24.3861 21.6178 24.4001C21.2204 24.4288 20.819 24.0895 20.805 23.6841C20.789 23.2266 20.789 22.7678 20.805 22.311C20.8183 21.9436 21.1556 21.6163 21.525 21.6077C22.0827 21.595 22.6404 21.5996 23.1981 21.6057C23.4352 21.6083 23.5928 21.774 23.5954 21.9964C23.5988 22.2301 23.4372 22.3971 23.1847 22.3998C22.6691 22.4051 22.1528 22.4018 21.6078 22.4018L21.6091 22.4011Z" fill="#07448E"/>
<path d="M28.43 25.298C28.1038 25.0358 27.731 24.8845 27.312 24.8342L28.43 25.298ZM28.43 25.298C28.4274 25.2978 28.4248 25.2976 28.4222 25.2974C28.3038 25.2882 28.1918 25.2795 28.08 25.2726C27.9746 25.2661 27.881 25.331 27.8735 25.4336C27.8655 25.5435 27.953 25.621 28.0616 25.6295C28.1221 25.6343 28.1827 25.6391 28.2432 25.6439C28.4325 25.6588 28.6219 25.6737 28.8113 25.6881C28.8918 25.6942 28.9629 25.6731 29.0116 25.6224L28.43 25.298ZM28.6832 25.0499C28.6825 25.0394 28.6818 25.0289 28.6811 25.0185L28.6832 25.0499ZM28.6832 25.0499C28.0208 24.4945 27.2607 24.326 26.4188 24.5371L26.431 24.5856L28.6832 25.0499ZM29.5496 27.0264C29.5122 27.7139 29.2482 28.3025 28.7613 28.7885C28.3522 29.1969 27.8591 29.441 27.2857 29.5184C26.1057 29.6776 25.0017 29.0251 24.6037 27.9094C24.3296 27.1402 24.4275 26.3948 24.8526 25.7045L29.5496 27.0264ZM29.5496 27.0264C29.5555 26.9185 29.4832 26.8279 29.3763 26.8252C29.3269 26.824 29.2837 26.8412 29.2519 26.8759C29.2215 26.9091 29.2054 26.9542 29.199 27.003C29.193 27.0495 29.1877 27.0956 29.1825 27.1412C29.1676 27.2717 29.1531 27.3986 29.1219 27.5223C28.8676 28.5302 27.8234 29.3333 26.6575 29.1838C26.1283 29.116 25.6843 28.8832 25.3356 28.4818C24.8816 27.9589 24.7298 27.3503 24.8537 26.6708M29.5496 27.0264L24.8537 26.6708L29.5496 27.0264ZM24.8537 26.6708C25.0658 25.5067 26.175 24.6976 27.312 24.8342L24.8537 26.6708ZM29.0059 24.6302L28.9561 24.6349L29.0713 25.4207C29.0632 25.3352 29.0568 25.2501 29.0503 25.1644C29.0466 25.1146 29.0428 25.0646 29.0387 25.0142C29.0374 24.9978 29.036 24.9813 29.0347 24.9648C29.0256 24.8535 29.0165 24.7418 29.0059 24.6302Z" fill="#00B9F5"/>
<path d="M28.43 25.298C28.1038 25.0358 27.731 24.8845 27.312 24.8342M28.43 25.298L27.312 24.8342M28.43 25.298C28.4274 25.2978 28.4248 25.2976 28.4222 25.2974C28.3038 25.2882 28.1918 25.2795 28.08 25.2726C27.9746 25.2661 27.881 25.331 27.8735 25.4336C27.8655 25.5435 27.953 25.621 28.0616 25.6295C28.1221 25.6343 28.1827 25.6391 28.2432 25.6439C28.4325 25.6588 28.6219 25.6737 28.8113 25.6881C28.8918 25.6942 28.9629 25.6731 29.0116 25.6224L28.43 25.298ZM27.312 24.8342C26.175 24.6976 25.0658 25.5067 24.8537 26.6708M27.312 24.8342L24.8537 26.6708M28.6832 25.0499C28.6825 25.0394 28.6818 25.0289 28.6811 25.0185L28.6832 25.0499ZM28.6832 25.0499C28.0208 24.4945 27.2607 24.326 26.4188 24.5371L26.431 24.5856L28.6832 25.0499ZM29.5496 27.0264C29.5122 27.7139 29.2482 28.3025 28.7613 28.7885C28.3522 29.1969 27.8591 29.441 27.2857 29.5184C26.1057 29.6776 25.0017 29.0251 24.6037 27.9094C24.3296 27.1402 24.4275 26.3948 24.8526 25.7045L29.5496 27.0264ZM29.5496 27.0264L29.4996 27.0237M29.5496 27.0264C29.5555 26.9185 29.4832 26.8279 29.3763 26.8252C29.3269 26.824 29.2837 26.8412 29.2519 26.8759C29.2215 26.9091 29.2054 26.9542 29.199 27.003M29.5496 27.0264L24.8537 26.6708M29.199 27.003L29.2486 27.0094M29.199 27.003C29.193 27.0495 29.1877 27.0956 29.1825 27.1412C29.1676 27.2717 29.1531 27.3986 29.1219 27.5223C28.8676 28.5302 27.8234 29.3333 26.6575 29.1838C26.1283 29.116 25.6843 28.8832 25.3356 28.4818C24.8816 27.9589 24.7298 27.3503 24.8537 26.6708M29.0059 24.6302L28.9561 24.6349L29.0713 25.4207C29.0632 25.3352 29.0568 25.2501 29.0503 25.1644C29.0466 25.1146 29.0428 25.0646 29.0387 25.0142C29.0374 24.9978 29.036 24.9813 29.0347 24.9648C29.0256 24.8535 29.0165 24.7418 29.0059 24.6302Z" stroke="#00B9F5" stroke-width="0.1"/>
</svg>
