<svg width="40" height="40" viewBox="0 0 40 40" fill="none" xmlns="http://www.w3.org/2000/svg">
<path d="M19.9008 8C20.021 8.12834 20.1612 8.24354 20.2583 8.38753C21.4616 10.1637 22.6586 11.9442 23.8569 13.7234C23.9001 13.7879 23.9458 13.8505 24.0084 13.9407C24.0647 13.8631 24.1148 13.7998 24.1599 13.7328C24.5086 13.2157 24.8561 12.6973 25.206 12.1802C25.4734 11.7858 25.8346 11.7839 26.1025 12.1815C27.1243 13.694 28.151 15.2035 29.1609 16.7242C30.2464 18.3582 29.9935 20.5588 28.5686 21.9549C28.4465 22.0745 28.4165 22.1878 28.4334 22.3456C28.9161 26.8294 25.8477 30.9821 21.4209 31.8391C16.664 32.7607 12.0362 29.6279 11.156 24.8604C10.7115 22.4539 11.2242 20.2395 12.6034 18.2111C14.8134 14.9599 17.0009 11.6938 19.2021 8.43636C19.3085 8.27922 19.4481 8.14525 19.5727 8C19.6823 8 19.7912 8 19.9008 8ZM19.7486 9.32099C19.6716 9.43243 19.6184 9.50881 19.5658 9.58644C17.5161 12.6278 15.4808 15.678 13.4123 18.7069C12.1351 20.5769 11.6831 22.6048 12.1163 24.8216C13.1493 30.1075 19.3204 32.7563 23.8725 29.8595C25.9567 28.5329 27.1556 26.6172 27.4836 24.1693C27.5462 23.7035 27.5331 23.2277 27.5575 22.7124C27.4179 22.7675 27.3396 22.7963 27.2633 22.8289C26.5871 23.1187 25.8784 23.2102 25.1553 23.1231C22.0588 22.75 20.4555 19.2234 22.2009 16.6415C22.5766 16.0856 22.9447 15.5246 23.3285 14.9743C23.4205 14.8422 23.4161 14.7564 23.3272 14.6256C22.5108 13.4261 21.702 12.2209 20.8912 11.0176C20.5168 10.4623 20.1431 9.90636 19.7486 9.32099ZM25.6599 13.2257C25.623 13.2683 25.6004 13.2896 25.5835 13.3146C24.6989 14.6269 23.7974 15.9284 22.9347 17.2551C21.6181 19.281 23.0023 22.0507 25.4026 22.1934C26.7336 22.2729 27.7854 21.7301 28.4465 20.5701C29.1014 19.42 29.0338 18.2524 28.3025 17.1468C27.4818 15.9046 26.641 14.6757 25.8083 13.4411C25.762 13.3722 25.7138 13.3034 25.6599 13.2257Z" fill="#07448E"/>
<path d="M12.9626 23.4678C12.9777 22.0241 13.3639 20.7789 14.154 19.6626C14.3581 19.374 14.6355 19.2926 14.8696 19.4504C15.1188 19.6182 15.1401 19.9011 14.9272 20.2092C13.3013 22.5619 13.6582 25.629 15.7818 27.5234C16.3478 28.0287 17.0001 28.3862 17.7207 28.6241C17.9949 28.7148 18.1352 28.9052 18.1139 29.1355C18.0838 29.4611 17.7846 29.637 17.4352 29.525C16.468 29.2138 15.6184 28.7011 14.899 27.9861C13.6256 26.7208 12.9939 25.1807 12.9639 23.4684L12.9626 23.4678Z" fill="#00B9F5"/>
<path d="M18.6217 29.4768C18.6205 29.222 18.8221 29.0116 19.0738 29.006C19.3311 29.0003 19.5608 29.217 19.5658 29.4693C19.5709 29.7241 19.3505 29.9482 19.0938 29.9494C18.8271 29.9507 18.623 29.7466 18.6217 29.4768Z" fill="#00B9F5"/>
<path d="M23.0398 18.7277C23.0843 18.5424 23.1394 18.2362 23.2339 17.9426C23.3422 17.6058 23.6026 17.4749 23.8781 17.5807C24.1373 17.6803 24.2325 17.9464 24.1173 18.2663C23.9476 18.7383 23.9495 19.2079 24.2131 19.6367C24.3477 19.8558 24.5524 20.0362 24.7421 20.2171C24.8942 20.3623 24.9768 20.5408 24.8948 20.7173C24.8316 20.8544 24.6832 20.9928 24.5424 21.0416C24.4303 21.0804 24.2469 21.0184 24.1379 20.9414C23.4192 20.435 23.0793 19.7219 23.0398 18.7277Z" fill="#00B9F5"/>
<path d="M26.1338 21.0161C26.1357 21.2834 25.9322 21.4906 25.6655 21.4931C25.4013 21.4956 25.1953 21.2846 25.1985 21.0161C25.2016 20.7531 25.3944 20.5578 25.6542 20.5547C25.9266 20.5515 26.1319 20.7481 26.1338 21.0161Z" fill="#00B9F5"/>
</svg>
